<?xml version="1.0" encoding="UTF-8"?>
<svg width="32px" height="32px" viewBox="0 0 32 32" version="1.1" xmlns="http://www.w3.org/2000/svg" xmlns:xlink="http://www.w3.org/1999/xlink">
    <title>api</title>
    <g id="🧠-Symbols" stroke="none" stroke-width="1" fill="none" fill-rule="evenodd">
        <g id="api">
            <rect id="boundbox" fill="#333333" opacity="0" x="0" y="0" width="32" height="32"></rect>
            <g>
                <rect id="Rectangle" fill="#333333" fill-rule="nonzero" x="21" y="11.5" width="1.6" height="8"></rect>
                <rect id="Rectangle" x="21" y="11.5" width="1.6" height="8"></rect>
                <path d="M16.4,19.5 L16.4,16.7 L17.5,16.7 C18.3,16.7 19,16.5 19.4,16 C19.9,15.5 20.1,14.9 20.1,14.1 C20.1,13.3 19.9,12.7 19.4,12.2 C18.9,11.7 18.3,11.5 17.5,11.5 L14.8,11.5 L14.8,19.5 L16.4,19.5 Z" id="Path"></path>
                <polygon id="Path" points="9.3 19.5 9.7 17.9 11.9 17.9 12.3 19.5 14 19.5 11.5 11.5 10 11.5 7.5 19.5"></polygon>
                <path d="M17.4,31 L13.5,31 C12.7,31 12,30.3 12,29.5 L12,27.1 C11.2,26.9 10.4,26.5 9.6,26.1 L7.9,27.8 C7.3,28.4 6.4,28.4 5.8,27.8 L3.1,25.1 C2.8,24.8 2.7,24.4 2.7,24.1 C2.7,23.7 2.9,23.3 3.1,23.1 L4.8,21.4 C4.4,20.6 4.1,19.8 3.8,19 L1.5,19 C0.7,19 0,18.3 0,17.5 L0,13.6 C0,12.8 0.7,12.1 1.5,12.1 L3.9,12.1 C4.1,11.3 4.5,10.5 4.9,9.7 L3.2,8 C2.6,7.4 2.6,6.5 3.2,5.9 L5.9,3.2 C6.5,2.6 7.4,2.6 8,3.2 L9.7,4.9 C10.5,4.5 11.3,4.2 12.1,3.9 L12.1,1.5 C12.1,0.7 12.8,0 13.6,0 L17.5,0 C18.3,0 19,0.7 19,1.5 L19,3.9 C19.8,4.1 20.6,4.5 21.4,4.9 L23.1,3.2 C23.7,2.6 24.6,2.6 25.2,3.2 L27.9,5.9 C28.5,6.5 28.5,7.4 27.9,8 L26.2,9.7 C26.6,10.5 26.9,11.3 27.2,12.1 L29.5,12.1 C30.3,12.1 31,12.8 31,13.6 L31,17.5 C31,18.3 30.3,19 29.5,19 L27.1,19 C26.9,19.8 26.5,20.6 26.1,21.4 L27.8,23.1 C28.4,23.7 28.4,24.6 27.8,25.2 L25.1,27.9 C24.5,28.5 23.6,28.5 23,27.9 L21.3,26.2 C20.5,26.6 19.7,26.9 18.9,27.2 L18.9,29.5 C18.9,30.3 18.3,31 17.4,31 Z M14.1,29 L16.9,29 L16.9,26.4 C16.9,25.9 17.2,25.5 17.7,25.4 C18.8,25.1 19.9,24.7 20.9,24.1 C21.3,23.9 21.8,23.9 22.1,24.2 L24,26.1 L26,24.1 L24.1,22.2 C23.8,21.9 23.7,21.4 24,21 C24.6,20 25.1,18.9 25.3,17.8 C25.4,17.3 25.8,17 26.3,17 L28.9,17 L28.9,14.2 L26.3,14.2 C25.8,14.2 25.4,13.9 25.3,13.4 C25,12.3 24.6,11.2 24,10.2 C23.7,9.8 23.8,9.3 24.1,9 L26,7.1 L24,5.1 L22.1,7 C21.8,7.3 21.3,7.4 20.9,7.1 C19.9,6.5 18.8,6 17.7,5.8 C17.2,5.7 16.9,5.3 16.9,4.8 L16.9,2 L14.1,2 L14.1,4.6 C14.1,5.1 13.8,5.5 13.3,5.6 C12.2,5.9 11.1,6.3 10.1,6.9 C9.7,7.2 9.2,7.1 8.9,6.8 L7,5 L5,7 L6.9,8.9 C7.2,9.2 7.3,9.7 7,10.1 C6.4,11.1 5.9,12.2 5.7,13.3 C5.6,13.8 5.2,14.1 4.7,14.1 L2,14.1 L2,16.9 L4.6,16.9 C5.1,16.9 5.5,17.2 5.6,17.7 C5.9,18.8 6.3,19.9 6.9,20.9 C7.2,21.3 7.1,21.8 6.8,22.1 L4.9,24 L6.9,26 L8.8,24.1 C9.1,23.8 9.6,23.7 10,24 C11,24.6 12.1,25.1 13.2,25.3 C13.7,25.4 14,25.8 14,26.3 L14,29 L14.1,29 Z" id="Shape" fill="#333333" fill-rule="nonzero"></path>
                <path d="M11.5,11.5 L10,11.5 L7.5,19.5 L9.3,19.5 L9.7,17.9 L11.9,17.9 L12.3,19.5 L14,19.5 L11.5,11.5 Z M10.1,16.5 L10.8,13.6 L11.6,16.5 L10.1,16.5 Z" id="Shape" fill="#333333" fill-rule="nonzero"></path>
                <path d="M19.4,12.2 C18.9,11.7 18.3,11.5 17.5,11.5 L14.8,11.5 L14.8,19.5 L16.4,19.5 L16.4,16.7 L17.5,16.7 C18.3,16.7 19,16.5 19.4,16 C19.9,15.5 20.1,14.9 20.1,14.1 C20.1,13.3 19.9,12.7 19.4,12.2 Z M18.2,15.1 C18.1,15.2 17.8,15.3 17.5,15.3 L16.4,15.3 L16.4,12.8 L17.5,12.8 C17.8,12.8 18,12.9 18.2,13.2 C18.4,13.4 18.5,13.8 18.5,14.2 C18.5,14.6 18.4,14.9 18.2,15.1 Z" id="Shape" fill="#333333" fill-rule="nonzero"></path>
            </g>
        </g>
    </g>
</svg>