<?xml version="1.0" encoding="UTF-8"?>
<svg width="32px" height="32px" viewBox="0 0 32 32" version="1.1" xmlns="http://www.w3.org/2000/svg" xmlns:xlink="http://www.w3.org/1999/xlink">
    <title>arrow-sort</title>
    <g id="🧠-Symbols" stroke="none" stroke-width="1" fill="none" fill-rule="evenodd">
        <g id="arrow-sort" fill="#333333">
            <rect id="boundbox" opacity="0" x="0" y="0" width="32" height="32"></rect>
            <g id="arrow-swap" transform="translate(16.000000, 16.000000) scale(-1, 1) rotate(90.000000) translate(-16.000000, -16.000000) translate(3.050000, 1.912484)" fill-rule="nonzero">
                <path d="M17.5659131,0.591019246 C17.1808637,1.17488834 17.2116362,1.9402221 17.6732233,2.40180924 L21.247,5.97503255 L1.35,5.97503255 C0.611928813,5.97503255 0,6.58696136 0,7.32503255 L0.00625332445,7.45387209 C0.0724281038,8.13297796 0.655344765,8.67503255 1.35,8.67503255 L21.246,8.67503255 L17.6732233,12.2482559 C17.1755922,12.7458869 17.1755922,13.7041782 17.6732233,14.2018092 C18.1708544,14.6994403 19.1291456,14.6994403 19.6267767,14.2018092 L25.5267767,8.30180924 C25.7695826,8.05900337 25.9,7.70035544 25.9,7.32503255 C25.9,7.00782393 25.8063655,6.70016762 25.6289434,6.46571707 L25.5386643,6.36100274 L19.6267767,0.448255852 C19.0257118,-0.152809043 18.1521171,-0.152809043 17.6547828,0.468858786 L17.5659131,0.591019246 Z" id="Path"></path>
                <path d="M6.2732233,14.0482559 L0.373223305,19.9482559 C0.130417428,20.1910617 0,20.5497097 0,20.9250325 C0,21.2422412 0.093634529,21.5498975 0.271056567,21.784348 L0.361335685,21.8890624 L6.2732233,27.8018092 C6.77085438,28.2994403 7.72914562,28.2994403 8.2267767,27.8018092 C8.46958257,27.5590034 8.6,27.2003554 8.6,26.8250325 L8.59206782,26.6654899 C8.56044424,26.3496029 8.43489602,26.0563752 8.2267767,25.8482559 L4.652,22.2740325 L24.55,22.2750325 C25.2880712,22.2750325 25.9,21.6631037 25.9,20.9250325 L25.8937467,20.796193 C25.8275719,20.1170871 25.2446552,19.5750325 24.55,19.5750325 L4.653,19.5740325 L8.2267767,16.0018092 C8.46958257,15.7590034 8.6,15.4003554 8.6,15.0250325 C8.6,14.6497097 8.46958257,14.2910617 8.2267767,14.0482559 C7.72914562,13.5506248 6.77085438,13.5506248 6.2732233,14.0482559 Z" id="Path"></path>
            </g>
        </g>
    </g>
</svg>