<?xml version="1.0" encoding="UTF-8"?>
<svg width="32px" height="32px" viewBox="0 0 32 32" version="1.1" xmlns="http://www.w3.org/2000/svg" xmlns:xlink="http://www.w3.org/1999/xlink">
    <title>arrow-down</title>
    <g id="🧠-Symbols" stroke="none" stroke-width="1" fill="none" fill-rule="evenodd">
        <g id="arrow-down" fill="#333333">
            <rect id="boundbox" opacity="0" x="0" y="0" width="32" height="32"></rect>
            <g id="arrow-up" transform="translate(16.000000, 16.000000) scale(1, -1) translate(-16.000000, -16.000000) translate(6.400000, 5.900000)" fill-rule="nonzero">
                <path d="M9.6,-0.25 C9.28279138,-0.25 8.97513507,-0.156365471 8.74068452,0.0210565669 L8.6359702,0.111335685 L0.123223305,8.6232233 C-0.119582572,8.86602918 -0.25,9.22467711 -0.25,9.6 C-0.25,9.97532289 -0.119582572,10.3339708 0.123223305,10.5767767 L0.228618671,10.6696678 C0.746579165,11.0721961 1.61232103,11.0412324 2.0767767,10.5767767 L8.25,4.402 L8.25,19.1 C8.25,19.8380712 8.86192881,20.45 9.6,20.45 L9.72883954,20.4437467 C10.4079454,20.3775719 10.95,19.7946552 10.95,19.1 L10.95,4.403 L17.1232233,10.5767767 C17.6208544,11.0744078 18.5791456,11.0744078 19.0767767,10.5767767 C19.5744078,10.0791456 19.5744078,9.12085438 19.0767767,8.6232233 L10.5767767,0.123223305 C10.3339708,-0.119582572 9.97532289,-0.25 9.6,-0.25 Z" id="Path"></path>
            </g>
        </g>
    </g>
</svg>