<?xml version="1.0" encoding="UTF-8"?>
<svg width="32px" height="32px" viewBox="0 0 32 32" version="1.1" xmlns="http://www.w3.org/2000/svg" xmlns:xlink="http://www.w3.org/1999/xlink">
    <title>0BE3CFDE-765A-4737-9B13-C1C89499F12E</title>
    <g id="🧠-Symbols" stroke="none" stroke-width="1" fill="none" fill-rule="evenodd">
        <g id="icon_back">
            <g>
                <rect id="boundbox" fill="#FFFFFF" opacity="0" x="0" y="0" width="32" height="32"></rect>
                <path d="M16.4709936,29.7793756 L16.9129496,29.3355985 C17.2057966,29.0415042 17.2057966,28.5645664 16.9129496,28.2704108 L5.75705366,17.0669997 L29.2499992,17.0669997 C29.6641842,17.0669997 30,16.7297536 30,16.3138045 L30,15.6861418 C30,15.2701927 29.6641842,14.9329466 29.2499992,14.9329466 L5.75705366,14.9329466 L16.9129496,3.72953555 C17.2057966,3.43544126 17.2057966,2.95850343 16.9129496,2.66434785 L16.4709936,2.22057072 C16.1780855,1.92647643 15.7032315,1.92647643 15.4103845,2.22057072 L2.21963525,15.4673793 C1.92678825,15.7615349 1.92678825,16.2384114 2.21963525,16.5326283 L15.4103845,29.7794369 C15.7032315,30.0735312 16.1780855,30.0735312 16.4709936,29.7793756 Z" id="element" fill="#333333" fill-rule="nonzero"></path>
            </g>
        </g>
    </g>
</svg>