<?xml version="1.0" encoding="UTF-8"?>
<svg width="32px" height="32px" viewBox="0 0 32 32" version="1.1" xmlns="http://www.w3.org/2000/svg" xmlns:xlink="http://www.w3.org/1999/xlink">
    <title>boundary-history</title>
    <g id="🧠-Symbols" stroke="none" stroke-width="1" fill="none" fill-rule="evenodd">
        <g id="boundary-history" fill="#333333">
            <rect id="boundbox" opacity="0" x="0" y="0" width="32" height="32"></rect>
            <g transform="translate(0.521005, 2.709403)" fill-rule="nonzero" id="Path">
                <path d="M30.8392305,11.7811948 C30.0392305,4.48119483 23.3392305,-0.718805174 15.9392305,0.0811948257 C9.83923048,0.781194826 4.93923048,5.48119483 4.03923048,11.2811948 L2.03923048,8.38119483 C1.73923048,7.88119483 1.03923048,7.78119483 0.539230485,8.08119483 C0.339230485,8.28119483 0.139230485,8.48119483 0.0392304845,8.78119483 C-0.0607695155,9.08119483 0.0392304845,9.38119483 0.239230485,9.58119483 L4.23923048,15.2811948 L4.33923048,15.3811948 C4.43923048,15.4811948 4.43923048,15.4811948 4.53923048,15.5811948 L4.63923048,15.6811948 C4.63923048,15.6811948 4.73923048,15.7811948 4.83923048,15.7811948 C4.93923048,15.7811948 4.93923048,15.7811948 5.03923048,15.7811948 L5.33923048,15.7811948 C5.43923048,15.7811948 5.43923048,15.7811948 5.53923048,15.6811948 C5.53923048,15.6811948 5.63923048,15.6811948 5.63923048,15.5811948 L10.9392305,10.7811948 C11.1392305,10.5811948 11.2392305,10.2811948 11.3392305,10.0811948 C11.3392305,9.78119483 11.2392305,9.48119483 11.0392305,9.28119483 C10.6392305,8.88119483 9.93923048,8.78119483 9.53923048,9.18119483 L6.13923048,12.2811948 C6.63923048,7.08119483 10.8392305,2.78119483 16.1392305,2.18119483 C19.1392305,1.88119483 22.1392305,2.68119483 24.4392305,4.48119483 C26.8392305,6.38119483 28.3392305,8.98119483 28.6392305,11.9811948 C28.9392305,14.8811948 28.1392305,17.7811948 26.3392305,20.0811948 C24.4392305,22.4811948 21.7392305,23.9811948 18.6392305,24.2811948 C15.1392305,24.6811948 11.7392305,23.4811948 9.33923048,21.0811948 C8.93923048,20.6811948 8.23923048,20.6811948 7.83923048,21.0811948 C7.63923048,21.3811948 7.53923048,21.5811948 7.53923048,21.8811948 C7.53923048,22.1811948 7.63923048,22.4811948 7.83923048,22.6811948 C10.4392305,25.1811948 13.7392305,26.5811948 17.3392305,26.5811948 C17.8392305,26.5811948 18.3392305,26.5811948 18.9392305,26.4811948 C22.5392305,26.0811948 25.7392305,24.2811948 27.9392305,21.5811948 C30.2392305,18.7811948 31.3392305,15.2811948 30.8392305,11.7811948 Z"></path>
                <path d="M17.2392305,5.88119483 C16.6392305,5.88119483 16.2392305,6.28119483 16.2392305,6.88119483 L16.2392305,14.6811948 C16.2392305,15.0811948 16.4392305,15.3811948 16.8392305,15.5811948 L22.8392305,18.3811948 C22.9392305,18.4811948 23.1392305,18.4811948 23.2392305,18.4811948 C23.6392305,18.4811948 23.9392305,18.2811948 24.1392305,17.8811948 C24.3392305,17.3811948 24.1392305,16.7811948 23.6392305,16.5811948 L18.2392305,14.0811948 L18.2392305,6.88119483 C18.2392305,6.38119483 17.7392305,5.88119483 17.2392305,5.88119483 Z"></path>
            </g>
        </g>
    </g>
</svg>