<?xml version="1.0" encoding="UTF-8"?>
<svg width="32px" height="32px" viewBox="0 0 32 32" version="1.1" xmlns="http://www.w3.org/2000/svg" xmlns:xlink="http://www.w3.org/1999/xlink">
    <title>7FB9E6AA-240C-462D-91A3-477386234C3B</title>
    <g id="🧠-Symbols" stroke="none" stroke-width="1" fill="none" fill-rule="evenodd">
        <g id="icon_cancel">
            <g>
                <rect id="boundbox" fill="#FFFFFF" opacity="0" x="0" y="0" width="32" height="32"></rect>
                <path d="M10.1922963,10.1922963 C10.4838878,9.90070483 10.956651,9.90070483 11.2482424,10.1922963 L11.2482424,10.1922963 L15.9996027,14.9436027 L20.7517576,10.1922963 C21.0168407,9.92721315 21.4316526,9.90311468 21.7239591,10.1200009 L21.8077037,10.1922963 C22.0992952,10.4838878 22.0992952,10.956651 21.8077037,11.2482424 L21.8077037,11.2482424 L17.0556027,15.9996027 L21.8077037,20.7517576 C22.0727869,21.0168407 22.0968853,21.4316526 21.8799991,21.7239591 L21.8077037,21.8077037 C21.5161122,22.0992952 21.043349,22.0992952 20.7517576,21.8077037 L20.7517576,21.8077037 L15.9996027,17.0556027 L11.2482424,21.8077037 C10.9831593,22.0727869 10.5683474,22.0968853 10.2760409,21.8799991 L10.1922963,21.8077037 C9.90070483,21.5161122 9.90070483,21.043349 10.1922963,20.7517576 L10.1922963,20.7517576 L14.9436027,15.9996027 L10.1922963,11.2482424 C9.92721315,10.9831593 9.90311468,10.5683474 10.1200009,10.2760409 Z" id="Combined-Shape" stroke="#008392" stroke-width="0.45" fill="#4B636E" fill-rule="nonzero"></path>
                <path d="M16,0.85 C20.183557,0.85 23.971057,2.54572151 26.7126677,5.28733227 C29.4542785,8.02894302 31.15,11.816443 31.15,16 C31.15,20.183557 29.4542785,23.971057 26.7126677,26.7126677 C23.971057,29.4542785 20.183557,31.15 16,31.15 C11.816443,31.15 8.02894302,29.4542785 5.28733227,26.7126677 C2.54572151,23.971057 0.85,20.183557 0.85,16 C0.85,11.816443 2.54572151,8.02894302 5.28733227,5.28733227 C8.02894302,2.54572151 11.816443,0.85 16,0.85 Z" id="Path" stroke="#008392" stroke-width="1.7" fill-rule="nonzero"></path>
            </g>
        </g>
    </g>
</svg>