<svg width="32" height="32" viewBox="0 0 32 32" fill="none" xmlns="http://www.w3.org/2000/svg">
<rect opacity="0.01" width="32" height="32" fill="white"/>
<path d="M9.08143 17.0943V19.9028" stroke="black" stroke-width="1.45" stroke-linecap="round" stroke-linejoin="round"/>
<path d="M22.949 14.1835C22.9623 14.0145 22.9696 13.8442 22.9696 13.6715C22.9696 9.78527 19.8494 6.63388 16.0001 6.63388C12.1507 6.63388 9.03052 9.78527 9.03052 13.6715" stroke="black" stroke-width="1.45" stroke-linecap="round" stroke-linejoin="round"/>
<path d="M22.9191 19.9028V17.0943" stroke="black" stroke-width="1.45" stroke-linecap="round" stroke-linejoin="round"/>
<path d="M9.05151 14.1834H24.5058V17.0947H18.2047" stroke="black" stroke-width="1.45" stroke-linecap="round" stroke-linejoin="round"/>
<path d="M13.796 17.0943H7.49487V14.183H9.05135" stroke="black" stroke-width="1.45" stroke-linecap="round" stroke-linejoin="round"/>
<path fill-rule="evenodd" clip-rule="evenodd" d="M22.9701 20.3621H8.86597L15.918 15.9173L22.9701 20.3621Z" stroke="black" stroke-width="1.45" stroke-linecap="round" stroke-linejoin="round"/>
<path fill-rule="evenodd" clip-rule="evenodd" d="M5.12012 23.2731H26.8804V20.3617H5.12012V23.2731Z" stroke="black" stroke-width="1.45" stroke-linecap="round" stroke-linejoin="round"/>
<path d="M4.97568 21.4038H1.5V29.9908H5.64534" stroke="black" stroke-width="1.45" stroke-linecap="round" stroke-linejoin="round"/>
<path fill-rule="evenodd" clip-rule="evenodd" d="M17.0321 6.49818H14.9685V3.78894H15.9997H17.0321V6.49818Z" stroke="black" stroke-width="1.45" stroke-linecap="round" stroke-linejoin="round"/>
<path d="M16.0001 2.00919V3.78881" stroke="black" stroke-width="1.45" stroke-linecap="round" stroke-linejoin="round"/>
<path d="M24.5773 26.9101V23.2731" stroke="black" stroke-width="1.45" stroke-linecap="round" stroke-linejoin="round"/>
<path d="M7.24622 26.9101V23.2731" stroke="black" stroke-width="1.45" stroke-linecap="round" stroke-linejoin="round"/>
<path d="M27.3471 21.4038H30.5V29.9908H26.3559H5.64502V26.9104H26.3559V29.9908" stroke="black" stroke-width="1.45" stroke-linecap="round" stroke-linejoin="round"/>
</svg>
