<?xml version="1.0" encoding="UTF-8"?>
<svg width="16px" height="16px" viewBox="0 0 16 16" version="1.1" xmlns="http://www.w3.org/2000/svg" xmlns:xlink="http://www.w3.org/1999/xlink">
    <title>B860E611-4987-40DD-8960-F350F63E4445</title>
    <g id="PI-39-Profile-Page-VD" stroke="none" stroke-width="1" fill="none" fill-rule="evenodd">
        <g id="Profile-Page-–-Popovers-&gt;-Selected-Geo-(M)" transform="translate(-222.000000, -436.000000)" fill="#076C79">
            <g id="Group-5" transform="translate(0.000000, 429.000000)">
                <g id="Group-3" transform="translate(210.000000, 0.000000)">
                    <g id="Group-4" transform="translate(12.000000, 6.000000)">
                        <g id="chart" transform="translate(0.000000, 1.000000)">
                            <rect id="boundbox" opacity="0" x="0" y="0" width="16" height="16"></rect>
                            <g id="Group-3" transform="translate(0.515031, 0.862427)">
                                <g id="Group" fill-rule="nonzero">
                                    <path d="M14.3449376,13.0251465 L0.625,13.0251465 C0.280964406,13.0251465 0,13.3061109 0,13.6501465 C0,13.9941821 0.280964406,14.2751465 0.625,14.2751465 L14.3449376,14.2751465 C14.6889732,14.2751465 14.9699376,13.9941821 14.9699376,13.6501465 C14.9699376,13.3061109 14.6889732,13.0251465 14.3449376,13.0251465 Z" id="Path"></path>
                                    <path d="M7.13757324,6.51257324 L-5.88757324,6.51257324 C-6.23160884,6.51257324 -6.51257324,6.79353765 -6.51257324,7.13757324 C-6.51257324,7.48160884 -6.23160884,7.76257324 -5.88757324,7.76257324 L7.13757324,7.76257324 C7.48160884,7.76257324 7.76257324,7.48160884 7.76257324,7.13757324 C7.76257324,6.79353765 7.48160884,6.51257324 7.13757324,6.51257324 Z" id="Path" transform="translate(0.625000, 7.137573) rotate(90.000000) translate(-0.625000, -7.137573) "></path>
                                </g>
                                <g id="Group-2" transform="translate(2.862123, 1.705590)">
                                    <rect id="Rectangle" x="0" y="7.23246974" width="8.67274629" height="1.75"></rect>
                                    <rect id="Rectangle" x="3.63797881e-12" y="3.61623487" width="11.4615712" height="1.75"></rect>
                                    <rect id="Rectangle" x="3.63797881e-12" y="0" width="6.13524385" height="1.75"></rect>
                                </g>
                            </g>
                        </g>
                    </g>
                </g>
            </g>
        </g>
    </g>
</svg>