<?xml version="1.0" encoding="UTF-8"?>
<svg width="32px" height="32px" viewBox="0 0 32 32" version="1.1" xmlns="http://www.w3.org/2000/svg" xmlns:xlink="http://www.w3.org/1999/xlink">
    <title>check-circle-alt</title>
    <g id="🧠-Symbols" stroke="none" stroke-width="1" fill="none" fill-rule="evenodd">
        <g id="check-circle-alt" fill="#333333">
            <rect id="boundbox" opacity="0" x="0" y="0" width="32" height="32"></rect>
            <g transform="translate(0.250000, 0.250000)" fill-rule="nonzero" id="Combined-Shape">
                <path d="M15.75,0 C24.4435211,0 31.5,7.05647888 31.5,15.75 C31.5,24.4435211 24.4435211,31.5 15.75,31.5 C7.05647888,31.5 0,24.4435211 0,15.75 C0,7.05647888 7.05647888,0 15.75,0 Z M22.2435928,9.9082233 L13.0403695,19.112 L9.68714617,15.7582233 C9.1495151,15.2205922 8.28122385,15.2205922 7.74359278,15.7582233 C7.20596171,16.2958544 7.20596171,17.1641456 7.74359278,17.7017767 L12.0435928,22.0017767 L12.0323569,21.993675 C12.3251406,22.2933245 12.6761095,22.435 13.0403695,22.435 L13.1780002,22.4278979 C13.5020452,22.392976 13.7927485,22.2561744 14.0171462,22.0317767 L14.068382,21.963675 L24.1971462,11.8417767 C24.7373392,11.3015836 24.7335342,10.4302382 24.1871462,9.9082233 C23.6495151,9.37059223 22.7812239,9.37059223 22.2435928,9.9082233 Z"></path>
            </g>
        </g>
    </g>
</svg>