<?xml version="1.0" encoding="UTF-8"?>
<svg width="32px" height="32px" viewBox="0 0 32 32" version="1.1" xmlns="http://www.w3.org/2000/svg" xmlns:xlink="http://www.w3.org/1999/xlink">
    <title>check-circle</title>
    <g id="🧠-Symbols" stroke="none" stroke-width="1" fill="none" fill-rule="evenodd">
        <g id="check-circle" fill="#333333">
            <rect id="boundbox" opacity="0" x="0" y="0" width="32" height="32"></rect>
            <g transform="translate(0.250000, 0.250000)" fill-rule="nonzero">
                <path d="M15.75,0 C24.4435211,0 31.5,7.05647888 31.5,15.75 C31.5,24.4435211 24.4435211,31.5 15.75,31.5 C7.05647888,31.5 0,24.4435211 0,15.75 C0,7.05647888 7.05647888,0 15.75,0 Z M15.75,2.50380228 C8.44257055,2.50380228 2.50380228,8.44257055 2.50380228,15.75 C2.50380228,23.0574294 8.44257055,28.9961977 15.75,28.9961977 C23.0574294,28.9961977 28.9961977,23.0574294 28.9961977,15.75 C28.9961977,8.44257055 23.0574294,2.50380228 15.75,2.50380228 Z" id="Combined-Shape"></path>
                <path d="M22.0235928,9.6882233 L12.8203695,18.892 L9.46714617,15.5382233 C8.9295151,15.0005922 8.06122385,15.0005922 7.52359278,15.5382233 C6.98596171,16.0758544 6.98596171,16.9441456 7.52359278,17.4817767 L11.8235928,21.7817767 L11.8123569,21.773675 C12.1051406,22.0733245 12.4561095,22.215 12.8203695,22.215 L12.9580002,22.2078979 C13.2820452,22.172976 13.5727485,22.0361744 13.7971462,21.8117767 L13.848382,21.743675 L23.9771462,11.6217767 C24.5173392,11.0815836 24.5135342,10.2102382 23.9671462,9.6882233 C23.4295151,9.15059223 22.5612239,9.15059223 22.0235928,9.6882233 Z" id="Path"></path>
            </g>
        </g>
    </g>
</svg>