<?xml version="1.0" encoding="UTF-8"?>
<svg width="24px" height="24px" viewBox="0 0 24 24" version="1.1" xmlns="http://www.w3.org/2000/svg" xmlns:xlink="http://www.w3.org/1999/xlink">
    <title>_icon-hidepanel@3x</title>
    <g id="Page-2" stroke="none" stroke-width="1" fill="none" fill-rule="evenodd">
        <g id="_icon-hidepanel" fill="#076C79">
            <rect id="Rectangle" opacity="0" x="0" y="0" width="24" height="24"></rect>
            <g id="Group-15" transform="translate(3.000000, 4.000000)">
                <path d="M-2.74243307,5.40132043 C-3.08585564,5.04763635 -3.08585564,4.47422515 -2.74243307,4.12057881 L-1.91192423,3.26525426 C-1.56908789,2.91217393 -1.01344901,2.91149472 -0.6698066,3.26374489 L5.00001832,9.07562744 L10.6698066,3.26374489 C11.013449,2.91149472 11.5690879,2.91217393 11.9119609,3.26525426 L12.7424331,4.12057881 C13.0858556,4.47426288 13.0858556,5.04767409 12.7424331,5.40132043 L5.62182825,12.7347652 C5.27840568,13.0884116 4.72163096,13.0884116 4.37820839,12.7347652 L-2.74243307,5.40132043 Z" id="Chevron-Down" transform="translate(5.000000, 8.000000) rotate(90.000000) translate(-5.000000, -8.000000) "></path>
                <path d="M5.25756693,5.40132043 C4.91414436,5.04763635 4.91414436,4.47422515 5.25756693,4.12057881 L6.08807577,3.26525426 C6.43091211,2.91217393 6.98655099,2.91149472 7.3301934,3.26374489 L13.0000183,9.07562744 L18.6698066,3.26374489 C19.013449,2.91149472 19.5690879,2.91217393 19.9119609,3.26525426 L20.7424331,4.12057881 C21.0858556,4.47426288 21.0858556,5.04767409 20.7424331,5.40132043 L13.6218282,12.7347652 C13.2784057,13.0884116 12.721631,13.0884116 12.3782084,12.7347652 L5.25756693,5.40132043 Z" id="Chevron-Down" transform="translate(13.000000, 8.000000) rotate(90.000000) translate(-13.000000, -8.000000) "></path>
            </g>
        </g>
    </g>
</svg>