<?xml version="1.0" encoding="UTF-8"?>
<svg width="32px" height="32px" viewBox="0 0 32 32" version="1.1" xmlns="http://www.w3.org/2000/svg" xmlns:xlink="http://www.w3.org/1999/xlink">
    <title>42491295-DD0C-460A-8A42-84E0D85E98C1</title>
    <g id="🧠-Symbols" stroke="none" stroke-width="1" fill="none" fill-rule="evenodd">
        <g id="icon_drawer-hide">
            <g>
                <rect id="boundbox" fill="#FFFFFF" opacity="0" x="0" y="0" width="32" height="32"></rect>
                <path d="M16.6230144,18.8906214 L28.9862662,6.5215332 C29.2616676,6.24613179 29.2616676,5.80084324 28.9921026,5.5312783 L28.5761109,5.11528655 C28.3007095,4.83988514 27.8554209,4.83988514 27.5800195,5.11528655 L16.1249687,16.5645009 L4.67575437,5.10945008 C4.40041017,4.83404867 3.9550644,4.83404867 3.67966299,5.10945008 L3.26367125,5.52544182 C2.98826983,5.80084324 2.98826983,6.24613179 3.26367125,6.5215332 L15.626923,18.8906214 C15.9023244,19.1660229 16.347613,19.1660229 16.6230144,18.8906214 Z M16.6171779,26.3964973 L28.9804297,14.0273518 C29.2616676,13.7461139 29.2616676,13.3008254 28.9862662,13.0254239 L28.5702744,12.6094322 C28.294873,12.3340308 27.8495272,12.3340308 27.574183,12.6094322 L16.1249687,24.064483 L4.66991789,12.6152687 C4.39451648,12.3398673 3.94922793,12.3398673 3.67382652,12.6152687 L3.25783477,13.0312604 C2.98243336,13.3066618 2.98243336,13.7520076 3.25783477,14.0273518 L15.6210865,26.3964973 C15.8964307,26.6718987 16.3417765,26.6718987 16.6171779,26.3964973 Z" id="icon" fill="#333333" fill-rule="nonzero"></path>
            </g>
        </g>
    </g>
</svg>