<?xml version="1.0" encoding="UTF-8"?>
<svg width="32px" height="32px" viewBox="0 0 32 32" version="1.1" xmlns="http://www.w3.org/2000/svg" xmlns:xlink="http://www.w3.org/1999/xlink">
    <title>chevron-down-circle-alt</title>
    <g id="🧠-Symbols" stroke="none" stroke-width="1" fill="none" fill-rule="evenodd">
        <g id="chevron-down-circle-alt" fill="#333333">
            <rect id="boundbox" opacity="0" x="0" y="0" width="32" height="32"></rect>
            <path d="M16,0.25 C24.6935211,0.25 31.75,7.30647888 31.75,16 C31.75,24.6935211 24.6935211,31.75 16,31.75 C7.30647888,31.75 0.25,24.6935211 0.25,16 C0.25,7.30647888 7.30647888,0.25 16,0.25 Z M18.5696152,7.6 C18.2133811,7.6 17.9482064,7.71785543 17.6928385,7.9732233 L10.5928385,15.0732233 C10.3618235,15.3042384 10.2196152,15.6597589 10.2196152,15.95 C10.1254686,16.29581 10.1895765,16.5849775 10.4183609,16.8473595 L10.4873242,16.9210847 L17.5928385,24.0267767 C18.0904696,24.5244078 18.9487609,24.5244078 19.4463919,24.0267767 L19.5392831,23.9226554 C19.9418113,23.4163097 19.9108476,22.637679 19.4463919,22.1732233 L13.224,16.048 L19.4463919,9.8267767 C19.944023,9.32914562 19.944023,8.47085438 19.4463919,7.9732233 C19.2153769,7.74220822 18.8598563,7.6 18.5696152,7.6 Z" id="Combined-Shape" fill-rule="nonzero" transform="translate(16.000000, 16.000000) scale(-1, 1) rotate(-90.000000) translate(-16.000000, -16.000000) "></path>
        </g>
    </g>
</svg>