<?xml version="1.0" encoding="UTF-8"?>
<svg width="32px" height="32px" viewBox="0 0 32 32" version="1.1" xmlns="http://www.w3.org/2000/svg" xmlns:xlink="http://www.w3.org/1999/xlink">
    <title>chevron-down-circle</title>
    <g id="🧠-Symbols" stroke="none" stroke-width="1" fill="none" fill-rule="evenodd">
        <g id="chevron-down-circle" fill="#333333">
            <rect id="boundbox" opacity="0" x="0" y="0" width="32" height="32"></rect>
            <g id="chevron-left-circle" transform="translate(16.000000, 16.000000) scale(-1, 1) rotate(-90.000000) translate(-16.000000, -16.000000) translate(0.250000, 0.250000)" fill-rule="nonzero">
                <path d="M15.75,0 C24.4435211,0 31.5,7.05647888 31.5,15.75 C31.5,24.4435211 24.4435211,31.5 15.75,31.5 C7.05647888,31.5 0,24.4435211 0,15.75 C0,7.05647888 7.05647888,0 15.75,0 Z M15.75,2.50380228 C8.44257055,2.50380228 2.50380228,8.44257055 2.50380228,15.75 C2.50380228,23.0574294 8.44257055,28.9961977 15.75,28.9961977 C23.0574294,28.9961977 28.9961977,23.0574294 28.9961977,15.75 C28.9961977,8.44257055 23.0574294,2.50380228 15.75,2.50380228 Z" id="Combined-Shape"></path>
                <path d="M18.3196152,7.35 C17.9633811,7.35 17.6982064,7.46785543 17.4428385,7.7232233 L10.3428385,14.8232233 C10.1118235,15.0542384 9.96961524,15.4097589 9.96961524,15.7 C9.87546864,16.04581 9.93957652,16.3349775 10.1683609,16.5973595 L10.2373242,16.6710847 L17.3428385,23.7767767 C17.8404696,24.2744078 18.6987609,24.2744078 19.1963919,23.7767767 L19.2892831,23.6726554 C19.6918113,23.1663097 19.6608476,22.387679 19.1963919,21.9232233 L12.974,15.798 L19.1963919,9.5767767 C19.694023,9.07914562 19.694023,8.22085438 19.1963919,7.7232233 C18.9653769,7.49220822 18.6098563,7.35 18.3196152,7.35 Z" id="Path"></path>
            </g>
        </g>
    </g>
</svg>