<?xml version="1.0" encoding="UTF-8"?>
<svg width="32px" height="32px" viewBox="0 0 32 32" version="1.1" xmlns="http://www.w3.org/2000/svg" xmlns:xlink="http://www.w3.org/1999/xlink">
    <title>chevron-down</title>
    <g id="🧠-Symbols" stroke="none" stroke-width="1" fill="none" fill-rule="evenodd">
        <g id="chevron-down" fill="#333333">
            <rect id="boundbox" opacity="0" x="0" y="0" width="32" height="32"></rect>
            <path d="M19.5709194,7.6 C19.2146853,7.6 18.9495106,7.71785543 18.6941427,7.9732233 L11.5941427,15.0732233 C11.3631276,15.3042384 11.2209194,15.6597589 11.2209194,15.95 C11.1267728,16.29581 11.1908807,16.5849775 11.419665,16.8473595 L11.4886283,16.9210847 L18.5941427,24.0267767 C19.0917738,24.5244078 19.950065,24.5244078 20.4476961,24.0267767 L20.5405872,23.9226554 C20.9431155,23.4163097 20.9121518,22.637679 20.4476961,22.1732233 L14.2253042,16.048 L20.4476961,9.8267767 C20.9453272,9.32914562 20.9453272,8.47085438 20.4476961,7.9732233 C20.216681,7.74220822 19.8611605,7.6 19.5709194,7.6 Z" id="Path" fill-rule="nonzero" transform="translate(16.000000, 16.000000) scale(1, -1) rotate(90.000000) translate(-16.000000, -16.000000) "></path>
        </g>
    </g>
</svg>