<?xml version="1.0" encoding="UTF-8"?>
<svg width="32px" height="32px" viewBox="0 0 32 32" version="1.1" xmlns="http://www.w3.org/2000/svg" xmlns:xlink="http://www.w3.org/1999/xlink">
    <title>_icon-chevron-inverse</title>
    <g id="_icon-chevron-inverse" stroke="none" stroke-width="1" fill="none" fill-rule="evenodd">
        <rect id="boundbox" fill="#D8D8D8" opacity="0" x="0" y="0" width="32" height="32"></rect>
        <path d="M29,16 C29,8.82029178 23.179634,3 15.9998342,3 C8.82003443,3 3,8.82029178 3,16 C3,23.1800398 8.82003443,29 15.9998342,29 C23.179634,29 29,23.1797082 29,16 Z M15.2070522,20.7360743 L9.06937448,14.596817 C8.63170312,14.1611406 8.63170312,13.4512599 9.06937448,13.0135942 C9.50638271,12.5769231 10.2156093,12.5769231 10.6532806,13.0135942 L15.9995026,18.3610743 L21.3470509,13.0132626 C21.7843907,12.5755968 22.4936173,12.5769231 22.9309571,13.0132626 C23.1497928,13.2314324 23.2592106,13.5188992 23.2592106,13.8060345 C23.2592106,14.0931698 23.1497928,14.3796419 22.9309571,14.5988064 L16.7932793,20.7360743 C16.3552764,21.1737401 15.6450552,21.1737401 15.2070522,20.7360743 Z" id="Shape" fill="#076C79" transform="translate(16.000000, 16.000000) rotate(-90.000000) translate(-16.000000, -16.000000) "></path>
    </g>
</svg>