<?xml version="1.0" encoding="UTF-8"?>
<svg width="32px" height="32px" viewBox="0 0 32 32" version="1.1" xmlns="http://www.w3.org/2000/svg" xmlns:xlink="http://www.w3.org/1999/xlink">
    <title>9CB0D467-0F61-46B7-87E8-7AFC20EC2B5B</title>
    <g id="🧠-Symbols" stroke="none" stroke-width="1" fill="none" fill-rule="evenodd">
        <g id="icon-chip-remove">
            <g>
                <rect id="boundbox" fill="#FFFFFF" opacity="0" x="0" y="0" width="32" height="32"></rect>
                <path d="M10.8815886,12.4984018 C10.5844935,12.2114613 10.465343,11.7865455 10.5699327,11.3869714 C10.6745224,10.9873972 10.9865756,10.6753476 11.3861546,10.5707592 C11.7857335,10.4661708 12.2106543,10.5853199 12.4975982,10.8824114 L16.0000953,14.3848668 L19.5018304,10.8824114 C19.9500611,10.4490868 20.6628788,10.4549427 21.1039298,10.8955727 C21.5449808,11.3362028 21.5515088,12.0490061 21.1186019,12.4976399 L17.6161049,16.0008572 L21.1186019,19.5017887 C21.5452473,19.9514899 21.5359368,20.6592259 21.0976091,21.0975484 C20.6592814,21.5358709 19.951537,21.5451813 19.5018304,21.118541 L16.0000953,17.6168475 L12.4975982,21.118541 C12.2836781,21.3335418 11.9928891,21.4544196 11.6895934,21.4544196 C11.3862977,21.4544196 11.0955087,21.3335418 10.8815886,21.118541 C10.6671016,20.9041939 10.5465925,20.6133945 10.5465925,20.3101648 C10.5465925,20.0069352 10.6671016,19.7161357 10.8815886,19.5017887 L14.3840856,16.0000952 L10.8815886,12.4984018 Z M27.3136864,27.3135517 C33.5621045,21.0659698 33.5621045,10.9349825 27.3136864,4.68740067 C21.0652683,-1.56246689 10.9341603,-1.56246689 4.68574219,4.68740067 C-1.56191406,10.9349825 -1.56191406,21.0659698 4.68574219,27.3143136 C10.9341603,33.5618955 21.0652683,33.5618955 27.3136864,27.3143136 L27.3136864,27.3135517 Z" id="Shape" fill="#008392"></path>
            </g>
        </g>
    </g>
</svg>