<?xml version="1.0" encoding="UTF-8"?>
<svg width="32px" height="32px" viewBox="0 0 32 32" version="1.1" xmlns="http://www.w3.org/2000/svg" xmlns:xlink="http://www.w3.org/1999/xlink">
    <title>classes</title>
    <g id="🧠-Symbols" stroke="none" stroke-width="1" fill="none" fill-rule="evenodd">
        <g id="classes" fill="#333333">
            <rect id="boundbox" opacity="0" x="0" y="0" width="32" height="32"></rect>
            <g transform="translate(1.650000, 0.600000)" fill-rule="nonzero" id="Shape">
                <path d="M20.1,9.4 L27.6,9.4 C28.2,9.4 28.6,9 28.6,8.4 L28.6,1 C28.6,0.4 28.2,0 27.6,0 L20.1,0 C19.5,0 19.1,0.4 19.1,1 L19.1,3.7 L13.3,3.7 C12.7,3.7 12.3,4.1 12.3,4.7 L12.3,14.4 L9.5,14.4 L9.5,11.7 C9.5,11.1 9.1,10.7 8.5,10.7 L1,10.7 C0.4,10.7 -1.77635684e-15,11.1 -1.77635684e-15,11.7 L-1.77635684e-15,19.2 C-1.77635684e-15,19.8 0.4,20.2 1,20.2 L8.5,20.2 C9.1,20.2 9.5,19.8 9.5,19.2 L9.5,16.4 L12.3,16.4 L12.3,26.1 C12.3,26.7 12.7,27.1 13.3,27.1 L19.2,27.1 L19.2,29.8 C19.2,30.4 19.6,30.8 20.2,30.8 L27.7,30.8 C28.3,30.8 28.7,30.4 28.7,29.8 L28.7,22.4 C28.7,21.8 28.3,21.4 27.7,21.4 L20.2,21.4 C19.6,21.4 19.2,21.8 19.2,22.4 L19.2,25.1 L14.3,25.1 L14.3,5.7 L19.2,5.7 L19.2,8.4 C19.1,9 19.6,9.4 20.1,9.4 Z M7.5,18.1 L2,18.1 L2,12.6 L7.5,12.6 L7.5,18.1 Z M21.1,23.4 L26.6,23.4 L26.6,28.9 L21.1,28.9 L21.1,23.4 Z M21.1,2 L26.6,2 L26.6,7.4 L21.1,7.4 L21.1,2 Z"></path>
            </g>
        </g>
    </g>
</svg>