<?xml version="1.0" encoding="UTF-8"?>
<svg width="32px" height="32px" viewBox="0 0 32 32" version="1.1" xmlns="http://www.w3.org/2000/svg" xmlns:xlink="http://www.w3.org/1999/xlink">
    <title>737BC830-8B79-4971-B4E7-57360E1E547C</title>
    <g id="🧠-Symbols" stroke="none" stroke-width="1" fill="none" fill-rule="evenodd">
        <g id="icon_select">
            <g>
                <rect id="boundbox" fill="#FFFFFF" opacity="0" x="0" y="0" width="32" height="32"></rect>
                <path d="M27.7803301,4.21966991 C28.0506931,4.49003289 28.0714902,4.91545618 27.8427215,5.20967458 L27.7803301,5.28033009 L17.061,16 L27.7803301,26.7196699 C28.0732233,27.0125631 28.0732233,27.4874369 27.7803301,27.7803301 C27.5099671,28.0506931 27.0845438,28.0714902 26.7903254,27.8427215 L26.7196699,27.7803301 L16,17.061 L5.28033009,27.7803301 C4.98743687,28.0732233 4.51256313,28.0732233 4.21966991,27.7803301 C3.94930694,27.5099671 3.92850979,27.0845438 4.15727846,26.7903254 L4.21966991,26.7196699 L14.939,16 L4.21966991,5.28033009 C3.9267767,4.98743687 3.9267767,4.51256313 4.21966991,4.21966991 C4.49003289,3.94930694 4.91545618,3.92850979 5.20967458,4.15727846 L5.28033009,4.21966991 L16,14.939 L26.7196699,4.21966991 C27.0125631,3.9267767 27.4874369,3.9267767 27.7803301,4.21966991 Z" id="Combined-Shape" stroke="#112E51" stroke-width="1.5" fill="#112E51" fill-rule="nonzero"></path>
            </g>
        </g>
    </g>
</svg>