<?xml version="1.0" encoding="UTF-8"?>
<svg width="32px" height="32px" viewBox="0 0 32 32" version="1.1" xmlns="http://www.w3.org/2000/svg" xmlns:xlink="http://www.w3.org/1999/xlink">
    <title>38920014-95BB-44FE-9EC5-662F0A7214E8</title>
    <g id="🧠-Symbols" stroke="none" stroke-width="1" fill="none" fill-rule="evenodd">
        <g id="icon_code">
            <g>
                <rect id="boundbox" fill="#FFFFFF" opacity="0" x="0" y="0" width="32" height="32"></rect>
                <path d="M28.787826,24.3446655 C29.133004,24.3446655 29.412826,24.6244875 29.412826,24.9696655 C29.412826,25.2834637 29.1815681,25.5432486 28.8801839,25.5878889 L28.787826,25.5946655 L3.030301,25.5946655 C2.68512303,25.5946655 2.405301,25.3148435 2.405301,24.9696655 C2.405301,24.6558673 2.63655888,24.3960824 2.93794308,24.3514421 L3.030301,24.3446655 L28.787826,24.3446655 Z M25.7583295,8 C26.9413227,8 27.8733641,8.32231019 28.5544814,8.96694024 C29.2355988,9.6115703 29.5761523,10.494939 29.5761523,11.6170728 C29.5761523,12.2437964 29.3774961,12.8212688 28.9801776,13.3495074 C28.5828592,13.8777459 28.0376747,14.2731727 27.344608,14.5357998 C28.157169,14.7626141 28.7725553,15.1520722 29.1907852,15.7041859 C29.6090152,16.2562996 29.818127,16.9143496 29.818127,17.6783556 C29.818127,18.7945206 29.4536749,19.692811 28.7247599,20.3732539 C27.9958448,21.0536967 27.0219812,21.393913 25.8031396,21.393913 C25.0264268,21.393913 24.3139529,21.2387266 23.6656965,20.9283492 C23.0174401,20.6179717 22.5155717,20.1837483 22.1600763,19.6256658 C21.8045808,19.0675833 21.6268357,18.4184864 21.6268357,17.6783556 L22.7022788,17.6783556 C22.7022788,18.5080183 22.9920481,19.1839744 23.5715953,19.7062441 C24.1511425,20.2285139 24.8949831,20.4896448 25.8031396,20.4896448 C26.7292202,20.4896448 27.450656,20.2523887 27.9674687,19.7778694 C28.4842815,19.30335 28.7426839,18.6154565 28.7426839,17.7141682 C28.7426839,16.8427239 28.4633703,16.177213 27.9047346,15.7176156 C27.3460989,15.2580183 26.5230944,15.0282231 25.4356966,15.0282231 L24.3602535,15.0282231 L24.3602535,14.1150017 L25.4715447,14.1150017 C26.0869401,14.1150017 26.6246563,14.0060728 27.0847092,13.7882117 C27.5447622,13.5703507 27.8957713,13.2719153 28.1377472,12.8928967 C28.3797231,12.5138781 28.5007093,12.0766703 28.5007093,11.5812602 C28.5007093,10.7456286 28.2647116,10.0920552 27.7927092,9.62052022 C27.3207069,9.14898528 26.6425871,8.91322134 25.7583295,8.91322134 C24.9218696,8.91322134 24.2362815,9.15943051 23.7015446,9.65185625 C23.1668078,10.144282 22.8994434,10.7933789 22.8994434,11.5991665 L21.8240003,11.5991665 C21.8240003,10.9246924 21.9942771,10.3084234 22.3348357,9.7503409 C22.6753944,9.1922584 23.1473897,8.76101931 23.7508358,8.45661067 C24.3542818,8.15220203 25.0234397,8 25.7583295,8 Z M6.62440513,8.13429726 L6.62440513,21.21485 L5.54896208,21.21485 L5.54896208,9.46831667 L2,10.7844298 L2,9.78167693 L6.44516462,8.13429726 L6.62440513,8.13429726 Z M15.5236964,8 C16.7186391,8 17.6521741,8.31335713 18.3243294,8.94008079 C18.9964846,9.56680445 19.3325572,10.4203296 19.3325572,11.5006818 C19.3325572,12.1094991 19.1428629,12.7750099 18.7634686,13.4972343 C18.3840743,14.2194588 17.7164101,15.1207336 16.7604559,16.2010858 L13.1218736,20.3105818 L19.9778231,20.3105818 L19.9778231,21.21485 L11.8044558,21.21485 L11.8044558,20.3911602 L16.2765065,15.323677 C17.017371,14.4701391 17.5311887,13.7658316 17.8179749,13.2107335 C18.1047612,12.6556354 18.2481521,12.1154674 18.2481521,11.5902133 C18.2481521,10.7665194 18.0061799,10.1144381 17.5222281,9.63394995 C17.0382763,9.15346181 16.3721057,8.91322134 15.5236964,8.91322134 C14.6454135,8.91322134 13.9359269,9.19375058 13.3952154,9.75481748 C12.8545038,10.3158844 12.5841521,11.0440667 12.5841521,11.9393862 L11.517671,11.9393862 C11.517671,11.2052242 11.6834668,10.536729 12.0150634,9.93388049 C12.34666,9.33103201 12.8186553,8.85801196 13.4310635,8.51480615 C14.0434716,8.17160033 14.7410089,8 15.5236964,8 Z" id="icon-element" stroke="#112E51" stroke-width="0.51005" fill="#112E51" fill-rule="nonzero"></path>
            </g>
        </g>
    </g>
</svg>