<?xml version="1.0" encoding="UTF-8"?>
<svg width="32px" height="32px" viewBox="0 0 32 32" version="1.1" xmlns="http://www.w3.org/2000/svg" xmlns:xlink="http://www.w3.org/1999/xlink">
    <title>codes</title>
    <g id="🧠-Symbols" stroke="none" stroke-width="1" fill="none" fill-rule="evenodd">
        <g id="codes" fill="#333333">
            <rect id="boundbox" opacity="0" x="0" y="0" width="32" height="32"></rect>
            <g transform="translate(1.000000, 6.300000)" fill-rule="nonzero" id="Path">
                <path d="M2,13.4 L8.2,13.4 C8.7,13.4 8.9,13.1 8.9,12.7 L8.9,12.3 C8.9,11.8 8.6,11.6 8.2,11.6 L6.1,11.6 L6.1,1 C6.1,0.5 5.8,0.3 5.4,0.3 L4.8,0.3 C4.5,0.2 4.2,0.3 4,0.6 L1.7,2.9 C1.5,3.1 1.4,3.3 1.4,3.4 C1.4,3.6 1.5,3.8 1.7,3.9 L1.9,4.1 C2,4.3 2.2,4.4 2.4,4.4 C2.6,4.4 2.8,4.3 3,4.2 L3.8,3.4 C3.9,3.3 4.1,3.1 4.2,3 L4.2,11.6 L2,11.6 C1.5,11.6 1.3,11.9 1.3,12.3 L1.3,12.7 C1.2,13.1 1.5,13.4 2,13.4 Z"></path>
                <path d="M10.7,13.4 L17.8,13.4 C18.3,13.4 18.5,13.1 18.5,12.7 L18.5,12.3 C18.5,11.8 18.2,11.6 17.8,11.6 L12.1,11.6 C12.1,11.2 12.3,10.8 12.5,10.5 C12.8,10.1 13.2,9.8 13.6,9.4 C14.1,9.1 14.6,8.7 15.1,8.4 C15.6,8.1 16.1,7.7 16.6,7.2 C17.1,6.8 17.5,6.3 17.8,5.8 C18.1,5.3 18.3,4.6 18.3,3.9 C18.3,3.3 18.2,2.8 18,2.3 C17.8,1.8 17.5,1.4 17.1,1.1 C16.7,0.8 16.3,0.5 15.8,0.3 C15.3,0.1 14.7,0 14.1,0 C13.6,0 13.1,0.1 12.7,0.2 C12.3,0.3 11.9,0.5 11.6,0.7 C11.3,0.9 11,1.1 10.8,1.4 C10.6,1.6 10.4,1.8 10.3,2 C10.1,2.4 10.1,2.7 10.5,3 L10.8,3.3 C11,3.5 11.2,3.5 11.4,3.5 C11.6,3.5 11.7,3.4 11.9,3.2 C12,3.1 12.1,3 12.2,2.8 C12.3,2.7 12.5,2.5 12.7,2.4 C12.9,2.3 13.1,2.2 13.3,2.1 C13.5,2 13.8,2 14.1,2 C14.7,2 15.3,2.2 15.7,2.5 C16.1,2.9 16.3,3.3 16.3,3.9 C16.3,4.4 16.2,4.8 15.9,5.2 C15.6,5.6 15.2,5.9 14.8,6.3 C14.3,6.7 13.8,7 13.3,7.4 C12.7,7.8 12.2,8.2 11.8,8.6 C11.3,9.1 10.9,9.6 10.6,10.1 C10.3,10.7 10.1,11.4 10.1,12.2 L10.1,12.6 C10.1,12.8 10.2,13 10.3,13.2 C10.3,13.3 10.4,13.4 10.7,13.4 Z"></path>
                <path d="M20.8,12.6 C21,12.8 21.3,12.9 21.7,13.1 C22,13.2 22.4,13.4 22.8,13.5 C23.2,13.6 23.6,13.6 24.1,13.6 C24.8,13.6 25.4,13.5 25.9,13.3 C26.5,13.1 26.9,12.8 27.3,12.4 C27.7,12 28,11.6 28.2,11 C28.4,10.5 28.5,9.9 28.5,9.4 C28.5,8.8 28.4,8.2 28.1,7.7 C27.9,7.2 27.5,6.8 27.2,6.5 C26.8,6.2 26.4,5.9 25.9,5.8 C25.5,5.7 25.2,5.6 24.8,5.5 L28,1.9 C28.2,1.7 28.3,1.4 28.3,1.1 L28.3,0.9 C28.3,0.4 28,0.2 27.6,0.2 L21.1,0.2 C20.6,0.2 20.4,0.5 20.4,0.9 L20.4,1.3 C20.4,1.8 20.7,2 21.1,2 L25.3,2 C25.4,2 25.5,2 25.6,2 L25.3,2.3 C25.2,2.4 25.1,2.5 25,2.6 L22.5,5.5 C22.2,5.8 22.2,6.1 22.3,6.4 L22.4,6.5 C22.6,6.8 22.8,7 23.2,7 L23.6,7 C24,7 24.4,7 24.7,7.1 C25,7.2 25.3,7.3 25.6,7.5 C25.9,7.7 26.1,7.9 26.2,8.2 C26.4,8.5 26.4,8.8 26.4,9.2 C26.4,9.5 26.3,9.8 26.2,10.1 C26.1,10.4 25.9,10.6 25.7,10.8 C25.5,11 25.2,11.1 24.9,11.3 C24.3,11.5 23.6,11.5 23.1,11.4 C22.8,11.3 22.6,11.2 22.4,11.1 C22.2,11 22,10.9 21.8,10.8 C21.6,10.7 21.5,10.6 21.4,10.5 C21,10.2 20.7,10.3 20.4,10.6 L20.1,11 C19.8,11.4 19.9,11.7 20.2,12 C20.4,12.3 20.6,12.5 20.8,12.6 Z"></path>
                <path d="M28.8,17 L1.2,17 C0.5,17 0,17.5 0,18.2 C0,18.9 0.5,19.4 1.2,19.4 L28.8,19.4 C29.5,19.4 30,18.9 30,18.2 C30,17.5 29.5,17 28.8,17 Z"></path>
            </g>
        </g>
    </g>
</svg>