<?xml version="1.0" encoding="UTF-8"?>
<svg width="32px" height="32px" viewBox="0 0 32 32" version="1.1" xmlns="http://www.w3.org/2000/svg" xmlns:xlink="http://www.w3.org/1999/xlink">
    <title>cog</title>
    <g id="🧠-Symbols" stroke="none" stroke-width="1" fill="none" fill-rule="evenodd">
        <g id="cog" fill="#333333">
            <rect id="boundbox" opacity="0" x="0" y="0" width="32" height="32"></rect>
            <g transform="translate(2.000000, 2.000000)" fill-rule="nonzero" id="Shape">
                <path d="M26.6,10.8 L24.5,10.8 C24.3,10.1 24,9.4 23.7,8.8 L25.2,7.3 C25.8,6.7 25.8,5.8 25.2,5.3 L22.7,2.8 C22.1,2.2 21.2,2.2 20.7,2.8 L19.2,4.3 C18.6,4 17.9,3.7 17.2,3.5 L17.2,1.4 C17.2,0.6 16.6,0 15.8,0 L12.3,0 C11.5,0 10.9,0.6 10.9,1.4 L10.9,3.5 C10.2,3.7 9.5,4 8.9,4.3 L7.3,2.8 C6.7,2.2 5.8,2.2 5.3,2.8 L2.8,5.3 C2.2,5.9 2.2,6.8 2.8,7.3 L4.3,8.8 C4,9.4 3.7,10.1 3.5,10.8 L1.4,10.8 C0.6,10.8 0,11.4 0,12.2 L0,15.7 C0,16.5 0.6,17.1 1.4,17.1 L3.5,17.1 C3.7,17.8 4,18.5 4.3,19.1 L2.8,20.6 C2.2,21.2 2.2,22.1 2.8,22.6 L5.3,25.1 C5.9,25.7 6.8,25.7 7.3,25.1 L8.8,23.6 C9.4,23.9 10.1,24.2 10.8,24.4 L10.8,26.5 C10.8,27.3 11.4,27.9 12.2,27.9 L15.7,27.9 C16.5,27.9 17.1,27.3 17.1,26.5 L17.1,24.4 C17.8,24.2 18.5,23.9 19.1,23.6 L20.6,25.1 C21.2,25.7 22.1,25.7 22.6,25.1 L25.1,22.6 C25.7,22 25.7,21.1 25.1,20.6 L23.6,19.1 C23.9,18.5 24.2,17.8 24.4,17.1 L26.5,17.1 C27.3,17.1 27.9,16.5 27.9,15.7 L27.9,12.2 C28,11.5 27.4,10.8 26.6,10.8 Z M14,18.5 C11.5,18.5 9.5,16.5 9.5,14 C9.5,11.5 11.5,9.5 14,9.5 C16.5,9.5 18.5,11.5 18.5,14 C18.5,16.5 16.5,18.5 14,18.5 Z"></path>
            </g>
        </g>
    </g>
</svg>