<?xml version="1.0" encoding="UTF-8"?>
<svg width="32px" height="32px" viewBox="0 0 32 32" version="1.1" xmlns="http://www.w3.org/2000/svg" xmlns:xlink="http://www.w3.org/1999/xlink">
    <title>colors</title>
    <g id="🧠-Symbols" stroke="none" stroke-width="1" fill="none" fill-rule="evenodd">
        <g id="colors" fill="#333333">
            <rect id="boundbox" opacity="0" x="0" y="0" width="32" height="32"></rect>
            <g transform="translate(0.993437, 0.937500)" fill-rule="nonzero">
                <path d="M29.4,12.625 L17.4,0.625 C17,0.225 16.5,0.025 15.9,0.025 C15.4,0.025 14.8,0.225 14.4,0.625 L9.2,5.825 L3.6,0.225 C3.3,-0.075 2.9,-0.075 2.7,0.225 L2,0.825 C1.8,1.125 1.8,1.525 2,1.825 L7.6,7.425 L1.6,13.425 C0.6,14.525 0,15.925 0,17.525 C0,19.125 0.6,20.525 1.7,21.625 L8.5,28.425 C9.6,29.525 11,30.125 12.6,30.125 C14.1,30.125 15.6,29.525 16.7,28.425 L29.5,15.625 C30.2,14.725 30.2,13.425 29.4,12.625 Z M15.8,13.925 C16,13.725 16.1,13.425 16.1,13.125 C16.1,12.825 16,12.525 15.8,12.325 L10.9,7.425 L16,2.325 L27.7,14.025 L18.8,22.925 L6.2,22.925 L3.2,19.925 C2.8,19.525 2.6,19.125 2.4,18.625 C2.3,18.025 2.2,17.125 2.3,17.025 L2.3,16.925 C2.4,16.225 2.8,15.525 3.3,15.025 L9.3,9.025 L14.2,13.925 C14.6,14.425 15.4,14.425 15.8,13.925 Z" id="Shape"></path>
                <path d="M26.7,22.225 L26.6,22.025 L26.5,22.225 C26.4,22.325 24.2,25.525 24.2,26.825 C24.2,28.225 25.3,29.325 26.7,29.325 C28.1,29.325 29.2,28.225 29.2,26.825 C29,25.625 26.8,22.425 26.7,22.225 Z" id="Path"></path>
            </g>
        </g>
    </g>
</svg>