<?xml version="1.0" encoding="UTF-8"?>
<svg width="32px" height="32px" viewBox="0 0 32 32" version="1.1" xmlns="http://www.w3.org/2000/svg" xmlns:xlink="http://www.w3.org/1999/xlink">
    <title>copy</title>
    <g id="🧠-Symbols" stroke="none" stroke-width="1" fill="none" fill-rule="evenodd">
        <g id="copy" fill="#333333">
            <rect id="boundbox" opacity="0" x="0" y="0" width="32" height="32"></rect>
            <g transform="translate(1.000000, 1.000000)" fill-rule="nonzero">
                <path d="M21.5,2.5 C22.2,2.5 22.7,1.9 22.7,1.3 C22.7,0.7 22.2,0 21.5,0 L1.3,0 C1.3,0 1.3,0 1.2,0 C0.9,0 0.5,0.1 0.3,0.4 C0.1,0.6 1.77635684e-15,0.9 1.77635684e-15,1.2 C1.77635684e-15,1.2 1.77635684e-15,1.2 1.77635684e-15,1.3 L1.77635684e-15,21.5 C1.77635684e-15,22.2 0.6,22.7 1.2,22.7 C1.8,22.7 2.4,22.1 2.4,21.5 L2.4,2.5 L21.5,2.5 Z" id="Path"></path>
                <path d="M29.2,4.6 L5.9,4.6 C5.2,4.6 4.7,5.2 4.7,5.9 L4.7,29.2 C4.7,29.9 5.3,30.4 5.9,30.4 L29.2,30.4 C29.9,30.4 30.4,29.8 30.4,29.2 L30.4,5.9 C30.4,5.2 29.9,4.6 29.2,4.6 Z M28,27.9 L7.2,27.9 L7.2,7.1 L28,7.1 L28,27.9 Z" id="Shape"></path>
            </g>
        </g>
    </g>
</svg>