<?xml version="1.0" encoding="UTF-8"?>
<svg width="32px" height="32px" viewBox="0 0 32 32" version="1.1" xmlns="http://www.w3.org/2000/svg" xmlns:xlink="http://www.w3.org/1999/xlink">
    <title>cross-circle</title>
    <g id="🧠-Symbols" stroke="none" stroke-width="1" fill="none" fill-rule="evenodd">
        <g id="cross-circle" fill="#333333">
            <rect id="boundbox" opacity="0" x="0" y="0" width="32" height="32"></rect>
            <g transform="translate(0.250000, 0.250000)" fill-rule="nonzero">
                <path d="M15.75,0 C24.4435211,0 31.5,7.05647888 31.5,15.75 C31.5,24.4435211 24.4435211,31.5 15.75,31.5 C7.05647888,31.5 0,24.4435211 0,15.75 C0,7.05647888 7.05647888,0 15.75,0 Z M15.75,2.50380228 C8.44257055,2.50380228 2.50380228,8.44257055 2.50380228,15.75 C2.50380228,23.0574294 8.44257055,28.9961977 15.75,28.9961977 C23.0574294,28.9961977 28.9961977,23.0574294 28.9961977,15.75 C28.9961977,8.44257055 23.0574294,2.50380228 15.75,2.50380228 Z" id="Combined-Shape"></path>
                <path d="M8.41219884,8.60458015 C8.01775948,9.09462361 8.04810097,9.81165436 8.5032233,10.2667767 L13.987,15.75 L8.5032233,21.2332233 C8.01559223,21.7208544 8.01559223,22.5091456 8.5032233,22.9967767 L8.60458015,23.0878012 C9.09462361,23.4822405 9.81165436,23.451899 10.2667767,22.9967767 L15.75,17.513 L21.2332233,22.9967767 C21.7208544,23.4844078 22.5091456,23.4844078 22.9967767,22.9967767 L23.0878012,22.8954198 C23.4822405,22.4053764 23.451899,21.6883456 22.9967767,21.2332233 L17.513,15.75 L22.9967767,10.2667767 C23.4844078,9.77914562 23.4844078,8.99085438 22.9967767,8.5032233 L22.8954198,8.41219884 C22.4053764,8.01775948 21.6883456,8.04810097 21.2332233,8.5032233 L15.75,13.987 L10.2667767,8.5032233 C9.77914562,8.01559223 8.99085438,8.01559223 8.5032233,8.5032233 L8.41219884,8.60458015 Z" id="Path"></path>
            </g>
        </g>
    </g>
</svg>