<?xml version="1.0" encoding="UTF-8"?>
<svg width="32px" height="32px" viewBox="0 0 32 32" version="1.1" xmlns="http://www.w3.org/2000/svg" xmlns:xlink="http://www.w3.org/1999/xlink">
    <title>cross-circle-alt</title>
    <g id="🧠-Symbols" stroke="none" stroke-width="1" fill="none" fill-rule="evenodd">
        <g id="cross-circle-alt" fill="#333333">
            <rect id="boundbox" opacity="0" x="0" y="0" width="32" height="32"></rect>
            <path d="M16,0.25 C24.6935211,0.25 31.75,7.30647888 31.75,16 C31.75,24.6935211 24.6935211,31.75 16,31.75 C7.30647888,31.75 0.25,24.6935211 0.25,16 C0.25,7.30647888 7.30647888,0.25 16,0.25 Z M8.7532233,8.7532233 L8.66219884,8.85458015 C8.26775948,9.34462361 8.29810097,10.0616544 8.7532233,10.5167767 L14.237,16 L8.7532233,21.4832233 C8.26559223,21.9708544 8.26559223,22.7591456 8.7532233,23.2467767 L8.85458015,23.3378012 C9.34462361,23.7322405 10.0616544,23.701899 10.5167767,23.2467767 L16,17.763 L21.4832233,23.2467767 C21.9708544,23.7344078 22.7591456,23.7344078 23.2467767,23.2467767 L23.3378012,23.1454198 C23.7322405,22.6553764 23.701899,21.9383456 23.2467767,21.4832233 L17.763,16 L23.2467767,10.5167767 C23.7344078,10.0291456 23.7344078,9.24085438 23.2467767,8.7532233 L23.1454198,8.66219884 C22.6553764,8.26775948 21.9383456,8.29810097 21.4832233,8.7532233 L16,14.237 L10.5167767,8.7532233 C10.0291456,8.26559223 9.24085438,8.26559223 8.7532233,8.7532233 Z" id="Combined-Shape" fill-rule="nonzero"></path>
        </g>
    </g>
</svg>