<?xml version="1.0" encoding="UTF-8"?>
<svg width="32px" height="32px" viewBox="0 0 32 32" version="1.1" xmlns="http://www.w3.org/2000/svg" xmlns:xlink="http://www.w3.org/1999/xlink">
    <title>csv</title>
    <g id="🧠-Symbols" stroke="none" stroke-width="1" fill="none" fill-rule="evenodd">
        <g id="csv" fill="#333333">
            <rect id="boundbox" opacity="0" x="0" y="0" width="32" height="32"></rect>
            <path d="M26.3481699,14.9 L19.5295974,14.9 C19.1245337,14.9 18.7869806,15.4 18.7869806,16 C18.7869806,16.6 19.1245337,17.1 19.5295974,17.1 L26.3481699,17.1 C26.7532337,17.1 27.0907867,16.6 27.0907867,16 C27.0907867,15.4 26.7532337,14.9 26.3481699,14.9 Z" id="Path" fill-rule="nonzero"></path>
            <path d="M26.3481699,8.9 L19.5295974,8.9 C19.1245337,8.9 18.7869806,9.4 18.7869806,10 C18.7869806,10.6 19.1245337,11.1 19.5295974,11.1 L26.3481699,11.1 C26.7532337,11.1 27.0907867,10.6 27.0907867,10 C27.0907867,9.4 26.7532337,8.9 26.3481699,8.9 Z" id="Path" fill-rule="nonzero"></path>
            <path d="M26.3481699,20.9 L19.5295974,20.9 C19.1245337,20.9 18.7869806,21.4 18.7869806,22 C18.7869806,22.6 19.1245337,23.1 19.5295974,23.1 L26.3481699,23.1 C26.7532337,23.1 27.0907867,22.6 27.0907867,22 C27.0907867,21.4 26.7532337,20.9 26.3481699,20.9 Z" id="Path" fill-rule="nonzero"></path>
            <path d="M16.5237324,9.5 C17.0760171,9.5 17.5237324,9.94771525 17.5237324,10.5 L17.5237324,21.5 C17.5237324,22.0522847 17.0760171,22.5 16.5237324,22.5 L1.65,22.5 C1.09771525,22.5 0.65,22.0522847 0.65,21.5 L0.65,10.5 C0.65,9.94771525 1.09771525,9.5 1.65,9.5 L16.5237324,9.5 Z M4.78142775,13.22875 C4.36642775,13.22875 3.98642775,13.3 3.64142775,13.4425 C3.29642775,13.585 3.00017775,13.78 2.75267775,14.0275 C2.50517775,14.275 2.31267775,14.56625 2.17517775,14.90125 C2.03767775,15.23625 1.96892775,15.59875 1.96892775,15.98875 C1.96892775,16.38875 2.03392775,16.7575 2.16392775,17.095 C2.29392775,17.4325 2.48142775,17.72625 2.72642775,17.97625 C2.97142775,18.22625 3.26767775,18.42125 3.61517775,18.56125 C3.96267775,18.70125 4.35142775,18.77125 4.78142775,18.77125 C5.00642775,18.77125 5.21517775,18.75 5.40767775,18.7075 C5.60017775,18.665 5.77517775,18.6125 5.93267775,18.55 C6.09017775,18.4875 6.22892775,18.41875 6.34892775,18.34375 C6.46892775,18.26875 6.57142775,18.19875 6.65642775,18.13375 C6.75642775,18.05375 6.81017775,17.96375 6.81767775,17.86375 C6.82517775,17.76375 6.79392775,17.66125 6.72392775,17.55625 L6.72392775,17.55625 L6.51392775,17.26375 C6.36392775,17.04875 6.17142775,17.02375 5.93642775,17.18875 C5.80642775,17.27875 5.64767775,17.365 5.46017775,17.4475 C5.27267775,17.53 5.06642775,17.57125 4.84142775,17.57125 C4.58142775,17.57125 4.35642775,17.525 4.16642775,17.4325 C3.97642775,17.34 3.81892775,17.2175 3.69392775,17.065 C3.56892775,16.9125 3.47642775,16.74 3.41642775,16.5475 C3.35642775,16.355 3.32642775,16.15875 3.32642775,15.95875 C3.32642775,15.76375 3.35517775,15.575 3.41267775,15.3925 C3.47017775,15.21 3.56017775,15.0475 3.68267775,14.905 C3.80517775,14.7625 3.96142775,14.6475 4.15142775,14.56 C4.34142775,14.4725 4.57142775,14.42875 4.84142775,14.42875 C5.04142775,14.42875 5.22642775,14.46125 5.39642775,14.52625 C5.56642775,14.59125 5.71392775,14.65875 5.83892775,14.72875 C5.95392775,14.79875 6.05892775,14.82625 6.15392775,14.81125 C6.24892775,14.79625 6.33142775,14.73125 6.40142775,14.61625 L6.40142775,14.61625 L6.58892775,14.30875 C6.65892775,14.19875 6.68767775,14.095 6.67517775,13.9975 C6.66267775,13.9 6.60392775,13.81375 6.49892775,13.73875 C6.41892775,13.68375 6.32392775,13.62625 6.21392775,13.56625 C6.10392775,13.50625 5.97642775,13.45125 5.83142775,13.40125 C5.68642775,13.35125 5.52642775,13.31 5.35142775,13.2775 C5.17642775,13.245 4.98642775,13.22875 4.78142775,13.22875 Z M9.23857075,13.22875 C8.96857075,13.22875 8.71607075,13.2675 8.48107075,13.345 C8.24607075,13.4225 8.04357075,13.53375 7.87357075,13.67875 C7.70357075,13.82375 7.56982075,13.9975 7.47232075,14.2 C7.37482075,14.4025 7.32607075,14.62625 7.32607075,14.87125 C7.32607075,15.15125 7.38482075,15.385 7.50232075,15.5725 C7.61982075,15.76 7.76607075,15.91875 7.94107075,16.04875 C8.11607075,16.17875 8.30607075,16.2875 8.51107075,16.375 C8.71607075,16.4625 8.90607075,16.545 9.08107075,16.6225 C9.25607075,16.7 9.40232075,16.7825 9.51982075,16.87 C9.63732075,16.9575 9.69607075,17.06375 9.69607075,17.18875 C9.69607075,17.29375 9.64982075,17.3825 9.55732075,17.455 C9.46482075,17.5275 9.32107075,17.56375 9.12607075,17.56375 C9.01107075,17.56375 8.90357075,17.55125 8.80357075,17.52625 C8.70357075,17.50125 8.61232075,17.47 8.52982075,17.4325 C8.44732075,17.395 8.37482075,17.35875 8.31232075,17.32375 C8.24982075,17.28875 8.19607075,17.25875 8.15107075,17.23375 C8.02607075,17.16375 7.91857075,17.135 7.82857075,17.1475 C7.73857075,17.16 7.65607075,17.22125 7.58107075,17.33125 L7.58107075,17.33125 L7.34857075,17.66875 C7.29857075,17.73875 7.26732075,17.80125 7.25482075,17.85625 C7.24232075,17.91125 7.24232075,17.9625 7.25482075,18.01 C7.26732075,18.0575 7.28857075,18.1 7.31857075,18.1375 C7.34857075,18.175 7.38357075,18.20875 7.42357075,18.23875 C7.49357075,18.29375 7.58732075,18.3525 7.70482075,18.415 C7.82232075,18.4775 7.95482075,18.535 8.10232075,18.5875 C8.24982075,18.64 8.40982075,18.68375 8.58232075,18.71875 C8.75482075,18.75375 8.93607075,18.77125 9.12607075,18.77125 C9.42607075,18.77125 9.69357075,18.72625 9.92857075,18.63625 C10.1635707,18.54625 10.3610707,18.425 10.5210707,18.2725 C10.6810707,18.12 10.8023207,17.9425 10.8848207,17.74 C10.9673207,17.5375 11.0085707,17.32375 11.0085707,17.09875 C11.0085707,16.81875 10.9498207,16.585 10.8323207,16.3975 C10.7148207,16.21 10.5685707,16.0525 10.3935707,15.925 C10.2185707,15.7975 10.0285707,15.6925 9.82357075,15.61 C9.61857075,15.5275 9.42857075,15.44875 9.25357075,15.37375 C9.07857075,15.29875 8.93232075,15.21875 8.81482075,15.13375 C8.69732075,15.04875 8.63857075,14.94125 8.63857075,14.81125 C8.63857075,14.70625 8.68357075,14.6175 8.77357075,14.545 C8.86357075,14.4725 9.01357075,14.43625 9.22357075,14.43625 C9.39857075,14.43625 9.55232075,14.4625 9.68482075,14.515 C9.81732075,14.5675 9.94607075,14.62375 10.0710707,14.68375 C10.1760707,14.73875 10.2773207,14.765 10.3748207,14.7625 C10.4723207,14.76 10.5585707,14.68625 10.6335707,14.54125 L10.6335707,14.54125 L10.8135707,14.18875 C10.8685707,14.07875 10.8885707,13.9775 10.8735707,13.885 C10.8585707,13.7925 10.7960707,13.70625 10.6860707,13.62625 C10.5560707,13.53625 10.3610707,13.4475 10.1010707,13.36 C9.84107075,13.2725 9.55357075,13.22875 9.23857075,13.22875 Z M12.2482137,13.31875 L11.6857137,13.31875 C11.5307137,13.31875 11.4232137,13.36125 11.3632137,13.44625 C11.3032137,13.53125 11.2982137,13.64625 11.3482137,13.79125 L11.3482137,13.79125 L12.9607137,18.35125 C13.0407137,18.57125 13.1982137,18.68125 13.4332137,18.68125 L13.4332137,18.68125 L14.0932137,18.68125 C14.3282137,18.68125 14.4857137,18.57125 14.5657137,18.35125 L14.5657137,18.35125 L16.1707137,13.79125 C16.2207137,13.64625 16.2157137,13.53125 16.1557137,13.44625 C16.0957137,13.36125 15.9882137,13.31875 15.8332137,13.31875 L15.8332137,13.31875 L15.2932137,13.31875 C15.0482137,13.31875 14.8932137,13.43375 14.8282137,13.66375 L14.8282137,13.66375 L13.9732137,16.37125 C13.9482137,16.45625 13.9232137,16.54875 13.8982137,16.64875 C13.8732137,16.74875 13.8507137,16.84125 13.8307137,16.92625 C13.8107137,17.02625 13.7907137,17.12875 13.7707137,17.23375 L13.7707137,17.23375 L13.7557137,17.23375 C13.7357137,17.12875 13.7157137,17.02625 13.6957137,16.92625 C13.6757137,16.84125 13.6532137,16.74875 13.6282137,16.64875 C13.6032137,16.54875 13.5782137,16.45625 13.5532137,16.37125 L13.5532137,16.37125 L12.7132137,13.66375 C12.6482137,13.43375 12.4932137,13.31875 12.2482137,13.31875 L12.2482137,13.31875 Z" id="Combined-Shape"></path>
            <path d="M28.8905902,2 C29.9951597,2 30.8905902,2.8954305 30.8905902,4 L30.8905902,27.8905902 C30.8905902,28.9951597 29.9951597,29.8905902 28.8905902,29.8905902 L5.734685,29.8905902 C4.6301155,29.8905902 3.734685,28.9951597 3.734685,27.8905902 L3.734,22.5 L5.983,22.5 L5.984,27.64 L28.64,27.64 L28.64,4.25 L5.984,4.25 L5.983,9.5 L3.734,9.5 L3.734685,4 C3.734685,2.8954305 4.6301155,2 5.734685,2 L28.8905902,2 Z" id="Combined-Shape" fill-rule="nonzero"></path>
        </g>
    </g>
</svg>