<?xml version="1.0" encoding="UTF-8"?>
<svg width="32px" height="32px" viewBox="0 0 32 32" version="1.1" xmlns="http://www.w3.org/2000/svg" xmlns:xlink="http://www.w3.org/1999/xlink">
    <title>config</title>
    <g id="🧠-Symbols" stroke="none" stroke-width="1" fill="none" fill-rule="evenodd">
        <g id="config" fill="#333333">
            <rect id="boundbox" opacity="0" x="0" y="0" width="32" height="32"></rect>
            <g id="query" transform="translate(0.500000, 3.600000)">
                <path d="M29.7,20.3 L17.2,20.3 C16.7,19.2 15.6,18.4 14.3,18.4 C13,18.4 11.9,19.2 11.4,20.3 L1.4,20.3 C0.7,20.3 0.1,20.9 0.1,21.6 C0.1,22.3 0.7,22.9 1.4,22.9 L11.4,22.9 C11.9,24 13,24.8 14.3,24.8 C15.6,24.8 16.7,24 17.2,22.9 L29.7,22.9 C30.4,22.9 31,22.3 31,21.6 C31,20.9 30.4,20.3 29.7,20.3 Z" id="Path"></path>
                <path d="M29.7,11.1 L26.5,11.1 C26,10 24.9,9.2 23.6,9.2 C22.3,9.2 21.2,10 20.7,11.1 L1.3,11.1 C0.6,11.1 0,11.7 0,12.4 C0,13.1 0.6,13.7 1.3,13.7 L20.6,13.7 C21.1,14.8 22.2,15.6 23.5,15.6 C24.8,15.6 25.9,14.8 26.4,13.7 L29.6,13.7 C30.3,13.7 30.9,13.1 30.9,12.4 C30.9,11.7 30.4,11.1 29.7,11.1 Z" id="Path"></path>
                <path d="M1.3,4.5 L2.5,4.5 C3,5.6 4.1,6.4 5.4,6.4 C6.7,6.4 7.8,5.6 8.3,4.5 L29.7,4.5 C30.4,4.5 31,3.9 31,3.2 C31,2.5 30.4,1.9 29.7,1.9 L8.3,1.9 C7.8,0.8 6.7,4.4408921e-16 5.4,4.4408921e-16 C4.1,4.4408921e-16 3,0.8 2.5,1.9 L1.3,1.9 C0.6,1.9 0,2.5 0,3.2 C0,3.9 0.6,4.5 1.3,4.5 Z" id="Path"></path>
            </g>
        </g>
    </g>
</svg>