<?xml version="1.0" encoding="UTF-8"?>
<svg width="32px" height="32px" viewBox="0 0 32 32" version="1.1" xmlns="http://www.w3.org/2000/svg" xmlns:xlink="http://www.w3.org/1999/xlink">
    <title>7246C216-8193-4D74-A978-014A14BBDA5E</title>
    <g id="🧠-Symbols" stroke="none" stroke-width="1" fill="none" fill-rule="evenodd">
        <g id="icon_delete">
            <g>
                <rect id="boundbox" fill="#FFFFFF" opacity="0" x="0" y="0" width="32" height="32"></rect>
                <g id="Group-2" transform="translate(3.000000, 2.000000)" fill="#000000" fill-rule="nonzero">
                    <g id="Group" transform="translate(3.172113, 3.965142)">
                        <path d="M0.793028322,23.7908497 C0.355050913,23.7908497 0,23.4357988 0,22.9978214 L0,0.793028322 C0,0.355050913 0.355050913,0 0.793028322,0 L19.8257081,0 C20.2636855,0 20.6187364,0.355050913 20.6187364,0.793028322 L20.6187364,22.9978214 C20.6187364,23.4357988 20.2636855,23.7908497 19.8257081,23.7908497 L0.793028322,23.7908497 Z M19.0326797,22.204793 L19.0326797,1.58605664 L1.58605664,1.58605664 L1.58605664,22.204793 L19.0326797,22.204793 Z" id="Shape"></path>
                        <path d="M4.75816993,5.1546841 L4.75816993,18.6361656 C4.75816993,19.074143 5.11322085,19.4291939 5.55119826,19.4291939 C5.98917567,19.4291939 6.34422658,19.074143 6.34422658,18.6361656 L6.34422658,5.1546841 C6.34422658,4.71670669 5.98917567,4.36165577 5.55119826,4.36165577 C5.11322085,4.36165577 4.75816993,4.71670669 4.75816993,5.1546841 Z" id="Path"></path>
                        <path d="M9.51633987,5.1546841 L9.51633987,18.6361656 C9.51633987,19.074143 9.87139078,19.4291939 10.3093682,19.4291939 C10.7473456,19.4291939 11.1023965,19.074143 11.1023965,18.6361656 L11.1023965,5.1546841 C11.1023965,4.71670669 10.7473456,4.36165577 10.3093682,4.36165577 C9.87139078,4.36165577 9.51633987,4.71670669 9.51633987,5.1546841 Z" id="Path"></path>
                        <path d="M14.2745098,5.1546841 L14.2745098,18.6361656 C14.2745098,19.074143 14.6295607,19.4291939 15.0675381,19.4291939 C15.5055155,19.4291939 15.8605664,19.074143 15.8605664,18.6361656 L15.8605664,5.1546841 C15.8605664,4.71670669 15.5055155,4.36165577 15.0675381,4.36165577 C14.6295607,4.36165577 14.2745098,4.71670669 14.2745098,5.1546841 Z" id="Path"></path>
                    </g>
                    <path d="M0.518518519,5.55119826 L26.4444444,5.55119826 C26.7308143,5.55119826 26.962963,5.19614734 26.962963,4.75816993 C26.962963,4.32019253 26.7308143,3.96514161 26.4444444,3.96514161 L0.518518519,3.96514161 C0.232148674,3.96514161 0,4.32019253 0,4.75816993 C0,5.19614734 0.232148674,5.55119826 0.518518519,5.55119826 Z" id="Path"></path>
                    <path d="M6.28750658,5.05269328 L7.13625386,2.93082506 C7.42242709,2.21539187 8.35214059,1.58605664 9.11982571,1.58605664 L17.8431373,1.58605664 C18.6151798,1.58605664 19.5389731,2.21148509 19.8267091,2.93082506 L20.6754564,5.05269328 L22.148073,4.46364659 L21.2993257,2.34177838 C20.7707241,1.02027447 19.263721,4.78958437e-14 17.8431373,4.78958437e-14 L9.11982571,4.78958437e-14 C7.70364644,4.78958437e-14 6.19069352,1.02413755 5.66363722,2.34177838 L4.81488994,4.46364659 L6.28750658,5.05269328 Z" id="Path"></path>
                </g>
            </g>
        </g>
    </g>
</svg>