<?xml version="1.0" encoding="UTF-8"?>
<svg width="32px" height="32px" viewBox="0 0 32 32" version="1.1" xmlns="http://www.w3.org/2000/svg" xmlns:xlink="http://www.w3.org/1999/xlink">
    <title>dimension</title>
    <g id="🧠-Symbols" stroke="none" stroke-width="1" fill="none" fill-rule="evenodd">
        <g id="dimension" fill="#333333">
            <rect id="boundbox" opacity="0" x="0" y="0" width="32" height="32"></rect>
            <g id="dimensions" transform="translate(0.362171, 0.950000)" fill-rule="nonzero">
                <path d="M15.6378293,5.6 C16.2378293,5.6 16.7378293,5.1 16.7378293,4.5 L16.7378293,1.1 C16.7378293,0.5 16.2378293,0 15.6378293,0 C15.0378293,0 14.5378293,0.5 14.5378293,1.1 L14.5378293,4.5 C14.5378293,5.1 15.0378293,5.6 15.6378293,5.6 Z" id="Path"></path>
                <path d="M24.2378293,9.7 L16.4378293,6.8 C15.9378293,6.6 15.4378293,6.6 14.9378293,6.8 L7.13782934,9.7 C6.33782934,10 5.73782934,10.8 5.73782934,11.7 L5.73782934,20.1 C5.73782934,20.9 6.23782934,21.7 6.93782934,22 L14.7378293,25.9 C15.0378293,26.1 15.3378293,26.1 15.7378293,26.1 C16.0378293,26.1 16.4378293,26 16.7378293,25.9 L24.5378293,22 C25.2378293,21.6 25.7378293,20.9 25.7378293,20.1 L25.7378293,11.7 C25.6378293,10.9 25.0378293,10.1 24.2378293,9.7 Z M14.6378293,16.3 L14.6378293,23.9 L7.63782934,20.4 L7.63782934,13.3 L14.6378293,16.3 Z M23.0378293,11.4 L15.6378293,14.6 L8.23782934,11.4 L15.6378293,8.6 L23.0378293,11.4 Z M23.6378293,13.3 L23.6378293,20.4 L16.6378293,23.9 L16.6378293,16.3 L23.6378293,13.3 Z" id="Shape"></path>
                <path d="M3.63782934,20.8 L0.637829343,22.3 C0.0378293432,22.6 -0.162170657,23.3 0.137829343,23.8 C0.337829343,24.2 0.737829343,24.4 1.13782934,24.4 C1.33782934,24.4 1.43782934,24.4 1.63782934,24.3 L4.63782934,22.8 C5.23782934,22.5 5.43782934,21.8 5.13782934,21.3 C4.93782934,20.7 4.23782934,20.5 3.63782934,20.8 Z" id="Path"></path>
                <path d="M30.6378293,22.3 L27.6378293,20.8 C27.0378293,20.5 26.4378293,20.8 26.1378293,21.3 C25.8378293,21.9 26.1378293,22.5 26.6378293,22.8 L29.6378293,24.3 C29.8378293,24.4 29.9378293,24.4 30.1378293,24.4 C30.5378293,24.4 30.9378293,24.2 31.1378293,23.8 C31.4378293,23.2 31.2378293,22.5 30.6378293,22.3 Z" id="Path"></path>
            </g>
        </g>
    </g>
</svg>