<?xml version="1.0" encoding="UTF-8"?>
<svg width="32px" height="32px" viewBox="0 0 32 32" version="1.1" xmlns="http://www.w3.org/2000/svg" xmlns:xlink="http://www.w3.org/1999/xlink">
    <title>double-chevron-down</title>
    <g id="🧠-Symbols" stroke="none" stroke-width="1" fill="none" fill-rule="evenodd">
        <g id="double-chevron-down" fill="#333333">
            <rect id="boundbox" opacity="0" x="0" y="0" width="32" height="32"></rect>
            <path d="M23.4709194,6.6 C23.7611605,6.6 24.116681,6.74220822 24.3476961,6.9732233 C24.8453272,7.47085438 24.8453272,8.32914562 24.3476961,8.8267767 L24.3476961,8.8267767 L18.1256889,15.048 L24.3476961,21.1732233 C24.8121518,21.637679 24.8431155,22.4163097 24.4405872,22.9226554 L24.4405872,22.9226554 L24.3476961,23.0267767 C23.850065,23.5244078 22.9917738,23.5244078 22.4941427,23.0267767 L22.4941427,23.0267767 L15.3874333,15.9198024 L15.3007003,15.8257385 C15.110372,15.6014231 15.0209194,15.3586231 15.0209194,15.05 C15.0209194,14.7597589 15.1631276,14.4042384 15.3941427,14.1732233 L15.3941427,14.1732233 L22.4941427,7.0732233 C22.7374469,6.82991908 23.1972851,6.6 23.4709194,6.6 Z M15.6709194,6.6 C15.9611605,6.6 16.316681,6.74220822 16.5476961,6.9732233 C17.0453272,7.47085438 17.0453272,8.32914562 16.5476961,8.8267767 L16.5476961,8.8267767 L10.3256889,15.048 L16.5476961,21.1732233 C17.0121518,21.637679 17.0431155,22.4163097 16.6405872,22.9226554 L16.6405872,22.9226554 L16.5476961,23.0267767 C16.050065,23.5244078 15.1917738,23.5244078 14.6941427,23.0267767 L14.6941427,23.0267767 L7.58862832,15.9210847 L7.51966503,15.8473595 C7.29088068,15.5849775 7.2267728,15.29581 7.3209194,14.95 C7.3209194,14.6597589 7.46312762,14.3042384 7.69414271,14.0732233 L7.69414271,14.0732233 L14.7941427,6.9732233 C15.0495106,6.71785543 15.3146853,6.6 15.6709194,6.6 Z" id="Combined-Shape" fill-rule="nonzero" transform="translate(16.000000, 15.000000) scale(1, -1) rotate(90.000000) translate(-16.000000, -15.000000) "></path>
        </g>
    </g>
</svg>