<?xml version="1.0" encoding="UTF-8"?>
<svg width="32px" height="32px" viewBox="0 0 32 32" version="1.1" xmlns="http://www.w3.org/2000/svg" xmlns:xlink="http://www.w3.org/1999/xlink">
    <title>double-chevron-left-circle-alt</title>
    <g id="🧠-Symbols" stroke="none" stroke-width="1" fill="none" fill-rule="evenodd">
        <g id="double-chevron-left-circle-alt" fill="#333333">
            <rect id="boundbox" opacity="0" x="0" y="0" width="32" height="32"></rect>
            <path d="M16,0.25 C24.6935211,0.25 31.75,7.30647888 31.75,16 C31.75,24.6935211 24.6935211,31.75 16,31.75 C7.30647888,31.75 0.25,24.6935211 0.25,16 C0.25,7.30647888 7.30647888,0.25 16,0.25 Z M22.4696152,7.6 C22.1959809,7.6 21.7361428,7.82991908 21.4928385,8.0732233 L21.4928385,8.0732233 L14.3928385,15.1732233 L14.2994249,15.2792992 C14.1240948,15.5044835 14.0196152,15.8012219 14.0196152,16.05 C14.0196152,16.3586231 14.1090678,16.6014231 14.2993961,16.8257385 L14.2993961,16.8257385 L14.3861291,16.9198024 L21.4928385,24.0267767 L21.5969598,24.1196678 C22.1033055,24.5221961 22.8819363,24.4912324 23.3463919,24.0267767 L23.3463919,24.0267767 L23.4392831,23.9226554 L23.518904,23.8101989 C23.8351762,23.3066797 23.7776722,22.6045036 23.3463919,22.1732233 L23.3463919,22.1732233 L17.1243848,16.048 L23.3463919,9.8267767 L23.4392831,9.7226554 C23.8418113,9.21630972 23.8108476,8.43767897 23.3463919,7.9732233 C23.1153769,7.74220822 22.7598563,7.6 22.4696152,7.6 Z M14.6696152,7.6 C14.3133811,7.6 14.0482064,7.71785543 13.7928385,7.9732233 L13.7928385,7.9732233 L6.69283855,15.0732233 L6.59942493,15.1792992 C6.42409475,15.4044835 6.31961524,15.7012219 6.31961524,15.95 C6.22546864,16.29581 6.28957652,16.5849775 6.51836086,16.8473595 L6.51836086,16.8473595 L6.58732416,16.9210847 L13.6928385,24.0267767 L13.7969598,24.1196678 C14.3033055,24.5221961 15.0819363,24.4912324 15.5463919,24.0267767 L15.5463919,24.0267767 L15.6392831,23.9226554 L15.718904,23.8101989 C16.0351762,23.3066797 15.9776722,22.6045036 15.5463919,22.1732233 L15.5463919,22.1732233 L9.32438476,16.048 L15.5463919,9.8267767 L15.6392831,9.7226554 C16.0418113,9.21630972 16.0108476,8.43767897 15.5463919,7.9732233 C15.3153769,7.74220822 14.9598563,7.6 14.6696152,7.6 Z" id="Combined-Shape" fill-rule="nonzero"></path>
        </g>
    </g>
</svg>