<?xml version="1.0" encoding="UTF-8"?>
<svg width="32px" height="32px" viewBox="0 0 32 32" version="1.1" xmlns="http://www.w3.org/2000/svg" xmlns:xlink="http://www.w3.org/1999/xlink">
    <title>double-chevron-up-circle</title>
    <g id="🧠-Symbols" stroke="none" stroke-width="1" fill="none" fill-rule="evenodd">
        <g id="double-chevron-up-circle" fill="#333333">
            <rect id="boundbox" opacity="0" x="0" y="0" width="32" height="32"></rect>
            <g id="double-chevron-left-circle" transform="translate(16.000000, 16.000000) rotate(90.000000) translate(-16.000000, -16.000000) translate(0.250000, 0.250000)" fill-rule="nonzero">
                <path d="M15.75,0 C24.4435211,0 31.5,7.05647888 31.5,15.75 C31.5,24.4435211 24.4435211,31.5 15.75,31.5 C7.05647888,31.5 0,24.4435211 0,15.75 C0,7.05647888 7.05647888,0 15.75,0 Z M15.75,2.50380228 C8.44257055,2.50380228 2.50380228,8.44257055 2.50380228,15.75 C2.50380228,23.0574294 8.44257055,28.9961977 15.75,28.9961977 C23.0574294,28.9961977 28.9961977,23.0574294 28.9961977,15.75 C28.9961977,8.44257055 23.0574294,2.50380228 15.75,2.50380228 Z" id="Combined-Shape"></path>
                <path d="M22.2196152,7.35 C22.5098563,7.35 22.8653769,7.49220822 23.0963919,7.7232233 C23.594023,8.22085438 23.594023,9.07914562 23.0963919,9.5767767 L23.0963919,9.5767767 L16.8743848,15.798 L23.0963919,21.9232233 C23.5608476,22.387679 23.5918113,23.1663097 23.1892831,23.6726554 L23.1892831,23.6726554 L23.0963919,23.7767767 C22.5987609,24.2744078 21.7404696,24.2744078 21.2428385,23.7767767 L21.2428385,23.7767767 L14.1361291,16.6698024 L14.0493961,16.5757385 C13.8590678,16.3514231 13.7696152,16.1086231 13.7696152,15.8 C13.7696152,15.5097589 13.9118235,15.1542384 14.1428385,14.9232233 L14.1428385,14.9232233 L21.2428385,7.8232233 C21.4861428,7.57991908 21.9459809,7.35 22.2196152,7.35 Z M14.4196152,7.35 C14.7098563,7.35 15.0653769,7.49220822 15.2963919,7.7232233 C15.794023,8.22085438 15.794023,9.07914562 15.2963919,9.5767767 L15.2963919,9.5767767 L9.07438476,15.798 L15.2963919,21.9232233 C15.7608476,22.387679 15.7918113,23.1663097 15.3892831,23.6726554 L15.3892831,23.6726554 L15.2963919,23.7767767 C14.7987609,24.2744078 13.9404696,24.2744078 13.4428385,23.7767767 L13.4428385,23.7767767 L6.33732416,16.6710847 L6.26836086,16.5973595 C6.03957652,16.3349775 5.97546864,16.04581 6.06961524,15.7 C6.06961524,15.4097589 6.21182346,15.0542384 6.44283855,14.8232233 L6.44283855,14.8232233 L13.5428385,7.7232233 C13.7982064,7.46785543 14.0633811,7.35 14.4196152,7.35 Z" id="Combined-Shape"></path>
            </g>
        </g>
    </g>
</svg>