<?xml version="1.0" encoding="UTF-8"?>
<svg width="32px" height="32px" viewBox="0 0 32 32" version="1.1" xmlns="http://www.w3.org/2000/svg" xmlns:xlink="http://www.w3.org/1999/xlink">
    <title>download</title>
    <g id="🧠-Symbols" stroke="none" stroke-width="1" fill="none" fill-rule="evenodd">
        <g id="download" fill="#333333">
            <rect id="boundbox" opacity="0" x="0" y="0" width="32" height="32"></rect>
            <g id="downloads" transform="translate(0.500000, 2.200000)" fill-rule="nonzero">
                <g id="Group" transform="translate(4.625000, 0.000000)">
                    <g transform="translate(0.000000, 10.425000)" id="Path">
                        <path d="M10.875,12.275 C10.575,12.275 10.175,12.175 9.975,11.875 L0.375,2.375 C-0.125,1.875 -0.125,1.075 0.375,0.475 C0.875,-0.025 1.675,-0.025 2.275,0.475 L11.875,10.075 C12.375,10.575 12.375,11.375 11.875,11.975 C11.575,12.175 11.175,12.275 10.875,12.275 Z"></path>
                        <path d="M10.875,12.275 C10.575,12.275 10.175,12.175 9.975,11.875 C9.475,11.375 9.475,10.575 9.975,9.975 L19.575,0.375 C20.075,-0.125 20.875,-0.125 21.475,0.375 C21.975,0.875 21.975,1.675 21.475,2.275 L11.875,11.875 C11.575,12.175 11.175,12.275 10.875,12.275 Z"></path>
                    </g>
                    <path d="M10.875,21.8 C10.175,21.8 9.575,21.2 9.575,20.5 L9.575,1.3 C9.575,0.6 10.175,-8.8817842e-16 10.875,-8.8817842e-16 C11.575,-8.8817842e-16 12.175,0.6 12.175,1.3 L12.175,20.5 C12.175,21.2 11.575,21.8 10.875,21.8 Z" id="Path"></path>
                </g>
                <g id="Group" transform="translate(0.000000, 19.200000)">
                    <path d="M29.7,8.4 L1.3,8.4 C0.6,8.4 0,7.8 0,7.1 C0,6.4 0.6,5.8 1.3,5.8 L29.7,5.8 C30.4,5.8 31,6.4 31,7.1 C31,7.8 30.4,8.4 29.7,8.4 Z" id="Path"></path>
                    <path d="M1.3,8.4 C0.6,8.4 0,7.8 0,7.1 L0,1.3 C0,0.6 0.6,0 1.3,0 C2,0 2.6,0.6 2.6,1.3 L2.6,7.1 C2.6,7.8 2,8.4 1.3,8.4 Z" id="Path"></path>
                    <path d="M29.7,8.4 C29,8.4 28.4,7.8 28.4,7.1 L28.4,1.3 C28.4,0.6 29,0 29.7,0 C30.4,0 31,0.6 31,1.3 L31,7.1 C31,7.8 30.4,8.4 29.7,8.4 Z" id="Path"></path>
                </g>
            </g>
        </g>
    </g>
</svg>