<?xml version="1.0" encoding="UTF-8"?>
<svg width="32px" height="32px" viewBox="0 0 32 32" version="1.1" xmlns="http://www.w3.org/2000/svg" xmlns:xlink="http://www.w3.org/1999/xlink">
    <title>_Icons/edit</title>
    <g id="_Icons/edit" stroke="none" stroke-width="1" fill="none" fill-rule="evenodd">
        <g id="edit">
            <rect id="boundbox" fill="#333333" opacity="0" x="0" y="0" width="32" height="32"></rect>
            <g id="Group" transform="translate(2.000000, 1.818120)">
                <path d="M28,16.9818805 L28,10.3266832 L28,24.692275 C28,26.6195309 26.6114757,28.1818805 24.8965278,28.1818805 L3.10347223,28.1818805 C1.38947186,28.1818805 0,26.6164814 0,24.692275 L0,3.67148596 C0,1.74423007 1.38852434,0.181880466 3.10347223,0.181880466 L18.0482639,0.181880466 L11.2,0.181880466 C11.9731987,0.181880466 12.6,0.808681816 12.6,1.58188047 C12.6,2.35507912 11.9731987,2.98188047 11.2,2.98188047 L3.59722786,2.98188047 C3.15185052,2.98188047 2.8,3.40003831 2.8,3.91586212 L2.8,24.4478988 C2.8,24.9544127 3.15693109,25.3818805 3.59722786,25.3818805 L24.4027721,25.3818805 C24.8481495,25.3818805 25.2,24.9637226 25.2,24.4478988 L25.2,16.9818805 C25.2,16.2086818 25.8268014,15.5818805 26.6,15.5818805 C27.3731986,15.5818805 28,16.2086818 28,16.9818805 L28,16.9818805 Z" id="Shape" fill="#333333" fill-rule="nonzero"></path>
                <g id="Group-4" transform="translate(16.247672, 11.864492) rotate(45.000000) translate(-16.247672, -11.864492) translate(12.247672, -0.914434)">
                    <rect id="Rectangle" stroke="#333333" stroke-width="2.28571429" x="1.14285714" y="1.14285714" width="5.71428571" height="18.1537464" rx="1.14285714"></rect>
                    <path d="M6.98081503,22.7628615 L1.54962014,26.2683461 C1.33052735,26.4067205 1.12296577,26.3260021 1.04224737,26.2914085 C0.961528975,26.2452837 0.788560985,26.1184406 0.788560985,25.853223 L0.788560985,18.8422538 C0.788560985,18.5770362 0.973060175,18.450193 1.04224737,18.4040682 C1.08837217,18.3810058 1.16909056,18.3464122 1.28440256,18.3464122 C1.36512095,18.3464122 1.45737055,18.3694746 1.54962014,18.4271306 L6.98081503,21.9326152 C7.18837662,22.0594584 7.21143901,22.26702 7.21143901,22.3477384 C7.19990782,22.4284568 7.17684542,22.6244872 6.98081503,22.7628615 Z" id="Path" fill="#333333" transform="translate(4.000000, 22.346412) rotate(90.000000) translate(-4.000000, -22.346412) "></path>
                </g>
            </g>
        </g>
    </g>
</svg>