<?xml version="1.0" encoding="UTF-8"?>
<svg width="32px" height="32px" viewBox="0 0 32 32" version="1.1" xmlns="http://www.w3.org/2000/svg" xmlns:xlink="http://www.w3.org/1999/xlink">
    <title>email-circle</title>
    <defs>
        <polygon id="path-1" points="4.4408921e-16 0 18.9078671 0 18.9078671 14.3997 4.4408921e-16 14.3997"></polygon>
    </defs>
    <g id="🧠-Symbols" stroke="none" stroke-width="1" fill="none" fill-rule="evenodd">
        <g id="email-circle">
            <rect id="boundbox" fill="#333333" opacity="0" x="0" y="0" width="32" height="32"></rect>
            <g transform="translate(0.250000, 0.250000)">
                <path d="M15.75,0 C24.4435211,0 31.5,7.05647888 31.5,15.75 C31.5,24.4435211 24.4435211,31.5 15.75,31.5 C7.05647888,31.5 0,24.4435211 0,15.75 C0,7.05647888 7.05647888,0 15.75,0 Z M15.75,2.50380228 C8.44257055,2.50380228 2.50380228,8.44257055 2.50380228,15.75 C2.50380228,23.0574294 8.44257055,28.9961977 15.75,28.9961977 C23.0574294,28.9961977 28.9961977,23.0574294 28.9961977,15.75 C28.9961977,8.44257055 23.0574294,2.50380228 15.75,2.50380228 Z" id="Combined-Shape" fill="#333333" fill-rule="nonzero"></path>
                <g id="Group-3" transform="translate(6.296066, 8.550150)">
                    <mask id="mask-2" fill="white">
                        <use xlink:href="#path-1"></use>
                    </mask>
                    <g id="Clip-2"></g>
                    <path d="M2.1,6.1607 C2.983,6.8477 4.17,7.7787 5.873,9.2257 C5.98,9.3327 6.101,9.4547 6.3,9.5497 C6.406,9.6287 6.516,9.7147 6.632,9.8047 C7.43,10.4267 8.424,11.1997 9.55,11.1997 C10.676,11.1997 11.671,10.4257 12.47,9.8047 C12.585,9.7147 12.695,9.6287 12.827,9.5257 C12.867,9.4857 12.928,9.4487 12.987,9.4087 C13.072,9.3517 13.159,9.2947 13.206,9.2447 C13.752,8.8077 14.245,8.4167 14.692,8.0607 C15.654,7.2987 16.401,6.7047 17,6.1977 L17,12.3487 L16.95,12.3997 L2.15,12.3997 L2.1,12.3487 L2.1,6.1607 Z M16.7,3.4367 C16.308,3.7797 14.559,5.2967 11.696,7.5537 L11.669,7.5777 C11.578,7.6677 11.499,7.7457 11.339,7.8257 L11.273,7.8727 C10.714,8.4317 9.907,8.9997 9.45,8.9997 C9.074,8.9997 8.459,8.5467 7.965,8.1817 C7.794,8.0567 7.633,7.9377 7.522,7.8677 C7.416,7.7627 7.295,7.6417 7.105,7.5537 C3.854,4.9917 2.758,4.0947 2,3.4357 L2,2.2497 L2.05,2.1997 L16.65,2.1997 L16.7,2.2497 L16.7,3.4367 Z M18.899,2.1747 C18.951,1.6527 18.773,1.1377 18.399,0.7237 C17.982,0.2637 17.382,-0.0003 16.75,-0.0003 L2.15,-0.0003 C0.965,-0.0003 4.4408921e-16,0.9637 4.4408921e-16,2.1497 L4.4408921e-16,12.2497 C4.4408921e-16,13.4347 0.965,14.3997 2.15,14.3997 L16.75,14.3997 C17.935,14.3997 18.9,13.4347 18.9,12.2497 L18.899,2.1747 Z" id="Fill-1" fill="#333333" mask="url(#mask-2)"></path>
                </g>
            </g>
        </g>
    </g>
</svg>