<?xml version="1.0" encoding="UTF-8"?>
<svg width="32px" height="32px" viewBox="0 0 32 32" version="1.1" xmlns="http://www.w3.org/2000/svg" xmlns:xlink="http://www.w3.org/1999/xlink">
    <title>email-circle-alt</title>
    <g id="🧠-Symbols" stroke="none" stroke-width="1" fill="none" fill-rule="evenodd">
        <g id="email-circle-alt" fill="#333333">
            <rect id="boundbox" opacity="0" x="0" y="0" width="32" height="32"></rect>
            <path d="M16,0.25 C24.6935211,0.25 31.75,7.30647888 31.75,16 C31.75,24.6935211 24.6935211,31.75 16,31.75 C7.30647888,31.75 0.25,24.6935211 0.25,16 C0.25,7.30647888 7.30647888,0.25 16,0.25 Z M23.2960664,8.79985 L8.69606643,8.79985 L8.54281008,8.80525593 C7.42897759,8.88409575 6.54606643,9.81541522 6.54606643,10.94985 L6.54606643,10.94985 L6.54606643,21.04985 L6.55147779,21.2031063 C6.63039536,22.3169388 7.56258817,23.19985 8.69606643,23.19985 L8.69606643,23.19985 L23.2960664,23.19985 L23.4493228,23.1944386 C24.5631553,23.1155211 25.4460664,22.1833283 25.4460664,21.04985 L25.4460664,21.04985 L25.4450664,10.97485 L25.4539279,10.8012382 C25.4550911,10.3396525 25.2775109,9.89185 24.9450664,9.52385 C24.5280664,9.06385 23.9280664,8.79985 23.2960664,8.79985 L23.2960664,8.79985 Z M8.64606643,14.96085 C9.52906643,15.64785 10.7160664,16.57885 12.4190664,18.02585 C12.5260664,18.13285 12.6470664,18.25485 12.8460664,18.34985 C12.9520664,18.42885 13.0620664,18.51485 13.1780664,18.60485 C13.9760664,19.22685 14.9700664,19.99985 16.0960664,19.99985 C17.2220664,19.99985 18.2170664,19.22585 19.0160664,18.60485 L19.0160664,18.60485 L19.1303998,18.5154056 L19.3730664,18.32585 L19.4192146,18.2866278 C19.4535109,18.26085 19.4937331,18.2355167 19.5330664,18.20885 C19.6180664,18.15185 19.7050664,18.09485 19.7520664,18.04485 C20.2980664,17.60785 20.7910664,17.21685 21.2380664,16.86085 C22.2000664,16.09885 22.9470664,15.50485 23.5460664,14.99785 L23.5460664,14.99785 L23.5460664,21.14885 L23.4960664,21.19985 L8.69606643,21.19985 L8.64606643,21.14885 Z M23.1960664,10.99985 L23.2460664,11.04985 L23.2460664,12.23685 L23.2023521,12.2750473 C22.7362287,12.6818056 21.0096331,14.1720833 18.2420664,16.35385 L18.2420664,16.35385 L18.2150664,16.37785 L18.1476133,16.4433188 C18.0795039,16.506975 18.0050664,16.56585 17.8850664,16.62585 L17.8850664,16.62585 L17.8190664,16.67285 L17.6859363,16.8017471 C17.1379836,17.3158737 16.4179126,17.79985 15.9960664,17.79985 C15.6200664,17.79985 15.0050664,17.34685 14.5110664,16.98185 C14.3400664,16.85685 14.1790664,16.73785 14.0680664,16.66785 C13.9620664,16.56285 13.8410664,16.44185 13.6510664,16.35385 C12.5673998,15.49985 11.7231775,14.83085 11.0511035,14.2939981 L11.0511035,14.2939981 L10.7011857,14.0139578 C9.58900491,13.1220575 9.00546037,12.6352439 8.54606643,12.23585 L8.54606643,12.23585 L8.54606643,11.04985 L8.59606643,10.99985 L23.1960664,10.99985 Z" id="Combined-Shape"></path>
        </g>
    </g>
</svg>