<?xml version="1.0" encoding="UTF-8"?>
<svg width="32px" height="32px" viewBox="0 0 32 32" version="1.1" xmlns="http://www.w3.org/2000/svg" xmlns:xlink="http://www.w3.org/1999/xlink">
    <title>error-circle</title>
    <g id="🧠-Symbols" stroke="none" stroke-width="1" fill="none" fill-rule="evenodd">
        <g id="error-circle" fill="#333333">
            <rect id="boundbox" opacity="0" x="0" y="0" width="32" height="32"></rect>
            <path d="M16,0.25 C24.6935211,0.25 31.75,7.30647888 31.75,16 C31.75,24.6935211 24.6935211,31.75 16,31.75 C7.30647888,31.75 0.25,24.6935211 0.25,16 C0.25,7.30647888 7.30647888,0.25 16,0.25 Z M16,2.75380228 C8.69257055,2.75380228 2.75380228,8.69257055 2.75380228,16 C2.75380228,23.3074294 8.69257055,29.2461977 16,29.2461977 C23.3074294,29.2461977 29.2461977,23.3074294 29.2461977,16 C29.2461977,8.69257055 23.3074294,2.75380228 16,2.75380228 Z" id="Combined-Shape" fill-rule="nonzero"></path>
            <path d="M16.4208084,20.9261724 C17.090869,20.9261724 17.5209478,21.259223 17.6287091,21.8689954 L17.6468373,22.003876 L17.6543318,22.1495564 L17.6543318,22.8593156 C17.6543318,23.5299314 17.312477,23.9613653 16.6985183,24.0611343 L16.5628163,24.0774031 L16.4208084,24.0826996 L15.609655,24.0826996 C14.9525604,24.0826996 14.5266963,23.7448596 14.4279556,23.1358101 L14.4118388,23.0011726 L14.4065498,22.8593156 L14.4065498,22.1495564 C14.4065498,21.4777587 14.7337849,21.0474824 15.3364524,20.947754 L15.4697923,20.9314755 L15.609655,20.9261724 L16.4208084,20.9261724 Z M16.4715055,7.91730038 C16.8719064,7.91730038 17.1796709,8.02200375 17.3937329,8.24944463 C17.5455819,8.41078416 17.6361527,8.62009509 17.6703234,8.87605349 L17.6840968,9.03521564 L17.6847049,9.1758524 L17.5225194,17.7084918 C17.5225194,18.3655863 17.1846794,18.7914505 16.5756298,18.8901912 L16.4409923,18.906308 L16.2991354,18.911597 L15.7110492,18.911597 C15.0660443,18.911597 14.6367794,18.5863737 14.5118556,17.9917276 L14.4897768,17.8601999 L14.4775709,17.7132415 L14.3152951,9.17110266 C14.3152951,8.48324936 14.6407124,8.0421376 15.2445921,7.93954083 L15.3782399,7.92277061 L15.5184003,7.91730038 L16.4715055,7.91730038 Z" id="Combined-Shape" fill-rule="nonzero"></path>
        </g>
    </g>
</svg>