<?xml version="1.0" encoding="UTF-8"?>
<svg width="32px" height="32px" viewBox="0 0 32 32" version="1.1" xmlns="http://www.w3.org/2000/svg" xmlns:xlink="http://www.w3.org/1999/xlink">
    <title>123C21F7-9D12-4E29-94D0-8D78AEE4E9BC</title>
    <g id="🧠-Symbols" stroke="none" stroke-width="1" fill="none" fill-rule="evenodd">
        <g id="icon-alert-error">
            <g>
                <rect id="boundbox" fill="#FFFFFF" opacity="0" x="0" y="0" width="32" height="32"></rect>
                <path d="M30,16 C30,23.7337016 23.7314435,30 16,30 C8.26855645,30 2,23.7337016 2,16 C2,8.27081452 8.26855645,2 16,2 C23.7314435,2 30,8.27081452 30,16 Z M16,18.8225806 C14.5658468,18.8225806 13.4032258,19.9852016 13.4032258,21.4193548 C13.4032258,22.8535081 14.5658468,24.016129 16,24.016129 C17.4341532,24.016129 18.5967742,22.8535081 18.5967742,21.4193548 C18.5967742,19.9852016 17.4341532,18.8225806 16,18.8225806 Z M13.5345887,9.48853226 L13.9533468,17.1659516 C13.9729355,17.5252097 14.2699839,17.8064516 14.62975,17.8064516 L17.37025,17.8064516 C17.7300161,17.8064516 18.0270645,17.5252097 18.0466532,17.1659516 L18.4654113,9.48853226 C18.4865806,9.10048387 18.177621,8.77419355 17.7890081,8.77419355 L14.2109355,8.77419355 C13.8223226,8.77419355 13.5134194,9.10048387 13.5345887,9.48853226 L13.5345887,9.48853226 Z" id="Shape" fill="#D54309"></path>
            </g>
        </g>
    </g>
</svg>