<?xml version="1.0" encoding="UTF-8"?>
<svg width="32px" height="32px" viewBox="0 0 32 32" version="1.1" xmlns="http://www.w3.org/2000/svg" xmlns:xlink="http://www.w3.org/1999/xlink">
    <title>error-circle-alt</title>
    <g id="🧠-Symbols" stroke="none" stroke-width="1" fill="none" fill-rule="evenodd">
        <g id="error-circle-alt" fill="#333333" transform="translate(-0.000000, -0.000000)">
            <rect id="boundbox" opacity="0" x="0" y="0" width="32" height="32"></rect>
            <g fill-rule="nonzero" id="Combined-Shape">
                <path d="M16,0 C24.8314322,0 32,7.16856781 32,16 C32,24.8314322 24.8415716,32 16,32 C7.15842839,32 0,24.8314322 0,16 C0,7.16856781 7.16856781,0 16,0 Z M16.4208084,20.9261724 L15.609655,20.9261724 L15.4697923,20.9314755 L15.3364524,20.947754 C14.7337849,21.0474824 14.4065498,21.4777587 14.4065498,22.1495564 L14.4065498,22.1495564 L14.4065498,22.8593156 L14.4118388,23.0011726 L14.4279556,23.1358101 C14.5266963,23.7448596 14.9525604,24.0826996 15.609655,24.0826996 L15.609655,24.0826996 L16.4208084,24.0826996 L16.5628163,24.0774031 L16.6985183,24.0611343 C17.312477,23.9613653 17.6543318,23.5299314 17.6543318,22.8593156 L17.6543318,22.8593156 L17.6543318,22.1495564 L17.6468373,22.003876 L17.6287091,21.8689954 C17.5209478,21.259223 17.090869,20.9261724 16.4208084,20.9261724 L16.4208084,20.9261724 Z M16.4715055,7.91730038 L15.5184003,7.91730038 L15.3782399,7.92277061 L15.2445921,7.93954083 C14.6407124,8.0421376 14.3152951,8.48324936 14.3152951,9.17110266 L14.3152951,9.17110266 L14.4775709,17.7132415 L14.4897768,17.8601999 L14.5118556,17.9917276 C14.6367794,18.5863737 15.0660443,18.911597 15.7110492,18.911597 L15.7110492,18.911597 L16.2991354,18.911597 L16.4409923,18.906308 L16.5756298,18.8901912 C17.1846794,18.7914505 17.5225194,18.3655863 17.5225194,17.7084918 L17.5225194,17.7084918 L17.6847049,9.1758524 L17.6840968,9.03521564 L17.6703234,8.87605349 C17.6361527,8.62009509 17.5455819,8.41078416 17.3937329,8.24944463 C17.1796709,8.02200375 16.8719064,7.91730038 16.4715055,7.91730038 L16.4715055,7.91730038 Z"></path>
            </g>
        </g>
    </g>
</svg>