<?xml version="1.0" encoding="UTF-8"?>
<svg width="32px" height="32px" viewBox="0 0 32 32" version="1.1" xmlns="http://www.w3.org/2000/svg" xmlns:xlink="http://www.w3.org/1999/xlink">
    <title>excel</title>
    <g id="🧠-Symbols" stroke="none" stroke-width="1" fill="none" fill-rule="evenodd">
        <g id="excel" fill="#333333">
            <rect id="boundbox" opacity="0" x="0" y="0" width="32" height="32"></rect>
            <g id="Group" transform="translate(0.650000, 8.900000)">
                <path d="M25.4030355,6 L15.8745918,6 C15.3085456,6 14.8368405,6.5 14.8368405,7.1 C14.8368405,7.7 15.3085456,8.2 15.8745918,8.2 L25.4030355,8.2 C25.9690816,8.2 26.4407867,7.7 26.4407867,7.1 C26.4407867,6.5 25.9690816,6 25.4030355,6 Z" id="Path" fill-rule="nonzero"></path>
                <path d="M25.4030355,0 L15.8745918,0 C15.3085456,0 14.8368405,0.5 14.8368405,1.1 C14.8368405,1.7 15.3085456,2.2 15.8745918,2.2 L25.4030355,2.2 C25.9690816,2.2 26.4407867,1.7 26.4407867,1.1 C26.4407867,0.5 25.9690816,0 25.4030355,0 Z" id="Path" fill-rule="nonzero"></path>
                <path d="M25.4030355,12 L15.8745918,12 C15.3085456,12 14.8368405,12.5 14.8368405,13.1 C14.8368405,13.7 15.3085456,14.2 15.8745918,14.2 L25.4030355,14.2 C25.9690816,14.2 26.4407867,13.7 26.4407867,13.1 C26.4407867,12.5 25.9690816,12 25.4030355,12 Z" id="Path" fill-rule="nonzero"></path>
                <path d="M12,0.6 C12.5522847,0.6 13,1.04771525 13,1.6 L13,12.6 C13,13.1522847 12.5522847,13.6 12,13.6 L1,13.6 C0.44771525,13.6 6.76353751e-17,13.1522847 0,12.6 L0,1.6 C-6.76353751e-17,1.04771525 0.44771525,0.6 1,0.6 L12,0.6 Z M5.26962457,2.6 L3.14334471,2.6 L5.31740614,6.81387283 L3,11.6 L5.07849829,11.6 L6.46416382,8.16647399 L7.87372014,11.6 L10,11.6 L7.6109215,6.73583815 L9.78498294,2.6 L7.70648464,2.6 L6.46416382,5.48728324 L5.26962457,2.6 Z" id="Combined-Shape"></path>
            </g>
            <path d="M28.8905902,2 C29.9951597,2 30.8905902,2.8954305 30.8905902,4 L30.8905902,27.8905902 C30.8905902,28.9951597 29.9951597,29.8905902 28.8905902,29.8905902 L5.734685,29.8905902 C4.6301155,29.8905902 3.734685,28.9951597 3.734685,27.8905902 L3.734,22.5 L5.983,22.5 L5.984,27.64 L28.64,27.64 L28.64,4.25 L5.984,4.25 L5.983,9.5 L3.734,9.5 L3.734685,4 C3.734685,2.8954305 4.6301155,2 5.734685,2 L28.8905902,2 Z" id="Combined-Shape" fill-rule="nonzero"></path>
        </g>
    </g>
</svg>