<?xml version="1.0" encoding="UTF-8"?>
<svg width="32px" height="32px" viewBox="0 0 32 32" version="1.1" xmlns="http://www.w3.org/2000/svg" xmlns:xlink="http://www.w3.org/1999/xlink">
    <title>export</title>
    <g id="🧠-Symbols" stroke="none" stroke-width="1" fill="none" fill-rule="evenodd">
        <g id="export" fill="#333333">
            <rect id="boundbox" opacity="0" x="0" y="0" width="32" height="32"></rect>
            <g transform="translate(0.500000, 2.162500)" fill-rule="nonzero" id="Group">
                <g transform="translate(4.625000, 0.000000)">
                    <g id="Path">
                        <path d="M20.475,12.275 C20.175,12.275 19.775,12.175 19.575,11.875 L9.975,2.275 C9.475,1.775 9.475,0.975 9.975,0.375 C10.475,-0.125 11.275,-0.125 11.875,0.375 L21.475,9.975 C21.975,10.475 21.975,11.275 21.475,11.875 C21.075,12.075 20.775,12.275 20.475,12.275 Z"></path>
                        <path d="M1.275,12.275 C0.975,12.275 0.575,12.175 0.375,11.875 C-0.125,11.375 -0.125,10.575 0.375,9.975 L9.975,0.375 C10.475,-0.125 11.275,-0.125 11.875,0.375 C12.475,0.875 12.375,1.675 11.875,2.275 L2.275,11.875 C1.975,12.075 1.675,12.275 1.275,12.275 Z"></path>
                    </g>
                    <path d="M10.875,22.775 C10.175,22.775 9.575,22.175 9.575,21.475 L9.575,2.275 C9.575,1.575 10.175,0.975 10.875,0.975 C11.575,0.975 12.175,1.575 12.175,2.275 L12.175,21.475 C12.175,22.175 11.575,22.775 10.875,22.775 Z" id="Path"></path>
                </g>
                <g transform="translate(0.000000, 19.275000)">
                    <path d="M29.7,8.4 L1.3,8.4 C0.6,8.4 0,7.8 0,7.1 C0,6.4 0.6,5.8 1.3,5.8 L29.7,5.8 C30.4,5.8 31,6.4 31,7.1 C31,7.8 30.4,8.4 29.7,8.4 Z" id="Path"></path>
                    <path d="M1.3,8.4 C0.6,8.4 0,7.8 0,7.1 L0,1.3 C0,0.6 0.6,0 1.3,0 C2,0 2.6,0.6 2.6,1.3 L2.6,7.1 C2.6,7.8 2,8.4 1.3,8.4 Z" id="Path"></path>
                    <path d="M29.7,8.4 C29,8.4 28.4,7.8 28.4,7.1 L28.4,1.3 C28.4,0.6 29,0 29.7,0 C30.4,0 31,0.6 31,1.3 L31,7.1 C31,7.8 30.4,8.4 29.7,8.4 Z" id="Path"></path>
                </g>
            </g>
        </g>
    </g>
</svg>