<?xml version="1.0" encoding="UTF-8"?>
<svg width="32px" height="32px" viewBox="0 0 32 32" version="1.1" xmlns="http://www.w3.org/2000/svg" xmlns:xlink="http://www.w3.org/1999/xlink">
    <title>_Icons/icon-export</title>
    <g id="_Icons/icon-export" stroke="none" stroke-width="1" fill="none" fill-rule="evenodd">
        <g id="icon_download">
            <g>
                <rect id="boundbox" fill="#FFFFFF" opacity="0" x="0" y="0" width="32" height="32"></rect>
                <path d="M29.3488372,29 L2.65116279,29 C2.29172093,29 2,28.7095202 2,28.3516076 L2,20.7647684 C2,20.4068558 2.29172093,20.1163761 2.65116279,20.1163761 C3.01060465,20.1163761 3.30232558,20.4068558 3.30232558,20.7647684 L3.30232558,27.7032152 L28.6976744,27.7032152 L28.6976744,20.8779129 C28.6976744,20.5200003 28.9893953,20.2295205 29.3488372,20.2295205 C29.7082791,20.2295205 30,20.5200003 30,20.8779129 L30,28.3519318 C30,28.7098444 29.7082791,29 29.3488372,29 Z M15.9426977,3 C15.7610233,3 15.5881395,3.07521352 15.4647442,3.20813395 L8.61288372,10.5819762 C8.36869767,10.8448994 8.38465116,11.2550075 8.64869767,11.4984789 C8.91306977,11.741626 9.32427907,11.7257404 9.56911628,11.4628173 L15.2853488,5.31054623 L15.2853488,23.3095296 C15.2853488,23.6674421 15.5770698,23.9579219 15.9365116,23.9579219 C16.2959535,23.9579219 16.5876744,23.6674421 16.5876744,23.3095296 L16.5876744,5.2966058 L22.3192093,11.4628173 C22.5633953,11.7257404 22.9755814,11.741626 23.2393023,11.4981547 C23.5033488,11.2550075 23.5193023,10.8445752 23.2747907,10.5819762 L16.4206512,3.20813395 C16.2972558,3.07521352 16.1240465,3 15.9426977,3 Z" id="Shape" stroke="#112E51" stroke-width="0.933333333" fill="#112E51" fill-rule="nonzero"></path>
            </g>
        </g>
    </g>
</svg>