<?xml version="1.0" encoding="UTF-8"?>
<svg width="32px" height="32px" viewBox="0 0 32 32" version="1.1" xmlns="http://www.w3.org/2000/svg" xmlns:xlink="http://www.w3.org/1999/xlink">
  <title>fallback</title>
  <g id="🧠-Symbols" stroke="none" stroke-width="1" fill="none" fill-rule="evenodd">
    <g id="fallback" fill="#333333">
      <rect id="boundbox" opacity="0" x="0" y="0" width="32" height="32"></rect>
      <g id="census" transform="translate(5.445654, 14.233398)" fill-rule="nonzero">
        <path d="M1.70898438,2.94628906 C1.87076823,2.94628906 1.99609375,2.90242513 2.08496094,2.81469727 C2.17382812,2.7269694 2.2171224,2.60449219 2.21484375,2.44726562 L3.29492188,2.44726562 C3.29492188,2.85286458 3.1496582,3.18554688 2.85913086,3.4453125 C2.56860352,3.70507812 2.19433594,3.83496094 1.73632812,3.83496094 C1.19856771,3.83496094 0.774739583,3.66634115 0.46484375,3.32910156 C0.154947917,2.99186198 0,2.52473958 0,1.92773438 L0,1.87988281 C0,1.5061849 0.0689290365,1.17635091 0.206787109,0.890380859 C0.344645182,0.604410807 0.543457031,0.384521484 0.803222656,0.230712891 C1.06298828,0.0769042969 1.37060547,0 1.72607422,0 C2.20686849,0 2.58854167,0.133300781 2.87109375,0.399902344 C3.15364583,0.666503906 3.29492188,1.02766927 3.29492188,1.48339844 L2.21484375,1.48339844 C2.21484375,1.29199219 2.16813151,1.14501953 2.07470703,1.04248047 C1.98128255,0.939941406 1.85595703,0.888671875 1.69873047,0.888671875 C1.40022786,0.888671875 1.22591146,1.0789388 1.17578125,1.45947266 C1.15983073,1.58024089 1.15185547,1.74658203 1.15185547,1.95849609 C1.15185547,2.32991536 1.19628906,2.58740234 1.28515625,2.73095703 C1.37402344,2.87451172 1.51529948,2.94628906 1.70898438,2.94628906 Z" id="Path"></path>
        <path d="M5.39628906,3.83496094 C4.82890625,3.83496094 4.36975911,3.66577148 4.01884766,3.32739258 C3.6679362,2.98901367 3.49248047,2.54866536 3.49248047,2.00634766 L3.49248047,1.91064453 C3.49248047,1.53238932 3.56254883,1.19856771 3.70268555,0.909179688 C3.84282227,0.619791667 4.04733073,0.395914714 4.31621094,0.237548828 C4.58509115,0.0791829427 4.90410156,0 5.27324219,0 C5.79277344,0 6.20292969,0.161214193 6.50371094,0.483642578 C6.80449219,0.806070964 6.95488281,1.25553385 6.95488281,1.83203125 L6.95488281,2.27978516 L4.66484375,2.27978516 C4.70585937,2.48714193 4.79586589,2.6500651 4.93486328,2.76855469 C5.07386068,2.88704427 5.2538737,2.94628906 5.47490234,2.94628906 C5.83948568,2.94628906 6.12431641,2.8186849 6.32939453,2.56347656 L6.85576172,3.18554688 C6.71220703,3.38378906 6.50883789,3.54158529 6.2456543,3.65893555 C5.9824707,3.77628581 5.69934896,3.83496094 5.39628906,3.83496094 Z M5.26640625,0.888671875 C4.92916667,0.888671875 4.72864583,1.11197917 4.66484375,1.55859375 L5.82695312,1.55859375 L5.82695312,1.46972656 C5.83151042,1.28515625 5.78479818,1.14217122 5.68681641,1.04077148 C5.58883464,0.939371745 5.44869792,0.888671875 5.26640625,0.888671875 Z" id="Shape"></path>
        <path d="M8.30087891,0.068359375 L8.33847656,0.502441406 C8.5936849,0.167480469 8.94573568,0 9.39462891,0 C9.77972005,0 10.0673991,0.115071615 10.257666,0.345214844 C10.4479329,0.575358073 10.5464844,0.92171224 10.5533203,1.38427734 L10.5533203,3.76660156 L9.39804688,3.76660156 L9.39804688,1.43212891 C9.39804688,1.24527995 9.36044922,1.10799154 9.28525391,1.02026367 C9.21005859,0.932535807 9.07333984,0.888671875 8.87509766,0.888671875 C8.64951172,0.888671875 8.48203125,0.977539063 8.37265625,1.15527344 L8.37265625,3.76660156 L7.22080078,3.76660156 L7.22080078,0.068359375 L8.30087891,0.068359375 Z" id="Path"></path>
        <path d="M12.9520508,2.72753906 C12.9520508,2.62955729 12.9007812,2.55094401 12.7982422,2.49169922 C12.6957031,2.43245443 12.5008789,2.37093099 12.2137695,2.30712891 C11.9266602,2.24332682 11.689681,2.15958659 11.502832,2.0559082 C11.3159831,1.95222982 11.1735677,1.82633464 11.0755859,1.67822266 C10.9776042,1.53011068 10.9286133,1.36035156 10.9286133,1.16894531 C10.9286133,0.829427083 11.06875,0.549723307 11.3490234,0.329833984 C11.6292969,0.109944661 11.9961589,0 12.4496094,0 C12.9372396,0 13.3291667,0.110514323 13.6253906,0.331542969 C13.9216146,0.552571615 14.0697266,0.843098958 14.0697266,1.203125 L12.9144531,1.203125 C12.9144531,0.906901042 12.7583659,0.758789062 12.4461914,0.758789062 C12.3254232,0.758789062 12.2240234,0.792399089 12.1419922,0.859619141 C12.0599609,0.926839193 12.0189453,1.01057943 12.0189453,1.11083984 C12.0189453,1.21337891 12.0690755,1.29654948 12.1693359,1.36035156 C12.2695964,1.42415365 12.4296712,1.4765625 12.6495605,1.51757812 C12.8694499,1.55859375 13.0625651,1.60758464 13.2289062,1.66455078 C13.7848958,1.85595703 14.0628906,2.19889323 14.0628906,2.69335938 C14.0628906,3.03059896 13.9130697,3.30517578 13.6134277,3.51708984 C13.3137858,3.72900391 12.9258464,3.83496094 12.4496094,3.83496094 C12.1328776,3.83496094 11.8503255,3.77799479 11.6019531,3.6640625 C11.3535807,3.55013021 11.1598958,3.39518229 11.0208984,3.19921875 C10.881901,3.00325521 10.8124023,2.79703776 10.8124023,2.58056641 L11.8890625,2.58056641 C11.8936198,2.75146484 11.9505859,2.8762207 12.0599609,2.95483398 C12.1693359,3.03344727 12.3094727,3.07275391 12.4803711,3.07275391 C12.6375977,3.07275391 12.7555176,3.04085286 12.8341309,2.97705078 C12.9127441,2.9132487 12.9520508,2.83007812 12.9520508,2.72753906 Z" id="Path"></path>
        <path d="M16.6291016,3.36669922 C16.3852865,3.6788737 16.0560221,3.83496094 15.6413086,3.83496094 C15.2357096,3.83496094 14.9286621,3.71704102 14.720166,3.48120117 C14.5116699,3.24536133 14.4074219,2.90641276 14.4074219,2.46435547 L14.4074219,0.068359375 L15.5592773,0.068359375 L15.5592773,2.47119141 C15.5592773,2.78792318 15.7130859,2.94628906 16.0207031,2.94628906 C16.285026,2.94628906 16.4730143,2.85172526 16.584668,2.66259766 L16.584668,0.068359375 L17.7433594,0.068359375 L17.7433594,3.76660156 L16.6632812,3.76660156 L16.6291016,3.36669922 Z" id="Path"></path>
        <path d="M20.1352539,2.72753906 C20.1352539,2.62955729 20.0839844,2.55094401 19.9814453,2.49169922 C19.8789062,2.43245443 19.684082,2.37093099 19.3969727,2.30712891 C19.1098633,2.24332682 18.8728841,2.15958659 18.6860352,2.0559082 C18.4991862,1.95222982 18.3567708,1.82633464 18.2587891,1.67822266 C18.1608073,1.53011068 18.1118164,1.36035156 18.1118164,1.16894531 C18.1118164,0.829427083 18.2519531,0.549723307 18.5322266,0.329833984 C18.8125,0.109944661 19.179362,0 19.6328125,0 C20.1204427,0 20.5123698,0.110514323 20.8085938,0.331542969 C21.1048177,0.552571615 21.2529297,0.843098958 21.2529297,1.203125 L20.0976562,1.203125 C20.0976562,0.906901042 19.941569,0.758789062 19.6293945,0.758789062 C19.5086263,0.758789062 19.4072266,0.792399089 19.3251953,0.859619141 C19.2431641,0.926839193 19.2021484,1.01057943 19.2021484,1.11083984 C19.2021484,1.21337891 19.2522786,1.29654948 19.3525391,1.36035156 C19.4527995,1.42415365 19.6128743,1.4765625 19.8327637,1.51757812 C20.052653,1.55859375 20.2457682,1.60758464 20.4121094,1.66455078 C20.968099,1.85595703 21.2460938,2.19889323 21.2460938,2.69335938 C21.2460938,3.03059896 21.0962728,3.30517578 20.7966309,3.51708984 C20.4969889,3.72900391 20.1090495,3.83496094 19.6328125,3.83496094 C19.3160807,3.83496094 19.0335286,3.77799479 18.7851562,3.6640625 C18.5367839,3.55013021 18.343099,3.39518229 18.2041016,3.19921875 C18.0651042,3.00325521 17.9956055,2.79703776 17.9956055,2.58056641 L19.0722656,2.58056641 C19.0768229,2.75146484 19.1337891,2.8762207 19.2431641,2.95483398 C19.3525391,3.03344727 19.4926758,3.07275391 19.6635742,3.07275391 C19.8208008,3.07275391 19.9387207,3.04085286 20.017334,2.97705078 C20.0959473,2.9132487 20.1352539,2.83007812 20.1352539,2.72753906 Z" id="Path"></path>
      </g>
      <path d="M16,0.25 C24.6935211,0.25 31.75,7.30647888 31.75,16 C31.75,24.6935211 24.6935211,31.75 16,31.75 C7.30647888,31.75 0.25,24.6935211 0.25,16 C0.25,7.30647888 7.30647888,0.25 16,0.25 Z M16,2.75380228 C8.69257055,2.75380228 2.75380228,8.69257055 2.75380228,16 C2.75380228,23.3074294 8.69257055,29.2461977 16,29.2461977 C23.3074294,29.2461977 29.2461977,23.3074294 29.2461977,16 C29.2461977,8.69257055 23.3074294,2.75380228 16,2.75380228 Z" id="Combined-Shape" fill-rule="nonzero"></path>
    </g>
  </g>
</svg>