<?xml version="1.0" encoding="UTF-8"?>
<svg width="32px" height="32px" viewBox="0 0 32 32" version="1.1" xmlns="http://www.w3.org/2000/svg" xmlns:xlink="http://www.w3.org/1999/xlink">
    <title>family-living</title>
    <g id="🧠-Symbols" stroke="none" stroke-width="1" fill="none" fill-rule="evenodd">
        <g id="family-living">
            <rect id="boundbox" fill="#333333" opacity="0" x="0" y="0" width="32" height="32"></rect>
            <g transform="translate(1.339116, 1.600000)">
                <polyline id="Path" stroke="#333333" stroke-width="2.25" stroke-linecap="round" stroke-linejoin="round" points="19.1 11.6 10.1 5.6 0 12.1 0 27.7"></polyline>
                <polyline id="Path" stroke="#333333" stroke-width="2.25" stroke-linecap="round" stroke-linejoin="round" points="15 8.3 15 3.9 20.1 -8.8817842e-16 25.1 3.9 25.1 7.9"></polyline>
                <path d="M26.6,14.9 C27.9,14.2 28.7,12.9 28.7,11.4 C28.7,9.2 26.9,7.4 24.7,7.4 C22.7,7.4 21,8.9 20.7,10.8 C20.7,10.8 20.6,10.8 20.6,10.8 C18.4,10.8 16.6,12.6 16.6,14.8 C16.6,16.3 17.5,17.7 18.7,18.3 C17,19 15.7,20.8 15.7,22.8 L15.7,27.6 C15.7,28.2 16.2,28.6 16.7,28.6 L24.3,28.6 C24.9,28.6 25.3,28.1 25.3,27.6 L25.3,25.2 L28.3,25.2 C28.9,25.2 29.3,24.7 29.3,24.2 L29.3,19.4 C29.5,17.4 28.3,15.7 26.6,14.9 Z M24.7,9.1 C26,9.1 27,10.1 27,11.4 C27,12.7 26,13.7 24.7,13.7 C24.6,13.7 24.6,13.7 24.5,13.7 C24.2,12.6 23.4,11.7 22.4,11.2 C22.5,10 23.5,9.1 24.7,9.1 Z M18.3,14.8 C18.3,13.5 19.3,12.5 20.6,12.5 C20.7,12.5 20.7,12.5 20.8,12.5 L20.8,12.5 C21.2,12.5 21.7,12.7 22,13 C22,13 22,13 22,13 C22.1,13.1 22.2,13.2 22.3,13.3 C22.3,13.3 22.3,13.3 22.4,13.4 C22.5,13.5 22.5,13.6 22.6,13.7 C22.6,13.7 22.7,13.8 22.7,13.8 C22.7,13.9 22.8,14 22.8,14 C22.8,14.1 22.9,14.2 22.9,14.2 C22.9,14.3 22.9,14.3 23,14.4 C23,14.5 23,14.7 23,14.9 C23,16.2 22,17.2 20.7,17.2 C20.6,17.2 20.6,17.2 20.5,17.2 L20.5,17.2 C19.2,17 18.3,16 18.3,14.8 Z M23.8,27 L17.5,27 L17.5,22.8 C17.5,21.3 18.5,20.1 19.9,19.8 C20,19.8 20.1,19.8 20.2,19.7 C20.4,19.7 20.5,19.7 20.7,19.7 C20.9,19.7 21,19.7 21.2,19.8 C21.3,19.8 21.5,19.9 21.6,19.9 L21.6,19.9 C22.9,20.3 23.8,21.5 23.8,22.9 L23.8,23.7 L23.8,25.4 L23.8,27 L23.8,27 Z M27.8,23.6 L25.4,23.6 L25.4,22.8 C25.4,20.8 24.2,19.1 22.4,18.3 C23.2,17.9 23.9,17.1 24.2,16.2 C24.3,16.2 24.4,16.2 24.5,16.2 C26.2,16.2 27.7,17.6 27.7,19.4 L27.7,23.6 L27.8,23.6 Z" id="Shape" fill="#333333" fill-rule="nonzero"></path>
                <path d="M7.4,18.7 L5.5,18.7 C5.1,18.7 4.7,18.4 4.7,17.9 L4.7,14 C4.7,13.6 5,13.2 5.5,13.2 L7.4,13.2 C7.8,13.2 8.2,13.5 8.2,14 L8.2,17.9 C8.1,18.4 7.8,18.7 7.4,18.7 Z" id="Path" fill="#333333"></path>
                <path d="M15,18.6 L13.1,18.6 C12.7,18.6 12.3,18.3 12.3,17.8 L12.3,13.9 C12.3,13.5 12.6,13.1 13.1,13.1 L15,13.1 C15.4,13.1 15.8,13.4 15.8,13.9 L15.8,17.8 C15.7,18.3 15.4,18.6 15,18.6 Z" id="Path" fill="#333333"></path>
                <path d="M12.3,28.8 L8.5,28.8 C7.9,28.8 7.5,28.4 7.5,27.8 L7.5,22.3 C7.5,21.7 7.9,21.3 8.5,21.3 L12.3,21.3 C12.9,21.3 13.3,21.7 13.3,22.3 L13.3,27.8 C13.3,28.3 12.8,28.8 12.3,28.8 Z" id="Path" fill="#333333"></path>
            </g>
        </g>
    </g>
</svg>