<?xml version="1.0" encoding="UTF-8"?>
<svg width="32px" height="32px" viewBox="0 0 32 32" version="1.1" xmlns="http://www.w3.org/2000/svg" xmlns:xlink="http://www.w3.org/1999/xlink">
    <title>dialog</title>
    <g id="🧠-Symbols" stroke="none" stroke-width="1" fill="none" fill-rule="evenodd">
        <g id="dialog" fill="#333333">
            <rect id="boundbox" opacity="0" x="0" y="0" width="32" height="32"></rect>
            <g transform="translate(0.650000, 2.350000)" fill-rule="nonzero" id="Shape">
                <path d="M26.4,1.77635684e-15 L4,1.77635684e-15 C1.8,1.77635684e-15 1.77635684e-15,1.8 1.77635684e-15,4 L1.77635684e-15,17.6 C1.77635684e-15,19.8 1.8,21.6 4,21.6 L9.4,21.6 L9.4,26.3 C9.4,26.8 9.8,27.3 10.4,27.3 C10.6,27.3 10.8,27.2 11,27.1 L18.3,21.7 L26.7,21.7 C28.9,21.7 30.7,19.9 30.7,17.7 L30.7,4 C30.4,1.8 28.7,1.77635684e-15 26.4,1.77635684e-15 Z M4,19.2 C3.1,19.2 2.4,18.5 2.4,17.6 L2.4,4 C2.4,3.1 3.1,2.4 4,2.4 L26.5,2.4 C27.4,2.4 28.1,3.1 28.1,4 L28.1,17.6 C28.1,18.5 27.4,19.2 26.5,19.2 L17.4,19.2 L11.8,23.4 L11.8,19.2 L4,19.2 Z"></path>
            </g>
        </g>
    </g>
</svg>