<?xml version="1.0" encoding="UTF-8"?>
<svg width="32px" height="32px" viewBox="0 0 32 32" version="1.1" xmlns="http://www.w3.org/2000/svg" xmlns:xlink="http://www.w3.org/1999/xlink">
    <title>E264B380-23E7-43B4-9913-64594ECC5752</title>
    <defs>
        <path d="M12.4338308,5 C12.7800392,5 13.0606965,5.2849848 13.0606965,5.63653137 L13.0606965,5.63653137 L13.0595821,7.71586716 L29.3731343,7.71586716 C29.6760666,7.71586716 29.9288114,7.93405865 29.9872643,8.22411525 L29.9872643,8.22411525 L30,8.35239852 L30,26.4581796 C30,27.3097035 29.3201856,28 28.481592,28 L28.481592,28 L3.51840796,28 C2.6798144,28 2,27.3097035 2,26.4581796 L2,26.4581796 L2,5.63653137 C2,5.2849848 2.28065732,5 2.62686567,5 L2.62686567,5 Z M11.8058507,6.27306273 L3.25373134,6.27306273 L3.25373134,26.4581796 C3.25373134,26.5769242 3.32957119,26.6776823 3.43474968,26.7132358 L3.43474968,26.7132358 L3.51840796,26.7269373 L28.481592,26.7269373 C28.6277689,26.7269373 28.7462687,26.6066104 28.7462687,26.4581796 L28.7462687,26.4581796 L28.7462687,8.98892989 L12.4338308,8.98892989 C12.1308985,8.98892989 11.8781537,8.7707384 11.8197009,8.4806818 L11.8197009,8.4806818 L11.8069652,8.35239852 L11.8058507,6.27306273 Z M11.9095731,14.1236162 L11.9095731,15.0446048 L8.67213947,15.0446048 L8.67213947,17.9474677 L11.4422566,17.9474677 L11.4422566,18.8626272 L8.67213947,18.8626272 L8.67213947,22.6107011 L7.64179104,22.6107011 L7.64179104,14.1236162 L11.9095731,14.1236162 Z M18.0860333,14.1236162 L18.0860333,15.0446048 L15.929621,15.0446048 L15.929621,22.6107011 L14.8992726,22.6107011 L14.8992726,15.0446048 L12.7484906,15.0446048 L12.7484906,14.1236162 L18.0860333,14.1236162 Z M21.9090201,14.1236162 C22.6709938,14.1236162 23.2696784,14.3596901 23.7050919,14.8318448 C24.1405055,15.3039996 24.358209,15.9325583 24.358209,16.7175398 C24.358209,17.5336098 24.1508276,18.1621685 23.7360587,18.6032349 C23.3212897,19.0443012 22.7366808,19.2726031 21.9822142,19.2881473 L20.3269004,19.2881473 L20.3269004,22.6107011 L19.2965519,22.6107011 L19.2965519,14.1236162 L21.9090201,14.1236162 Z M21.9146504,15.0446048 L20.3269004,15.0446048 L20.3269004,18.3729877 L21.9090201,18.3729877 C22.366955,18.3729877 22.7179081,18.2311491 22.9618898,17.9474677 C23.2058715,17.6637862 23.3278605,17.2577004 23.3278605,16.7291979 C23.3278605,16.2201257 23.202118,15.8120969 22.9506291,15.5050991 C22.6991403,15.1981014 22.3538175,15.0446048 21.9146504,15.0446048 Z" id="path-2"></path>
    </defs>
    <g id="🧠-Symbols" stroke="none" stroke-width="1" fill="none" fill-rule="evenodd">
        <g id="icon_more-data">
            <g>
                <rect id="boundbox" fill="#FFFFFF" opacity="0" x="0" y="0" width="32" height="32"></rect>
                <mask id="mask-3" fill="white">
                    <use xlink:href="#path-2"></use>
                </mask>
                <use id="icon-element" stroke="#112E51" stroke-width="0.5" fill="#112E51" fill-rule="nonzero" xlink:href="#path-2"></use>
            </g>
        </g>
    </g>
</svg>