<?xml version="1.0" encoding="UTF-8"?>
<svg width="32px" height="32px" viewBox="0 0 32 32" version="1.1" xmlns="http://www.w3.org/2000/svg" xmlns:xlink="http://www.w3.org/1999/xlink">
    <title>geo</title>
    <g id="🧠-Symbols" stroke="none" stroke-width="1" fill="none" fill-rule="evenodd">
        <g id="geo" fill="#333333">
            <rect id="boundbox" opacity="0" x="0" y="0" width="32" height="32"></rect>
            <g id="geo-45" transform="translate(6.000000, 2.000000)" fill-rule="nonzero" stroke="#333333">
                <path d="M10.38,0 C4.65,0 0,4.65 0,10.38 C0,14.56 1.46,15.73 9.31,27.12 C9.83,27.86 10.93,27.86 11.44,27.12 C19.29,15.74 20.7500161,14.57 20.7500161,10.38 C20.76,4.65 16.11,0 10.38,0 Z M10.38,25.62 C2.85,14.73 1.73,13.87 1.73,10.38 C1.73,8.07 2.63,5.9 4.26,4.27 C5.89,2.64 8.07,1.74 10.37,1.74 C12.67,1.74 14.85,2.64 16.48,4.27 C18.11,5.9 19.01,8.08 19.01,10.38 C19.03,13.87 17.91,14.73 10.38,25.62 Z" id="Shape" stroke-width="0.1"></path>
                <circle id="Oval" stroke-width="0.5" cx="10.38" cy="10.38" r="3.46"></circle>
            </g>
        </g>
    </g>
</svg>