<?xml version="1.0" encoding="UTF-8"?>
<svg width="32px" height="32px" viewBox="0 0 32 32" version="1.1" xmlns="http://www.w3.org/2000/svg" xmlns:xlink="http://www.w3.org/1999/xlink">
    <title>7B3D0842-2B48-4FA1-B5FD-9CB2D8C0C303</title>
    <defs>
        <path d="M16,0.8 C21.6398824,0.8 26.2142857,5.42281647 26.2142857,11.1283584 C26.2142857,12.2327802 26.0683017,13.3835065 25.787476,14.5754576 C25.0717195,17.6134506 23.5135248,20.8258096 21.3665267,24.0803908 C20.3185119,25.6690504 19.1968837,27.1652689 18.0749584,28.525828 C17.8784178,28.7641727 17.688798,28.989864 17.5072455,29.2022146 L17.5072455,29.2022146 L16.9879369,29.7985573 L16.5669341,30.262545 C16.2576836,30.5906946 15.7423164,30.5906946 15.4330659,30.262545 L15.4330659,30.262545 L14.7588894,29.5106492 C14.4990917,29.2123919 14.2198525,28.8833451 13.9250416,28.525828 C12.8031163,27.1652689 11.6814881,25.6690504 10.6334733,24.0803908 C8.48647519,20.8258096 6.92828054,17.6134506 6.21252404,14.5754576 C5.93169829,13.3835065 5.78571429,12.2327802 5.78571429,11.1283584 C5.78571429,5.42281658 10.3601179,0.8 16,0.8 Z M16,2.4 C11.2253698,2.4 7.35714286,6.30916618 7.35714286,11.1283584 C7.35714286,12.1008209 7.48738653,13.1274733 7.74060096,14.2022294 C8.40598286,17.02641 9.88629266,20.0782023 11.9379552,23.1882667 C12.9524405,24.7260997 14.0406337,26.177717 15.1285298,27.4970088 C15.318708,27.7276379 15.5019955,27.9457969 15.6772371,28.1507772 L15.6772371,28.1507772 L16,28.5232 L16.3227629,28.1507772 L16.8714702,27.4970088 C17.9593663,26.177717 19.0475595,24.7260997 20.0620448,23.1882667 C22.1137073,20.0782023 23.5940171,17.02641 24.259399,14.2022294 C24.5126135,13.1274733 24.6428571,12.1008209 24.6428571,11.1283584 C24.6428571,6.30916606 20.7746304,2.4 16,2.4 Z M16,6.51701493 C18.5155285,6.51701493 20.5571429,8.58023663 20.5571429,11.1283582 C20.5571429,13.6764798 18.5155285,15.7397015 16,15.7397015 C13.4844715,15.7397015 11.4428571,13.6764798 11.4428571,11.1283582 C11.4428571,8.58023663 13.4844715,6.51701493 16,6.51701493 Z M16,8.11701493 C14.3497235,8.11701493 13.0142857,9.46658624 13.0142857,11.1283582 C13.0142857,12.7901302 14.3497235,14.1397015 16,14.1397015 C17.6502765,14.1397015 18.9857143,12.7901302 18.9857143,11.1283582 C18.9857143,9.46658624 17.6502765,8.11701493 16,8.11701493 Z" id="path-2"></path>
    </defs>
    <g id="🧠-Symbols" stroke="none" stroke-width="1" fill="none" fill-rule="evenodd">
        <g id="icon_geographies">
            <g>
                <rect id="boundbox" fill="#FFFFFF" opacity="0" x="0" y="0" width="32" height="32"></rect>
                <mask id="mask-3" fill="white">
                    <use xlink:href="#path-2"></use>
                </mask>
                <use id="icon-element" fill="#112E51" fill-rule="nonzero" xlink:href="#path-2"></use>
            </g>
        </g>
    </g>
</svg>