<?xml version="1.0" encoding="UTF-8"?>
<svg width="32px" height="32px" viewBox="0 0 32 32" version="1.1" xmlns="http://www.w3.org/2000/svg" xmlns:xlink="http://www.w3.org/1999/xlink">
    <title>_Icons/icon-question-circle</title>
    <defs>
        <filter id="filter-1">
            <feColorMatrix in="SourceGraphic" type="matrix" values="0 0 0 0 0.000000 0 0 0 0 0.513725 0 0 0 0 0.572549 0 0 0 1.000000 0"></feColorMatrix>
        </filter>
        <filter id="filter-2">
            <feColorMatrix in="SourceGraphic" type="matrix" values="0 0 0 0 0.000000 0 0 0 0 0.513725 0 0 0 0 0.572549 0 0 0 1.000000 0"></feColorMatrix>
        </filter>
    </defs>
    <g id="_Icons/icon-question-circle" stroke="none" stroke-width="1" fill="none" fill-rule="evenodd">
        <g filter="url(#filter-1)" id="Icon">
            <g filter="url(#filter-2)" id="icon_">
                <g>
                    <rect id="boundbox" fill="#FFFFFF" opacity="0" x="0" y="0" width="32" height="32"></rect>
                    <g id="Group-11" transform="translate(1.000000, 1.000000)" stroke="#112E51" stroke-width="1.65">
                        <circle id="Oval" cx="15" cy="15" r="14.175"></circle>
                    </g>
                    <g id="Group" transform="translate(10.000000, 7.000000)" fill="#D8D8D8">
                        <path d="M6.35923257,12.4999702 C6.77341615,12.4999702 7.10923078,12.1641556 7.10923078,11.749972 L7.10923078,11.7261683 C7.10923078,9.00370168 11.9492461,9.2265405 11.9492461,5.01317164 C11.9492461,1.8594316 9.1292455,0 5.85923376,0 C3.05748263,0 1.48351177,1.09460188 0.156854778,2.79631902 C-0.106572329,3.13420884 -0.0293630401,3.62493032 0.322198622,3.86986382 L1.14305848,4.44176187 C1.4677037,4.66789659 1.91429688,4.60448121 2.15855899,4.29326369 C3.09269983,3.10308098 4.03776593,2.5 5.85923376,2.5 C8.33914728,2.5 9.44925206,3.76219806 9.44925206,5.01317164 C9.44925206,7.74998152 4.60923674,7.32975547 4.60923674,11.7261683 L4.60923674,11.749972 C4.60923674,12.1641556 4.94505137,12.4999702 5.35923495,12.4999702 L6.35923257,12.4999702 Z" id="Path"></path>
                        <path d="M5.87986359,17.4999666 C6.84635299,17.4999666 7.62986777,16.7164518 7.62986777,15.7499624 C7.62986777,14.7834731 6.84635299,13.9999666 5.87986359,13.9999666 C4.9133742,13.9999666 4.12986777,14.7834731 4.12986777,15.7499624 C4.12986777,16.7164518 4.9133742,17.4999666 5.87986359,17.4999666 Z" id="Path"></path>
                    </g>
                </g>
            </g>
        </g>
    </g>
</svg>