<?xml version="1.0" encoding="UTF-8"?>
<svg width="32px" height="32px" viewBox="0 0 32 32" version="1.1" xmlns="http://www.w3.org/2000/svg" xmlns:xlink="http://www.w3.org/1999/xlink">
    <title>AA803315-559A-41E8-A2CD-4553359B58E7</title>
    <g id="🧠-Symbols" stroke="none" stroke-width="1" fill="none" fill-rule="evenodd">
        <g id="icon_identify" >
            <g>
                <rect id="boundbox" fill="#FFFFFF" opacity="0" x="0" y="0" width="32" height="32"></rect>
                <path d="M14.7906977,22.1813953 C14.355814,22.1813953 14,22.5372093 14,22.972093 C14,23.4069767 14.355814,23.7627907 14.7906977,23.7627907 L18.427907,23.7627907 C18.8627907,23.7627907 19.2186047,23.4069767 19.2186047,22.972093 C19.2186047,22.5372093 18.8627907,22.1813953 18.427907,22.1813953 L17.4395349,22.1813953 L17.4395349,12.5744186 C17.4395349,12.1395349 17.0837209,11.7837209 16.6488372,11.7837209 L14.7906977,11.7837209 C14.355814,11.7837209 14,12.1395349 14,12.5744186 C14,13.0093023 14.355814,13.3651163 14.7906977,13.3651163 L15.8581395,13.3651163 L15.8581395,22.1813953 L14.7906977,22.1813953 Z" id="Path" stroke="#112E51" stroke-width="0.3" fill="#000000" fill-rule="nonzero"></path>
                <circle id="Oval" stroke="#112E51" stroke-width="0.3" fill="#000000" fill-rule="nonzero" cx="16.6488372" cy="8.42325581" r="1.42325581"></circle>
                <path d="M16,1 C7.71572875,1 1,7.71572875 1,16 C1,24.2842712 7.71572875,31 16,31 C24.2842712,31 31,24.2842712 31,16 C31,7.71572875 24.2842712,1 16,1 Z" id="Path" stroke="#008392" stroke-width="1.7" fill-rule="nonzero"></path>
            </g>
        </g>
    </g>
</svg>