<?xml version="1.0" encoding="UTF-8"?>
<svg width="32px" height="32px" viewBox="0 0 32 32" version="1.1" xmlns="http://www.w3.org/2000/svg" xmlns:xlink="http://www.w3.org/1999/xlink">
    <title>income</title>
    <g id="🧠-Symbols" stroke="none" stroke-width="1" fill="none" fill-rule="evenodd">
        <g id="income" fill="#333333">
            <rect id="boundbox" opacity="0" x="0" y="0" width="32" height="32"></rect>
            <g transform="translate(0.365082, 2.324995)" fill-rule="nonzero">
                <g id="Shape">
                    <path d="M16.7961977,-0.2 C20.7694772,-0.2 23.9961977,3.06338779 23.9961977,7 C23.9961977,10.9366122 20.7694772,14.2 16.7961977,14.2 C12.8988555,14.2 9.59619768,10.8973422 9.59619768,7 C9.59619768,3.06338779 12.8229182,-0.2 16.7961977,-0.2 Z M16.7961977,1.69180328 C13.8700108,1.69180328 11.488001,4.17737875 11.488001,7.1147541 C11.488001,10.0284572 13.8482875,12.4229508 16.7961977,12.4229508 C19.7223846,12.4229508 22.1043944,9.93737535 22.1043944,7 C22.1043944,4.08629689 19.7441078,1.69180328 16.7961977,1.69180328 Z"></path>
                    <path d="M2.49644465,13.2500096 L2.55011028,13.2548487 L3.69131298,13.4654046 C4.06475977,13.5898869 4.25615899,13.8488224 4.28645736,14.2644631 L4.29061885,14.4088445 L4.24944465,14.6140096 L10.8764889,15.9506741 L12.3830253,15.8503099 L19.0964446,15.5500096 C19.576917,15.5500096 20.3754341,15.816182 20.8307053,16.3626011 C21.2732133,16.9157362 21.5394558,17.5038296 21.5882792,18.1371964 L21.5924446,18.2550096 L27.2300346,15.3003945 C27.4758472,15.1365195 27.7775076,15.0279839 28.1046422,14.9794151 L28.3037369,14.9575069 L28.5074874,14.9502129 L28.6971009,14.957401 C29.6030762,15.0242576 30.4241343,15.5437971 30.8495431,16.288947 C31.6211874,17.5015309 31.3032146,19.0088136 30.1179421,19.8025603 L29.9652819,19.8979894 L20.5806268,26.2868153 C19.6684514,26.9962851 18.5256491,27.3500096 17.2964446,27.3500096 L16.8977912,27.344112 C16.660882,27.3354833 16.4725675,27.3159303 16.2780975,27.2762706 L2.75044465,24.2150096 L2.68104964,24.744878 C2.57039873,25.0768307 2.35351319,25.2649433 2.01741132,25.3244327 L1.8857595,25.3407417 L1.74277902,25.3451706 L0.601576318,25.1346146 C0.228129522,25.0101324 0.0367303061,24.7511969 0.0047767825,24.3448765 L0,24.20396 L1.61183966,13.8551413 C1.73632192,13.4816945 1.99525741,13.2902953 2.36800755,13.2557499 L2.49644465,13.2500096 Z M3.94344465,16.5070096 L3.03644465,22.3160096 L16.5753799,25.2605805 C17.4616907,25.5023016 18.4820691,25.323803 19.3341087,24.8232215 L19.5276074,24.7020299 L28.9420959,18.2927618 C29.3172852,18.0676482 29.4439137,17.6455532 29.2468296,17.3164197 C29.1095865,17.110555 28.9309909,16.988402 28.7111796,16.9577004 L28.59784,16.9500064 L28.5011325,16.9504428 C28.4015291,16.9518457 28.3413045,16.9594385 28.2876989,16.9846054 L28.2350864,17.0160519 L21.2085767,20.6621417 C21.1234932,20.7472252 21.0266764,20.8016846 20.9192053,20.8285524 C20.8703604,20.8407636 20.8317471,20.8462298 20.7880179,20.8483148 L20.7166688,20.8493272 L13.1945432,21.3575789 L12.8578644,21.0822457 C12.6325723,20.8810921 12.4964446,20.6477304 12.5054019,20.4227703 C12.390579,19.9634788 12.5938015,19.6516159 12.9588323,19.4376468 L13.0622806,19.3816815 L13.1741187,19.3508415 L19.5954446,18.8710096 L19.5964446,18.2500096 C19.5964446,17.9742737 19.4742735,17.7260073 19.2597745,17.5762709 L19.2064446,17.5450096 L18.9438439,17.4728526 L18.8514654,17.4540505 L18.7974446,17.4500096 L11.0964446,17.9500096 L10.8352584,17.9437038 L3.94344465,16.5070096 Z"></path>
                </g>
                <path d="M17.0073382,2.49062025 L16.8892356,2.47894436 L16.7870174,2.47766778 C16.4620215,2.47766778 16.2276538,2.66434825 16.1775961,2.97408036 L16.1684036,3.0812613 L16.167,3.399 L16.0274152,3.43736807 C15.8939091,3.47879318 15.766865,3.53049081 15.6464327,3.59247804 C15.4057358,3.71636613 15.1984297,3.87022807 15.025821,4.05362477 C14.8514906,4.23885089 14.7149724,4.45175875 14.6172592,4.69061322 C14.5185968,4.93178812 14.4690665,5.18484037 14.4690665,5.44742187 C14.4690665,5.84470495 14.5670391,6.18444458 14.7643588,6.45914452 C14.9442255,6.7095472 15.169682,6.92279824 15.4390824,7.09773353 C15.6909327,7.26127272 15.9634102,7.40488178 16.2563482,7.52856671 C16.5249179,7.6419628 16.7736399,7.7566349 17.0024213,7.8725112 C17.2098412,7.97756802 17.3794795,8.0939423 17.5114449,8.22073263 C17.6033418,8.30902572 17.64546,8.4092376 17.64546,8.54119237 C17.64546,8.64340303 17.6265636,8.72887593 17.5895563,8.80104002 C17.5503704,8.87745266 17.4991049,8.93923579 17.4336883,8.9892602 C17.359849,9.04572556 17.2740311,9.08962391 17.174785,9.1212022 C17.0725072,9.15374514 16.9619377,9.17012679 16.8420993,9.17012679 C16.7077296,9.17012679 16.5811208,9.15610542 16.4619223,9.1282079 C16.3369865,9.0989676 16.2240303,9.06224261 16.1231118,9.01825249 C16.0173562,8.9721539 15.9235341,8.92394304 15.8418685,8.87388991 L15.7608897,8.82254297 L15.6357835,8.73261849 C15.3437293,8.53984936 15.0505274,8.54254973 14.8301328,8.75329193 L14.7597645,8.8327859 L14.5919514,9.07080745 C14.3610311,9.35523435 14.4036157,9.70489885 14.7063944,9.93780551 L14.8638686,10.0543155 L14.9675966,10.1250776 C15.0810307,10.2007004 15.2097933,10.273603 15.3542001,10.3441273 C15.5029822,10.4167883 15.6701437,10.4799738 15.8560063,10.5340429 L16.0459557,10.5823294 L16.167,10.606 L16.1674272,10.9005366 C16.1674272,11.2126076 16.3558535,11.4374965 16.6604178,11.4834984 L16.7635027,11.4917343 L16.8597647,11.4925839 C17.1814928,11.4925839 17.4126977,11.3039966 17.4611404,10.9945882 L17.469955,10.8881877 L17.47,10.597 L17.5415812,10.5827727 C17.7142807,10.5403956 17.8755633,10.4818526 18.0251874,10.4070406 C18.2742261,10.2825212 18.4865228,10.1257782 18.6605291,9.93727133 C18.8351964,9.74804843 18.9702177,9.53097512 19.0645383,9.28791814 C19.158803,9.04500534 19.2059518,8.78626206 19.2059518,8.51365138 C19.2059518,8.10627094 19.109294,7.75790341 18.9143111,7.47498705 C18.7350587,7.21489534 18.5100302,6.99329629 18.2408402,6.81150569 C17.9858664,6.63931556 17.7097836,6.49380657 17.4129418,6.37506984 C17.1442376,6.26758815 16.8953893,6.15881796 16.6664943,6.04882944 C16.4583196,5.94879744 16.2881096,5.83867916 16.1560609,5.71957641 C16.0687588,5.64083337 16.0295583,5.55136848 16.0295583,5.42906122 C16.0295583,5.35221806 16.0463346,5.2823719 16.0807902,5.21527422 C16.119269,5.14034185 16.1736393,5.07282013 16.24567,5.01138212 C16.3177937,4.94986487 16.4056521,4.9012418 16.5110336,4.86536723 C16.620342,4.82815589 16.7426372,4.80930712 16.8788206,4.80930712 C17.0985823,4.80930712 17.286314,4.84373906 17.4430333,4.91124894 C17.581272,4.97079791 17.6970475,5.02661969 17.7890005,5.07787331 L17.873874,5.12809486 C18.1610267,5.31002809 18.4659315,5.28585845 18.6712168,5.04310044 L18.7345087,4.95410022 L18.8751173,4.68949288 C18.9488535,4.54215123 18.9779793,4.40065901 18.9599363,4.2623298 C18.9374698,4.09008631 18.8358815,3.94727934 18.6744999,3.84796763 C18.5496831,3.75987721 18.3590097,3.65622779 18.1164897,3.54479971 L17.9536449,3.47888288 L17.8318322,3.43958841 C17.7496543,3.41557298 17.6652772,3.39581503 17.5771384,3.37968885 L17.47,3.364 L17.4708698,3.06971696 C17.4708698,2.76733654 17.2961781,2.54466128 17.0073382,2.49062025 Z" id="$"></path>
            </g>
        </g>
    </g>
</svg>