<?xml version="1.0" encoding="UTF-8"?>
<svg width="32px" height="32px" viewBox="0 0 32 32" version="1.1" xmlns="http://www.w3.org/2000/svg" xmlns:xlink="http://www.w3.org/1999/xlink">
    <title>info-circle</title>
    <g id="🧠-Symbols" stroke="none" stroke-width="1" fill="none" fill-rule="evenodd">
        <g id="info-circle" fill="#333333">
            <rect id="boundbox" opacity="0" x="0" y="0" width="32" height="32"></rect>
            <g transform="translate(0.250000, 0.250000)" fill-rule="nonzero" id="Combined-Shape">
                <path d="M15.75,0 C24.4435211,0 31.5,7.05647888 31.5,15.75 C31.5,24.4435211 24.4435211,31.5 15.75,31.5 C7.05647888,31.5 0,24.4435211 0,15.75 C0,7.05647888 7.05647888,0 15.75,0 Z M15.75,2.50380228 C8.44257055,2.50380228 2.50380228,8.44257055 2.50380228,15.75 C2.50380228,23.0574294 8.44257055,28.9961977 15.75,28.9961977 C23.0574294,28.9961977 28.9961977,23.0574294 28.9961977,15.75 C28.9961977,8.44257055 23.0574294,2.50380228 15.75,2.50380228 Z"></path>
                <path d="M16.7740811,11.7889734 C17.0892446,11.7889734 17.2226443,12.0494783 17.2577528,12.4929991 L17.2649536,12.6184387 L17.2674271,12.758872 L17.2674271,13.4280735 C17.2674271,13.5148315 17.2647029,13.592503 17.2587625,13.6665852 L17.2473781,13.7757036 L17.2370089,13.8235108 L17.237,20.671 L18.2848542,20.6711027 C18.6004697,20.6711027 18.7867053,20.8868008 18.8527807,21.2461568 L18.8703681,21.371164 L18.8786967,21.4935422 L18.8795944,22.3102028 C18.8795944,22.7934864 18.7635147,23.1232802 18.4639597,23.2420757 L18.3685216,23.271327 L18.2747148,23.2801014 L13.5903042,23.2801014 C13.2413858,23.2801014 13.0510322,23.0125358 12.9997168,22.5760182 L12.9891542,22.4528531 L12.9854246,22.3102028 L12.9854246,21.6410013 C12.9854246,21.1577176 13.1015043,20.8279239 13.4010593,20.7091283 L13.4964974,20.6798771 L13.5903042,20.6711027 L14.638,20.671 L14.638,14.397 L13.48891,14.3979721 C13.2052629,14.3979721 13.0688444,14.1869631 13.0188031,13.8214347 L13.0052383,13.6939464 L12.9980375,13.5685068 L12.995564,13.4280735 L12.995564,12.758872 C12.995564,12.2739694 13.0665666,11.9681194 13.3144225,11.8366759 L13.4037365,11.7993145 L13.48891,11.7889734 L16.7740811,11.7889734 Z M16.3076679,7.4391635 C16.8265006,7.4391635 17.1665964,7.69361265 17.255348,8.16214976 L17.2722576,8.28372085 L17.2775665,8.4090621 L17.2775665,9.11882129 C17.2775665,9.63765398 17.0231174,9.97774971 16.5545803,10.0665014 L16.4330092,10.083411 L16.3076679,10.0887199 L15.5674905,10.0887199 C15.0504247,10.0887199 14.7181484,9.84370296 14.6238636,9.37939899 L14.6052813,9.25876941 L14.5975919,9.12896071 L14.5975919,8.4090621 C14.5975919,7.89022942 14.852041,7.55013369 15.3205782,7.461382 L15.4421492,7.44447244 L15.5674905,7.4391635 L16.3076679,7.4391635 Z"></path>
            </g>
        </g>
    </g>
</svg>