<?xml version="1.0" encoding="UTF-8"?>
<svg width="32px" height="32px" viewBox="0 0 32 32" version="1.1" xmlns="http://www.w3.org/2000/svg" xmlns:xlink="http://www.w3.org/1999/xlink">
    <title>info-circle-alt</title>
    <g id="🧠-Symbols" stroke="none" stroke-width="1" fill="none" fill-rule="evenodd">
        <g id="info-circle-alt" fill="#333333">
            <rect id="boundbox" opacity="0" x="0" y="0" width="32" height="32"></rect>
            <g fill-rule="nonzero" id="Shape">
                <path d="M16,0 C7.16856781,0 0,7.16856781 0,16 C0,24.8314322 7.16856781,32 16,32 C24.8314322,32 32,24.8314322 32,16 C32,7.16856781 24.8314322,0 16,0 Z M15.0975919,8.6590621 C15.0975919,8.18250951 15.3409379,7.9391635 15.8174905,7.9391635 L16.5576679,7.9391635 C17.0342205,7.9391635 17.2775665,8.18250951 17.2775665,8.6590621 L17.2775665,9.36882129 C17.2775665,9.84537389 17.0342205,10.0887199 16.5576679,10.0887199 L15.8174905,10.0887199 C15.3409379,10.0887199 15.1077313,9.85551331 15.0975919,9.37896071 L15.0975919,8.6590621 Z M18.8795944,22.5602028 C18.8795944,23.0367554 18.7579214,23.2801014 18.5247148,23.2801014 L16.5171103,23.2801014 L15.8479087,23.2801014 L13.8403042,23.2801014 C13.6070976,23.2801014 13.4854246,23.0367554 13.4854246,22.5602028 L13.4854246,21.8910013 C13.4854246,21.4144487 13.6070976,21.1711027 13.8403042,21.1711027 L15.1381496,21.1711027 L15.1381496,14.3979721 L13.73891,14.3979721 C13.5766793,14.3979721 13.495564,14.1546261 13.495564,13.6780735 L13.495564,13.008872 C13.495564,12.5323194 13.5766793,12.2889734 13.73891,12.2889734 L15.8580482,12.2889734 L16.5272497,12.2889734 L17.0240811,12.2889734 C17.1863118,12.2889734 17.2674271,12.5323194 17.2674271,13.008872 L17.2674271,13.6780735 C17.2674271,13.8403042 17.2572877,13.9619772 17.2370089,14.0735108 L17.2370089,21.1711027 L18.5348542,21.1711027 C18.7680608,21.1711027 18.8897338,21.4043093 18.8795944,21.8808619 L18.8795944,22.5602028 L18.8795944,22.5602028 Z"></path>
            </g>
        </g>
    </g>
</svg>