<?xml version="1.0" encoding="UTF-8"?>
<svg width="32px" height="32px" viewBox="0 0 32 32" version="1.1" xmlns="http://www.w3.org/2000/svg" xmlns:xlink="http://www.w3.org/1999/xlink">
    <title>3EC7BB90-2C36-455A-8B7C-973846C96B1F</title>
    <g id="🧠-Symbols" stroke="none" stroke-width="1" fill="none" fill-rule="evenodd">
        <g id="icon-alert-informative">
            <g>
                <rect id="boundbox" fill="#FFFFFF" opacity="0" x="0" y="0" width="32" height="32"></rect>
                <path d="M16,2 C8.26855645,2 2,8.27081452 2,16 C2,23.7337016 8.26855645,30 16,30 C23.7314435,30 30,23.7337016 30,16 C30,8.27081452 23.7314435,2 16,2 Z M16,8.20967742 C17.3094516,8.20967742 18.3709677,9.27119355 18.3709677,10.5806452 C18.3709677,11.8900968 17.3094516,12.9516129 16,12.9516129 C14.6905484,12.9516129 13.6290323,11.8900968 13.6290323,10.5806452 C13.6290323,9.27119355 14.6905484,8.20967742 16,8.20967742 Z M19.1612903,22.5483871 C19.1612903,22.9224919 18.8579758,23.2258065 18.483871,23.2258065 L13.516129,23.2258065 C13.1420242,23.2258065 12.8387097,22.9224919 12.8387097,22.5483871 L12.8387097,21.1935484 C12.8387097,20.8194435 13.1420242,20.516129 13.516129,20.516129 L14.1935484,20.516129 L14.1935484,16.9032258 L13.516129,16.9032258 C13.1420242,16.9032258 12.8387097,16.5999113 12.8387097,16.2258065 L12.8387097,14.8709677 C12.8387097,14.4968629 13.1420242,14.1935484 13.516129,14.1935484 L17.1290323,14.1935484 C17.5031371,14.1935484 17.8064516,14.4968629 17.8064516,14.8709677 L17.8064516,20.516129 L18.483871,20.516129 C18.8579758,20.516129 19.1612903,20.8194435 19.1612903,21.1935484 L19.1612903,22.5483871 Z" id="Shape" fill="#00BDE3"></path>
            </g>
        </g>
    </g>
</svg>