<svg width="14" height="14" viewBox="0 0 14 14" fill="none" xmlns="http://www.w3.org/2000/svg">
<rect opacity="0.01" width="14" height="14" fill="white"/>
<path d="M10.7744 3.35006L11.0395 3.61524C11.723 4.29866 11.723 5.40669 11.0395 6.09011L9.49275 7.63691C8.80933 8.32033 7.70129 8.32033 7.01787 7.63691L6.90738 7.52642C6.73653 7.35556 6.45952 7.35556 6.28866 7.52642V7.52642C6.11781 7.69727 6.11781 7.97428 6.28866 8.14513L6.39916 8.25563C7.42428 9.28075 9.08634 9.28075 10.1115 8.25563L11.6583 6.70883C12.6834 5.6837 12.6834 4.02165 11.6583 2.99652L11.3931 2.73134C10.368 1.70622 8.7059 1.70622 7.68078 2.73134L6.44334 3.96878C6.27249 4.13964 6.27249 4.41665 6.44334 4.5875V4.5875C6.61419 4.75835 6.8912 4.75835 7.06206 4.5875L8.2995 3.35006C8.98291 2.66665 10.091 2.66664 10.7744 3.35006Z" fill="#2D72C7"/>
<path d="M3.61478 11.04L3.34942 10.7746C2.666 10.0912 2.666 8.98318 3.34942 8.29976L4.89621 6.75297C5.57963 6.06955 6.68767 6.06955 7.37109 6.75297L7.50377 6.88565C7.67463 7.05651 7.95164 7.05651 8.12249 6.88565V6.88565C8.29335 6.7148 8.29335 6.43779 8.12249 6.26693L7.98981 6.13425C6.96468 5.10912 5.30262 5.10912 4.27749 6.13425L2.7307 7.68104C1.70557 8.70617 1.70557 10.3682 2.7307 11.3934L2.99606 11.6587C4.02119 12.6838 5.68325 12.6838 6.70837 11.6587L7.94581 10.4213C8.11667 10.2504 8.11667 9.97342 7.94581 9.80256V9.80256C7.77496 9.63171 7.49795 9.63171 7.32709 9.80256L6.08966 11.04C5.40624 11.7234 4.2982 11.7234 3.61478 11.04Z" fill="#2D72C7"/>
</svg>
