<?xml version="1.0" encoding="UTF-8"?>
<svg width="32px" height="32px" viewBox="0 0 32 32" version="1.1" xmlns="http://www.w3.org/2000/svg" xmlns:xlink="http://www.w3.org/1999/xlink">
    <title>loading</title>
    <g id="🧠-Symbols" stroke="none" stroke-width="1" fill="none" fill-rule="evenodd">
        <g id="loading" fill="#333333">
            <rect id="boundbox" opacity="0" x="0" y="0" width="32" height="32"></rect>
            <g transform="translate(1.000000, 1.000000)" fill-rule="nonzero" id="Path">
                <path d="M15,-0.5 C6.42385763,-0.5 -0.5,6.42385763 -0.5,15 C-0.5,23.5761424 6.42385763,30.5 15,30.5 C23.5761424,30.5 30.5,23.5761424 30.5,15 C30.5,12.9772186 30.1034166,10.914985 29.3660023,9.01877687 C28.9523623,8.05288328 27.9488334,7.61656633 27.0763932,8.0527864 C26.1528833,8.44763766 25.7165663,9.45116665 26.1527864,10.3236068 C26.7952265,11.7936784 27.1,13.3175459 27.1,15 C27.1,21.6238576 21.6238576,27.1 15,27.1 C8.37614237,27.1 2.9,21.6238576 2.9,15 C2.9,8.39119027 8.36118377,2.9 14.9,2.9 C16.4867493,2.9 17.9759015,3.16927619 19.2693335,3.71177299 L19.5885573,3.85309157 C20.4195694,4.2688017 21.4204383,3.87715734 21.8472136,3.0236068 C22.2688017,2.18043059 21.8771573,1.17956167 21.0236068,0.752786405 C19.1594785,-0.0762794288 17.0938407,-0.5 15,-0.5 Z"></path>
            </g>
        </g>
    </g>
</svg>