<?xml version="1.0" encoding="UTF-8"?>
<svg width="32px" height="32px" viewBox="0 0 32 32" version="1.1" xmlns="http://www.w3.org/2000/svg" xmlns:xlink="http://www.w3.org/1999/xlink">
    <title>lock</title>
    <g id="🧠-Symbols" stroke="none" stroke-width="1" fill="none" fill-rule="evenodd">
        <g id="lock" fill="#333333">
            <rect id="boundbox" opacity="0" x="0" y="0" width="32" height="32"></rect>
            <g transform="translate(4.000000, 3.000000)" fill-rule="nonzero" id="lock-alt">
                <path d="M21.4,26.9 C22.8,26.9 24,25.8 24,24.4 L24,14.3 C24,12.9 22.8,11.8 21.4,11.8 L20.1,11.8 L20.1,8 C20.1,3.6 16.4,-1.77635684e-15 12,-1.77635684e-15 C7.6,-1.77635684e-15 3.9,3.6 3.9,8 L3.9,11.8 L2.6,11.8 C1.2,11.8 0,12.9 0,14.3 L0,24.4 C0,25.8 1.2,26.9 2.6,26.9 L21.4,26.9 Z M16.8,11.7 L7.2,11.7 L7.2,7.9 C7.2,5.3 9.4,3.2 12,3.2 C14.6,3.2 16.8,5.3 16.8,7.9 L16.8,11.7 Z M12,22.7 C10.8,22.7 9.9,21.8 9.9,20.6 L9.9,18.1 C9.9,16.9 10.9,16 12,16 C13.1,16 14.1,16.9 14.1,18.1 L14.1,20.6 C14.1,21.7 13.2,22.7 12,22.7 Z"></path>
            </g>
        </g>
    </g>
</svg>