<?xml version="1.0" encoding="UTF-8"?>
<svg width="32px" height="32px" viewBox="0 0 32 32" version="1.1" xmlns="http://www.w3.org/2000/svg" xmlns:xlink="http://www.w3.org/1999/xlink">
    <title>BF4BCC54-3F85-4EE2-B374-57D75B9A245E</title>
    <g id="🧠-Symbols" stroke="none" stroke-width="1" fill="none" fill-rule="evenodd">
        <g id="icon_map">
            <g>
                <rect id="boundbox" fill="#FFFFFF" opacity="0" x="0" y="0" width="32" height="32"></rect>
                <g id="icon-element" transform="translate(2.000000, 2.000000)" stroke="#112E51" stroke-linecap="round" stroke-linejoin="round" stroke-width="1.5">
                    <path d="M10.4533333,14.4132942 L8.4,14.9251222 L0,12.1333333 L0,25.1616813 L8.4,28 L19.6,25.1616813 L28,27.488172 L28,14.9251222 L22.4,13.0639296 M8.4,14.9251222 L8.4,28 M19.6,16.8328446 L19.6,25.1616813" id="Shape"></path>
                    <path d="M14,1.50990331e-13 C10.3917396,1.50990331e-13 7.46666667,2.92507297 7.46666667,6.53333333 C7.46666667,12.4133333 14,18.6666667 14,18.6666667 C14,18.6666667 20.5333333,12.4133333 20.5333333,6.53333333 C20.5333333,2.92507297 17.6082604,1.50990331e-13 14,1.50990331e-13 Z" id="Shape"></path>
                    <circle id="Oval" cx="14" cy="6.53333333" r="2.8"></circle>
                </g>
            </g>
        </g>
    </g>
</svg>