<?xml version="1.0" encoding="UTF-8"?>
<svg width="32px" height="32px" viewBox="0 0 32 32" version="1.1" xmlns="http://www.w3.org/2000/svg" xmlns:xlink="http://www.w3.org/1999/xlink">
    <title>maps</title>
    <g id="🧠-Symbols" stroke="none" stroke-width="1" fill="none" fill-rule="evenodd">
        <g id="maps" fill="#333333">
            <rect id="boundbox" opacity="0" x="0" y="0" width="32" height="32"></rect>
            <g transform="translate(0.450000, 0.500000)" fill-rule="nonzero">
                <g id="Shape_00000012438365410499657030000015512812771234506942_" transform="translate(0.000000, 12.634315)">
                    <path d="M9.7,18.3656854 C9.6,18.3656854 9.5,18.3656854 9.4,18.2656854 L0.7,15.3656854 C0.3,15.2656854 -1.77635684e-15,14.8656854 -1.77635684e-15,14.4656854 L-1.77635684e-15,0.965685425 C-1.77635684e-15,0.665685425 0.2,0.365685425 0.4,0.165685425 C0.7,-0.0343145751 1,-0.0343145751 1.3,0.0656854249 L9.7,2.86568542 L11.5,2.36568542 C12,2.26568542 12.6,2.56568542 12.7,3.06568542 C12.8,3.56568542 12.5,4.16568542 12,4.26568542 L10.6,4.56568542 L10.6,16.0656854 L20.2,13.6656854 L20.2,5.86568542 C20.2,5.26568542 20.6,4.86568542 21.2,4.86568542 C21.8,4.86568542 22.2,5.26568542 22.2,5.86568542 L22.2,13.7656854 L28.9,15.6656854 L28.9,4.66568542 L23.9,2.86568542 C23.4,2.66568542 23.1,2.16568542 23.3,1.56568542 C23.5,1.06568542 24,0.765685425 24.6,0.965685425 L30.4,2.86568542 C30.8,2.96568542 31.1,3.36568542 31.1,3.76568542 L31.1,16.7656854 C31.1,17.0656854 31,17.3656854 30.7,17.5656854 C30.5,17.7656854 30.1,17.8656854 29.8,17.7656854 L21.4,15.4656854 L10.1,18.3656854 C9.9,18.3656854 9.8,18.3656854 9.7,18.3656854 Z M2,13.6656854 L8.7,15.9656854 L8.7,4.56568542 L2,2.36568542 L2,13.6656854 Z" id="Shape"></path>
                </g>
                <g id="Shape_00000152983226296583250410000012560279672278254526_" transform="translate(7.700000, 0.000000)">
                    <path d="M7.8,21.3 C7.6,21.3 7.3,21.2 7.1,21 C6.8,20.8 0,14.2 0,7.8 C0,3.5 3.5,-8.8817842e-16 7.8,-8.8817842e-16 C12.1,-8.8817842e-16 15.6,3.5 15.6,7.8 C15.6,14.2 8.8,20.8 8.5,21.1 C8.3,21.2 8,21.3 7.8,21.3 Z M7.8,2 C4.6,2 2,4.6 2,7.8 C2,12.3 6.1,17.1 7.8,18.9 C9.5,17.1 13.6,12.2 13.6,7.8 C13.6,4.6 11,2 7.8,2 Z" id="Shape"></path>
                </g>
                <g id="Oval_00000034064968370829800140000017607829703983237543_" transform="translate(12.600000, 4.900000)">
                    <circle id="Oval" cx="2.9" cy="2.9" r="2.9"></circle>
                </g>
            </g>
        </g>
    </g>
</svg>