<?xml version="1.0" encoding="UTF-8"?>
<svg width="32px" height="32px" viewBox="0 0 32 32" version="1.1" xmlns="http://www.w3.org/2000/svg" xmlns:xlink="http://www.w3.org/1999/xlink">
    <title>menu-meatballs</title>
    <g id="🧠-Symbols" stroke="none" stroke-width="1" fill="none" fill-rule="evenodd">
        <g id="menu-meatballs" fill="#333333">
            <rect id="boundbox" opacity="0" x="0" y="0" width="32" height="32"></rect>
            <g transform="translate(1.800000, 12.800000)" fill-rule="nonzero" id="Group">
                <g transform="translate(22.000000, 0.000000)">
                    <path d="M3.2,5.4 C2,5.4 1,4.4 1,3.2 C1,2 2,1 3.2,1 C4.4,1 5.4,2 5.4,3.2 C5.4,4.4 4.4,5.4 3.2,5.4 Z" id="Path"></path>
                    <path d="M3.2,2 C3.9,2 4.4,2.5 4.4,3.2 C4.4,3.9 3.9,4.4 3.2,4.4 C2.5,4.4 2,3.9 2,3.2 C2,2.5 2.6,2 3.2,2 M3.2,0 C1.4,0 0,1.4 0,3.2 C0,5 1.4,6.4 3.2,6.4 C5,6.4 6.4,5 6.4,3.2 C6.4,1.4 5,0 3.2,0 L3.2,0 Z" id="Shape"></path>
                </g>
                <g transform="translate(11.000000, 0.000000)">
                    <path d="M3.2,5.4 C2,5.4 1,4.4 1,3.2 C1,2 2,1 3.2,1 C4.4,1 5.4,2 5.4,3.2 C5.4,4.4 4.4,5.4 3.2,5.4 Z" id="Path"></path>
                    <path d="M3.2,2 C3.9,2 4.4,2.5 4.4,3.2 C4.4,3.9 3.9,4.4 3.2,4.4 C2.5,4.4 2,3.9 2,3.2 C2,2.5 2.5,2 3.2,2 M3.2,0 C1.4,0 0,1.4 0,3.2 C0,5 1.4,6.4 3.2,6.4 C5,6.4 6.4,5 6.4,3.2 C6.4,1.4 5,0 3.2,0 L3.2,0 Z" id="Shape"></path>
                </g>
                <g>
                    <path d="M3.2,5.4 C2,5.4 1,4.4 1,3.2 C1,2 2,1 3.2,1 C4.4,1 5.4,2 5.4,3.2 C5.4,4.4 4.4,5.4 3.2,5.4 Z" id="Path"></path>
                    <path d="M3.2,2 C3.9,2 4.4,2.5 4.4,3.2 C4.4,3.9 3.8,4.4 3.2,4.4 C2.6,4.4 2,3.9 2,3.2 C2,2.5 2.5,2 3.2,2 M3.2,0 C1.4,0 -8.8817842e-16,1.4 -8.8817842e-16,3.2 C-8.8817842e-16,5 1.4,6.4 3.2,6.4 C5,6.4 6.4,5 6.4,3.2 C6.4,1.4 4.9,0 3.2,0 L3.2,0 Z" id="Shape"></path>
                </g>
            </g>
        </g>
    </g>
</svg>