<?xml version="1.0" encoding="UTF-8"?>
<svg width="32px" height="32px" viewBox="0 0 32 32" version="1.1" xmlns="http://www.w3.org/2000/svg" xmlns:xlink="http://www.w3.org/1999/xlink">
    <title>menu-hamburger-alt</title>
    <g id="🧠-Symbols" stroke="none" stroke-width="1" fill="none" fill-rule="evenodd">
        <g id="menu-hamburger-alt" fill="#333333">
            <rect id="boundbox" opacity="0" x="0" y="0" width="32" height="32"></rect>
            <g id="menu-hamburger" transform="translate(3.900000, 6.800000)" fill-rule="nonzero">
                <path d="M23,-0.25 L1.2,-0.25 C0.361928813,-0.25 -0.25,0.361928813 -0.25,1.2 C-0.25,2.00803401 0.42972869,2.65 1.2,2.65 L23,2.65 C23.7702713,2.65 24.45,2.00803401 24.45,1.2 C24.45,0.361928813 23.8380712,-0.25 23,-0.25 Z" id="Path"></path>
                <path d="M23,7.75 L1.2,7.75 C0.361928813,7.75 -0.25,8.36192881 -0.25,9.2 C-0.25,10.008034 0.42972869,10.65 1.2,10.65 L23,10.65 C23.7702713,10.65 24.45,10.008034 24.45,9.2 C24.45,8.36192881 23.8380712,7.75 23,7.75 Z" id="Path"></path>
                <path d="M23,15.75 L1.2,15.75 C0.361928813,15.75 -0.25,16.3619288 -0.25,17.2 C-0.25,18.008034 0.42972869,18.65 1.2,18.65 L23,18.65 C23.7702713,18.65 24.45,18.008034 24.45,17.2 C24.45,16.3619288 23.8380712,15.75 23,15.75 Z" id="Path"></path>
            </g>
        </g>
    </g>
</svg>