<?xml version="1.0" encoding="UTF-8"?>
<svg width="32px" height="32px" viewBox="0 0 32 32" version="1.1" xmlns="http://www.w3.org/2000/svg" xmlns:xlink="http://www.w3.org/1999/xlink">
    <title>minus-circle</title>
    <g id="🧠-Symbols" stroke="none" stroke-width="1" fill="none" fill-rule="evenodd">
        <g id="minus-circle" fill="#333333">
            <rect id="boundbox" opacity="0" x="0" y="0" width="32" height="32"></rect>
            <g transform="translate(0.250000, 0.250000)" fill-rule="nonzero">
                <path d="M15.75,0 C24.4435211,0 31.5,7.05647888 31.5,15.75 C31.5,24.4435211 24.4435211,31.5 15.75,31.5 C7.05647888,31.5 0,24.4435211 0,15.75 C0,7.05647888 7.05647888,0 15.75,0 Z M15.75,2.50380228 C8.44257055,2.50380228 2.50380228,8.44257055 2.50380228,15.75 C2.50380228,23.0574294 8.44257055,28.9961977 15.75,28.9961977 C23.0574294,28.9961977 28.9961977,23.0574294 28.9961977,15.75 C28.9961977,8.44257055 23.0574294,2.50380228 15.75,2.50380228 Z" id="Combined-Shape"></path>
                <path d="M24.75,14.5 L6.75,14.5 C6.06192881,14.5 5.5,15.0619288 5.5,15.75 C5.5,16.4380712 6.06192881,17 6.75,17 L24.75,17 C25.4380712,17 26,16.4380712 26,15.75 C26,15.0619288 25.4380712,14.5 24.75,14.5 Z" id="Path"></path>
            </g>
        </g>
    </g>
</svg>