<?xml version="1.0" encoding="UTF-8"?>
<svg width="32px" height="32px" viewBox="0 0 32 32" version="1.1" xmlns="http://www.w3.org/2000/svg" xmlns:xlink="http://www.w3.org/1999/xlink">
    <title>moe</title>
    <g id="🧠-Symbols" stroke="none" stroke-width="1" fill="none" fill-rule="evenodd">
        <g id="moe" fill="#333333">
            <rect id="boundbox" opacity="0" x="0" y="0" width="32" height="32"></rect>
            <g transform="translate(0.800000, 0.480000)" fill-rule="nonzero" id="Path">
                <path d="M6,14.54 C6,15.14 6.5,15.74 7.2,15.74 C7.9,15.74 8.4,15.24 8.4,14.54 L8.4,9.74 L13.1,9.74 C13.7,9.74 14.3,9.24 14.3,8.54 C14.3,7.84 13.8,7.34 13.1,7.34 L8.3,7.34 L8.3,2.74 C8.3,2.04 7.8,1.54 7.1,1.54 C6.4,1.54 6,2.04 6,2.74 L6,7.44 L1.2,7.44 C0.6,7.44 -8.8817842e-16,7.94 -8.8817842e-16,8.64 C-8.8817842e-16,9.34 0.5,9.84 1.2,9.84 L5.9,9.84 L5.9,14.54 L6,14.54 Z"></path>
                <path d="M29.2,22.74 L18.2,22.74 C17.6,22.74 17,23.24 17,23.94 C17,24.64 17.5,25.14 18.2,25.14 L29.2,25.14 C29.8,25.14 30.4,24.64 30.4,23.94 C30.4,23.24 29.8,22.74 29.2,22.74 Z"></path>
                <path d="M27.4,0.24 C26.9,-0.16 26.1,-0.06 25.8,0.54 L4.9,29.24 C4.5,29.74 4.6,30.54 5.2,30.84 C5.4,31.04 5.6,31.04 5.9,31.04 C6.3,31.04 6.6,30.84 6.9,30.54 L27.7,1.84 C28,1.34 27.9,0.64 27.4,0.24 Z"></path>
            </g>
        </g>
    </g>
</svg>