<svg width="32" height="32" viewBox="0 0 32 32" fill="none" xmlns="http://www.w3.org/2000/svg">
<path d="M12.5 7C11.375 7 10.5 7.88732 10.5 9.02817C10.5 10.169 11.375 11.0563 12.5 11.0563C13.625 11.0563 14.5 10.169 14.5 9.02817C14.5 7.88732 13.625 7 12.5 7Z" fill="#333333"/>
<path d="M12.5 13.9718C11.375 13.9718 10.5 14.8592 10.5 16C10.5 17.1408 11.375 18.0282 12.5 18.0282C13.625 18.0282 14.5 17.1408 14.5 16C14.5 14.8592 13.625 13.9718 12.5 13.9718Z" fill="#333333"/>
<path d="M12.5 20.9437C11.375 20.9437 10.5 21.831 10.5 22.9718C10.5 24.1127 11.375 25 12.5 25C13.625 25 14.5 24.1127 14.5 22.9718C14.5 21.8944 13.625 20.9437 12.5 20.9437Z" fill="#333333"/>
<path d="M19.5 7C18.375 7 17.5 7.88732 17.5 9.02817C17.5 10.169 18.375 11.0563 19.5 11.0563C20.625 11.0563 21.5 10.169 21.5 9.02817C21.5 7.88732 20.625 7 19.5 7Z" fill="#333333"/>
<path d="M19.5 13.9718C18.375 13.9718 17.5 14.8592 17.5 16C17.5 17.1408 18.375 18.0282 19.5 18.0282C20.625 18.0282 21.5 17.1408 21.5 16C21.5 14.8592 20.625 13.9718 19.5 13.9718Z" fill="#333333"/>
<path d="M19.5 20.9437C18.375 20.9437 17.5 21.831 17.5 22.9718C17.5 24.1127 18.375 25 19.5 25C20.625 25 21.5 24.1127 21.5 22.9718C21.5 21.8944 20.625 20.9437 19.5 20.9437Z" fill="#333333"/>
</svg>
