<?xml version="1.0" encoding="UTF-8"?>
<svg width="32px" height="32px" viewBox="0 0 32 32" version="1.1" xmlns="http://www.w3.org/2000/svg" xmlns:xlink="http://www.w3.org/1999/xlink">
    <title>1033E571-344E-4161-AD06-4DDC4491B8B5</title>
    <g id="🧠-Symbols" stroke="none" stroke-width="1" fill="none" fill-rule="evenodd">
        <g id="icon_my-list">
            <g>
                <rect id="boundbox" fill="#FFFFFF" opacity="0" x="0" y="0" width="32" height="32"></rect>
                <path d="M28.1874352,29.8749955 C29.7407381,29.8749955 30.9999285,28.6158051 30.9999285,27.0625022 L30.9999285,12.062538 C30.9999285,10.5092351 29.7407381,9.2500447 28.1874352,9.2500447 L21.6249508,9.2500447 L21.6249508,5.03130476 C21.6249508,4.25436722 20.9956417,3.62505811 20.2187042,3.62505811 L11.7812243,3.62505811 C11.0042868,3.62505811 10.3749776,4.25436722 10.3749776,5.03130476 L10.3749776,9.2500447 L3.81249329,9.2500447 C2.25919042,9.2500447 1,10.5092351 1,12.062538 L1,27.0625022 C1,28.6158051 2.25919042,29.8749955 3.81249329,29.8749955 L28.1874352,29.8749955 Z M19.7499553,9.2500447 L12.2499732,9.2500447 L12.2499732,5.50005364 L19.7499553,5.50005364 L19.7499553,9.2500447 Z M29.1249329,16.7500268 L2.87499553,16.7500268 L2.87499553,12.062538 C2.87499553,11.545724 3.29567934,11.1250402 3.81249329,11.1250402 L28.1874352,11.1250402 C28.7042491,11.1250402 29.1249329,11.545724 29.1249329,12.062538 L29.1249329,16.7500268 Z M28.1874352,28 L3.81249329,28 C3.29567934,28 2.87499553,27.5793162 2.87499553,27.0625022 L2.87499553,18.6250224 L12.2499732,18.6250224 L12.2499732,18.9687668 C12.2499732,19.7451321 12.8798545,19.3750134 13.6562198,19.3750134 L18.3437086,19.3750134 C19.120074,19.3750134 19.7499553,19.7451321 19.7499553,18.9687668 L19.7499553,18.6250224 L29.1249329,18.6250224 L29.1249329,27.0625022 C29.1249329,27.5793162 28.7042491,28 28.1874352,28 Z" id="b" fill="#008392" fill-rule="nonzero"></path>
                <rect id="Rectangle" fill="#112E51" x="11" y="16" width="10" height="4" rx="1"></rect>
            </g>
        </g>
    </g>
</svg>