<?xml version="1.0" encoding="UTF-8"?>
<svg width="32px" height="32px" viewBox="0 0 32 32" version="1.1" xmlns="http://www.w3.org/2000/svg" xmlns:xlink="http://www.w3.org/1999/xlink">
    <title>_Icons/cell-notes</title>
    <g id="_Icons/cell-notes" stroke="none" stroke-width="1" fill="none" fill-rule="evenodd">
        <path d="M23.3749562,30.4999917 C24.8241715,30.4999917 25.9999499,29.3242132 25.9999499,27.8749979 L25.9999499,9.71334383 C25.9999499,9.01880355 25.7210657,8.34615959 25.2288794,7.85397326 L20.6405877,3.26568159 C20.1484014,2.77349526 19.4812048,2.49461104 18.7866645,2.49461104 L7.62499374,2.49461104 C6.17577845,2.50005841 5,3.67583686 5,5.12505215 L5,27.8749979 C5,29.3242132 6.17577845,30.4999917 7.62499374,30.4999917 L23.3749562,30.4999917 Z M23.3749562,28.7499958 L7.62499374,28.7499958 C7.14375557,28.7499958 6.74999583,28.3562361 6.74999583,27.8749979 L6.74999583,5.12505215 C6.74999583,4.64381398 7.14375557,4.25005424 7.62499374,4.25005424 L17.2499708,4.25005424 L17.2499708,9.93754068 C17.2499708,10.664872 17.8351363,11.2500376 18.5624677,11.2500376 L24.2499541,11.2500376 L24.2499541,27.8749979 C24.2499541,28.3562361 23.8561944,28.7499958 23.3749562,28.7499958 Z M24.2226104,9.50004172 L18.9999666,9.50004172 L18.9999666,4.27739793 C19.1530806,4.31568976 19.289799,4.39222004 19.4046745,4.50709556 L23.9929128,9.09533383 C24.1077883,9.21020935 24.1843186,9.34692777 24.2226104,9.50004172 Z M20.093714,18.500025 C20.4546293,18.500025 20.7499624,18.2046919 20.7499624,17.8437766 L20.7499624,17.4062776 C20.7499624,17.0453624 20.4546293,16.7500292 20.093714,16.7500292 L10.9062359,16.7500292 C10.5453206,16.7500292 10.2499875,17.0453624 10.2499875,17.4062776 L10.2499875,17.8437766 C10.2499875,18.2046919 10.5453206,18.500025 10.9062359,18.500025 L20.093714,18.500025 Z M20.093714,23.0000167 C20.4546293,23.0000167 20.7499624,22.7046835 20.7499624,22.3437683 L20.7499624,21.9062693 C20.7499624,21.545354 20.4546293,21.2500209 20.093714,21.2500209 L10.9062359,21.2500209 C10.5453206,21.2500209 10.2499875,21.545354 10.2499875,21.9062693 L10.2499875,22.3437683 C10.2499875,22.7046835 10.5453206,23.0000167 10.9062359,23.0000167 L20.093714,23.0000167 Z M23.3749562,30.4999917 C24.8241715,30.4999917 25.9999499,29.3242132 25.9999499,27.8749979 L25.9999499,9.71334383 C25.9999499,9.01880355 25.7210657,8.34615959 25.2288794,7.85397326 L20.6405877,3.26568159 C20.1484014,2.77349526 19.4812048,2.49461104 18.7866645,2.49461104 L7.62499374,2.49461104 C6.17577845,2.50005841 5,3.67583686 5,5.12505215 L5,27.8749979 C5,29.3242132 6.17577845,30.4999917 7.62499374,30.4999917 L23.3749562,30.4999917 Z M23.3749562,28.7499958 L7.62499374,28.7499958 C7.14375557,28.7499958 6.74999583,28.3562361 6.74999583,27.8749979 L6.74999583,5.12505215 C6.74999583,4.64381398 7.14375557,4.25005424 7.62499374,4.25005424 L17.2499708,4.25005424 L17.2499708,9.93754068 C17.2499708,10.664872 17.8351363,11.2500376 18.5624677,11.2500376 L24.2499541,11.2500376 L24.2499541,27.8749979 C24.2499541,28.3562361 23.8561944,28.7499958 23.3749562,28.7499958 Z M24.2226104,9.50004172 L18.9999666,9.50004172 L18.9999666,4.27739793 C19.1530806,4.31568976 19.289799,4.39222004 19.4046745,4.50709556 L23.9929128,9.09533383 C24.1077883,9.21020935 24.1843186,9.34692777 24.2226104,9.50004172 Z" id="icon-cellnotes" fill="#008392" fill-rule="nonzero"></path>
    </g>
</svg>