<?xml version="1.0" encoding="UTF-8"?>
<svg width="32px" height="32px" viewBox="0 0 32 32" version="1.1" xmlns="http://www.w3.org/2000/svg" xmlns:xlink="http://www.w3.org/1999/xlink">
    <title>notes</title>
    <g id="🧠-Symbols" stroke="none" stroke-width="1" fill="none" fill-rule="evenodd">
        <g id="notes" fill="#333333">
            <rect id="boundbox" opacity="0" x="0" y="0" width="32" height="32"></rect>
            <g transform="translate(4.300000, 1.000000)" fill-rule="nonzero" id="Shape">
                <path d="M20.4,30 C22,30 23.3,28.7 23.3,27.1 L23.3,8 C23.3,7.2 23,6.5 22.4,5.9 L17.3,0.8 C16.9,0.3 16.1,0 15.4,0 L3,0 C1.3,0 0,1.3 0,2.9 L0,27.1 C0,28.7 1.3,30 2.9,30 L20.4,30 Z M20.4,28.1 L3,28.1 C2.5,28.1 2,27.7 2,27.1 L2,2.9 C2,2.4 2.4,1.9 3,1.9 L13.7,1.9 L13.7,8.2 C13.7,9 14.4,9.7 15.2,9.7 L21.5,9.7 L21.5,27.1 C21.4,27.6 21,28.1 20.4,28.1 Z M21.4,7.8 L15.6,7.8 L15.6,2 C15.8,2 15.9,2.1 16,2.3 L21.1,7.4 C21.3,7.5 21.3,7.6 21.4,7.8 Z M16.8,16.7 C17.2,16.7 17.5,16.4 17.5,16 L17.5,15.5 C17.5,15.1 17.2,14.8 16.8,14.8 L6.6,14.8 C6.2,14.8 5.9,15.1 5.9,15.5 L5.9,16 C5.9,16.4 6.2,16.7 6.6,16.7 L16.8,16.7 Z M16.8,22.1 C17.2,22.1 17.5,21.8 17.5,21.4 L17.5,20.9 C17.5,20.5 17.2,20.2 16.8,20.2 L6.6,20.2 C6.2,20.2 5.9,20.5 5.9,20.9 L5.9,21.4 C5.9,21.8 6.2,22.1 6.6,22.1 L16.8,22.1 Z M20.4,30 C22,30 23.3,28.7 23.3,27.1 L23.3,8 C23.3,7.2 23,6.5 22.4,5.9 L17.3,0.8 C16.9,0.3 16.1,0 15.4,0 L3,0 C1.3,0 0,1.3 0,2.9 L0,27.1 C0,28.7 1.3,30 2.9,30 L20.4,30 Z M20.4,28.1 L3,28.1 C2.5,28.1 2,27.7 2,27.1 L2,2.9 C2,2.4 2.4,1.9 3,1.9 L13.7,1.9 L13.7,8.2 C13.7,9 14.4,9.7 15.2,9.7 L21.5,9.7 L21.5,27.1 C21.4,27.6 21,28.1 20.4,28.1 Z M21.4,7.8 L15.6,7.8 L15.6,2 C15.8,2 15.9,2.1 16,2.3 L21.1,7.4 C21.3,7.5 21.3,7.6 21.4,7.8 Z"></path>
                <path d="M15.4,0 L3,0 C1.3,0 0,1.3 0,2.9 C0,1.3 1.3,0 3,0 L15.4,0 C16.2,0 16.9,0.3 17.5,0.9 L22.5,6 C23,6.5 23.4,7.3 23.4,8.1 L23.4,27.2 L23.4,8 C23.4,7.2 23.1,6.5 22.5,5.9 L17.4,0.8 C16.9,0.3 16.1,0 15.4,0 L15.4,0 Z M13.6,2 L3,2 C2.5,2 2,2.4 2,3 C2,2.5 2.4,2 3,2 L13.6,2 L13.6,8.3 C13.6,9.1 14.3,9.8 15.1,9.8 L21.4,9.8 L21.4,27.2 L21.4,9.7 L15.1,9.7 C14.3,9.7 13.6,9 13.6,8.2 L13.6,2 L13.6,2 Z M15.6,2 C15.8,2 15.9,2.1 16,2.3 L21.1,7.4 C21.2,7.5 21.3,7.7 21.4,7.8 C21.4,7.6 21.3,7.5 21.1,7.4 L16,2.3 C15.9,2.1 15.8,2 15.6,2 L15.6,2 Z M15.6,2 L15.6,7.8 L21.4,7.8 L15.6,7.8 L15.6,2 L15.6,2 Z M2,2.9 L2,27.1 C2,27.6 2.4,28.1 3,28.1 L20.5,28.1 C21,28.1 21.5,27.7 21.5,27.1 C21.5,27.6 21.1,28.1 20.5,28.1 L3,28.1 C2.5,28.1 2,27.7 2,27.1 L2,2.9 L2,2.9 Z M0,2.9 L0,27.1 C0,28.7 1.3,30 2.9,30 L20.4,30 C22,30 23.3,28.7 23.3,27.1 C23.3,28.7 22,30 20.4,30 L3,30 C1.4,30 0.1,28.7 0.1,27.1 L0.1,2.9 L0,2.9 Z M16.8,14.7 L6.6,14.7 C6.2,14.7 5.9,15 5.9,15.4 L5.9,15.9 C5.9,16.3 6.2,16.6 6.6,16.6 L16.8,16.6 C17.2,16.6 17.5,16.3 17.5,15.9 L17.5,15.4 C17.5,15.1 17.2,14.7 16.8,14.7 L16.8,14.7 Z M16.8,20.1 L6.6,20.1 C6.2,20.1 5.9,20.4 5.9,20.8 L5.9,21.3 C5.9,21.7 6.2,22 6.6,22 L16.8,22 C17.2,22 17.5,21.7 17.5,21.3 L17.5,20.8 C17.5,20.5 17.2,20.1 16.8,20.1 L16.8,20.1 Z"></path>
            </g>
        </g>
    </g>
</svg>