<?xml version="1.0" encoding="UTF-8"?>
<svg width="32px" height="32px" viewBox="0 0 32 32" version="1.1" xmlns="http://www.w3.org/2000/svg" xmlns:xlink="http://www.w3.org/1999/xlink">
    <title>opacity</title>
    <g id="🧠-Symbols" stroke="none" stroke-width="1" fill="none" fill-rule="evenodd">
        <g id="opacity" fill="#333333">
            <rect id="boundbox" opacity="0" x="0" y="0" width="32" height="32"></rect>
            <g transform="translate(1.000000, 1.000000)" fill-rule="nonzero">
                <path d="M7,22.3 C3.3,20.4 1,16.5 1,12.3 C1,6.1 6.1,1 12.3,1 C16.4,1 20.3,3.4 22.3,7 C21.8,6.8 21.2,6.6 20.7,6.4 L17.1,5.5 L17.6,6 C16.8,6 16.1,6.1 15.3,6.2 L13.5,6.6 L13.6,6.7 L13.3,6.8 C12.7,7 12.1,7.3 11.6,7.7 L10.5,8.4 L10.5,8.4 L10.1,8.8 C9.6,9.2 9.2,9.6 8.8,10.1 L8.4,10.5 L8.4,10.5 L7.7,11.6 C7.4,12.1 7.1,12.7 6.8,13.3 L6.7,13.6 L6.6,13.5 L6.2,15.3 C6,16 6,16.8 6,17.6 L5.5,17.1 L6.4,20.7 C6.6,21.2 6.8,21.7 7,22.3 L7,22.3 Z" id="Path"></path>
                <path d="M12.3,2 C15.1,2 17.8,3.2 19.7,5.2 L13.8,3.7 L15.5,5.4 C15.4,5.4 15.3,5.4 15.2,5.5 L14.3,5.7 L14.3,5.7 L14,5.6 L11.5,6.1 L11.9,6.5 C11.6,6.6 11.4,6.8 11.1,6.9 L11,7 L10.9,6.9 L10.3,7.4 L9,8.3 L9.2,8.5 C9,8.7 8.7,9 8.5,9.2 L8.3,9 L7.5,10.3 L7,10.9 L7,11 L6.9,11.1 C6.7,11.4 6.6,11.6 6.5,11.9 L6.1,11.5 L5.6,14 L5.5,14.2 L5.5,14.2 L5.3,15.1 C5.3,15.2 5.3,15.3 5.2,15.4 L3.6,13.8 L5.1,19.7 C3.1,17.8 1.9,15.1 1.9,12.3 C2,6.6 6.6,2 12.3,2 M12.3,0 C5.5,0 0,5.5 0,12.3 C0,16.9 2.6,21.2 6.7,23.3 C8.7,27.3 12.9,30 17.7,30 C24.5,30 30,24.5 30,17.7 C30,12.9 27.3,8.8 23.3,6.7 C21.2,2.6 16.9,0 12.3,0 L12.3,0 Z M22.7,14.5 L15.5,7.3 C16.2,7.2 16.9,7.1 17.6,7.1 L22.8,12.3 C22.9,13 22.8,13.8 22.7,14.5 L22.7,14.5 Z M22.6,9.6 L20.4,7.4 C20.9,7.6 21.5,7.8 22,8 C22.2,8.5 22.4,9.1 22.6,9.6 L22.6,9.6 Z M21.4,17.8 L12.2,8.6 C12.7,8.3 13.2,8 13.8,7.8 L22.2,16.2 C21.9,16.8 21.7,17.3 21.4,17.8 L21.4,17.8 Z M12.3,24.6 C19.1,24.6 24.6,19.1 24.6,12.3 C24.6,11.3 24.5,10.3 24.2,9.3 C26.7,11.2 28.3,14.3 28.3,17.7 C28.3,23.6 23.5,28.3 17.7,28.3 C14.3,28.3 11.3,26.7 9.3,24.2 C10.3,24.5 11.3,24.6 12.3,24.6 L12.3,24.6 Z M19.2,20.4 L9.6,10.8 C10,10.4 10.4,10 10.8,9.6 L20.4,19.2 C20,19.6 19.6,20 19.2,20.4 L19.2,20.4 Z M16.3,22.2 L7.9,13.8 C8.1,13.3 8.4,12.7 8.7,12.2 L17.9,21.4 C17.3,21.7 16.8,21.9 16.3,22.2 L16.3,22.2 Z M12.3,22.9 L7.1,17.7 C7.1,17 7.2,16.3 7.3,15.6 L14.5,22.8 C13.8,22.8 13,22.9 12.3,22.9 L12.3,22.9 Z M9.6,22.6 C9.1,22.4 8.5,22.2 8,22 C8,21.9 8,21.9 7.9,21.8 C7.7,21.3 7.5,20.8 7.4,20.3 L9.6,22.6 L9.6,22.6 Z" id="Shape"></path>
            </g>
        </g>
    </g>
</svg>