<?xml version="1.0" encoding="UTF-8"?>
<svg width="32px" height="32px" viewBox="0 0 32 32" version="1.1" xmlns="http://www.w3.org/2000/svg" xmlns:xlink="http://www.w3.org/1999/xlink">
    <title>69C07FEC-239E-48B0-8BC9-6271A7BCD4BC</title>
    <g id="🧠-Symbols" stroke="none" stroke-width="1" fill="none" fill-rule="evenodd">
        <g id="icon_map-pan">
            <g>
                <rect id="boundbox" fill="#FFFFFF" opacity="0" x="0" y="0" width="32" height="32"></rect>
                <path d="M29.9953643,16.0231023 C30.0018543,15.8969637 29.9605962,15.7694389 29.8641729,15.6733333 L26.2482991,12.0693729 C26.0675054,11.8887129 25.7740633,11.8887129 25.592806,12.0693729 C25.4120123,12.250033 25.4120123,12.5425083 25.592806,12.7227063 L28.4637172,15.5841584 L16.4636516,15.5841584 L16.4636516,3.58805281 L19.2395302,6.39082508 C19.3303906,6.48231023 19.4499926,6.52805281 19.5695946,6.52805281 C19.6873422,6.52805281 19.8050899,6.48369637 19.8950232,6.39452145 C20.0776712,6.21570957 20.0795255,5.92277228 19.8996589,5.74118812 L16.3296788,2.13722772 C16.2861029,2.09425743 16.236037,2.05960396 16.1799446,2.0360396 C16.1238522,2.01247525 16.0635876,2.00046205 16.0014687,2 C15.9379592,2 15.8776946,2.01247525 15.8216022,2.0360396 C15.7650462,2.05960396 15.7145167,2.09333333 15.6718679,2.13584158 L12.102815,5.69313531 C11.9215577,5.87333333 11.9215577,6.16580858 12.102815,6.34646865 C12.2836087,6.52666667 12.5770507,6.52666667 12.758308,6.34646865 L15.5365044,3.57788779 L15.5365044,15.5841584 L3.52670383,15.5841584 L6.36284697,12.7208581 C6.54271351,12.5392739 6.54132279,12.2463366 6.3586748,12.0675248 C6.17695396,11.8882508 5.88304832,11.889637 5.70318177,12.0712211 L2.13366524,15.6751815 C2.03863266,15.7712871 1.99412959,15.8983498 2.00061962,16.0231023 C2,16.030495 2,16.0383498 2,16.0462046 C2,16.2365677 2.11558587,16.400132 2.28061806,16.470363 L5.75185699,19.9306271 C5.84225384,20.0207261 5.96092868,20.0660066 6.07960351,20.0660066 C6.19827835,20.0660066 6.31695318,20.0207261 6.40735003,19.9306271 C6.5886073,19.749967 6.5886073,19.4574917 6.40735003,19.2772937 L3.62915359,16.5082508 L15.5365044,16.5082508 L15.5365044,28.4119472 L12.7601623,25.609637 C12.5802958,25.4280528 12.2868537,25.4252805 12.1046693,25.6050165 C11.9224849,25.7847525 11.9206306,26.0767657 12.1004971,26.2583498 L15.6700136,29.8623102 C15.719616,29.9117492 15.7812713,29.9459406 15.8480259,29.9690429 C15.8962375,29.9861386 15.9463035,30 15.9982237,30 C16.0617333,30 16.1224614,29.9870627 16.1785539,29.9639604 C16.2346463,29.940396 16.2856393,29.9066667 16.3278245,29.8641584 L19.8973411,26.3068647 C20.0785983,26.1262046 20.0785983,25.8337294 19.8973411,25.6530693 C19.7160838,25.4728713 19.4231053,25.4728713 19.241848,25.6530693 L16.4636516,28.4225743 L16.4636516,16.5082508 L28.3812011,16.5082508 L25.6368455,19.279604 C25.456979,19.4607261 25.4588333,19.7532013 25.6414812,19.9329373 C25.7314145,20.0216502 25.8491622,20.0660066 25.9669099,20.0660066 C26.0865119,20.0660066 26.2056503,20.019802 26.2969743,19.9283168 L29.7269552,16.4652805 C29.8873516,16.3927393 30,16.2333333 30,16.0462046 C30,16.0378878 29.9958278,16.0309571 29.9953643,16.0231023 Z" id="Fill-1" stroke="#979797" stroke-width="0.35" fill="#008392"></path>
            </g>
        </g>
    </g>
</svg>