<svg width="32" height="32" viewBox="0 0 32 32" fill="none" xmlns="http://www.w3.org/2000/svg">
<path fill-rule="evenodd" clip-rule="evenodd" d="M21.0084 4.39053C21.5292 3.86982 22.3736 3.86982 22.8944 4.39053L27.6094 9.10468C28.1302 9.62538 28.1302 10.4696 27.6094 10.9903L12.6302 25.9667C12.5742 26.0227 12.5145 26.0726 12.4518 26.1166C12.4286 26.1562 12.3972 26.1994 12.354 26.2426C12.2874 26.3092 12.1922 26.3663 12.0685 26.3948L4.69461 27.9835C4.41868 28.0501 4.22839 27.8979 4.16178 27.8313L4.15723 27.8252C4.0975 27.7459 3.9632 27.5674 4.00955 27.2986L5.59851 19.926C5.64457 19.7221 5.77252 19.6092 5.87854 19.5463C5.92267 19.4833 5.97288 19.4232 6.02918 19.3669L21.0084 4.39053ZM8.85819 20.3097L21.9514 7.21902L24.7804 10.0475L11.6872 23.1382L8.85819 20.3097Z" fill="#333333"/>
</svg>
