<?xml version="1.0" encoding="UTF-8"?>
<svg width="32px" height="32px" viewBox="0 0 32 32" version="1.1" xmlns="http://www.w3.org/2000/svg" xmlns:xlink="http://www.w3.org/1999/xlink">
    <title>pivot</title>
    <g id="🧠-Symbols" stroke="none" stroke-width="1" fill="none" fill-rule="evenodd">
        <g id="pivot" fill="#333333">
            <rect id="boundbox" opacity="0" x="0" y="0" width="32" height="32"></rect>
            <g transform="translate(1.000000, 1.000000)" fill-rule="nonzero">
                <path d="M29,0 L10.3,0 L1,0 C0.5,0 0,0.5 0,1 L0,29 C0,29.6 0.5,30 1,30 L10.3,30 L29,30 C29.6,30 30,29.5 30,29 L30,19.7 L30,10.4 L30,1 C30,0.5 29.5,0 29,0 Z M28,27.9 L27.9,27.9 L11.4,27.9 L11.4,11.4 L28,11.4 L28,27.9 Z M27.9,9.3 L11.4,9.3 L11.4,2.1 L28,2.1 L28,9.3 L27.9,9.3 Z M2.1,2.1 L9.3,2.1 L9.3,10.4 L9.3,19.7 L9.3,28 L2.1,28 L2.1,2.1 Z" id="Shape"></path>
                <path d="M26.8,16.7 L23.5,13 L23.4,13 C23.1,12.8 22.6,12.8 22.4,13.1 L19.3,16.7 L19.2,16.8 C19,17.1 19.1,17.5 19.4,17.8 C19.7,18.1 20.2,18 20.5,17.7 L22.2,15.7 C21.9,20.1 20.3,21.7 16,22 L18.1,20.1 L18.2,20 C18.4,19.7 18.4,19.3 18.2,19 C17.9,18.7 17.4,18.7 17.1,18.9 L13.5,22.2 L13.4,22.3 C13.2,22.6 13.2,23.1 13.5,23.3 L17.1,26.4 L17.2,26.5 C17.3,26.6 17.5,26.6 17.6,26.6 C17.8,26.6 18,26.5 18.2,26.3 L18.3,26.2 C18.5,25.9 18.4,25.5 18.1,25.2 L16,23.4 C21.3,23 23.5,20.8 23.8,15.4 L25.8,17.6 L25.9,17.7 C26.2,17.9 26.6,17.9 26.9,17.7 C27.1,17.6 27.1,17.4 27.2,17.2 C27.3,17 26.9,16.8 26.8,16.7 Z" id="Path"></path>
            </g>
        </g>
    </g>
</svg>