<?xml version="1.0" encoding="UTF-8"?>
<svg width="32px" height="32px" viewBox="0 0 32 32" version="1.1" xmlns="http://www.w3.org/2000/svg" xmlns:xlink="http://www.w3.org/1999/xlink">
    <title>placeholder</title>
    <g id="🧠-Symbols" stroke="none" stroke-width="1" fill="none" fill-rule="evenodd">
        <g id="placeholder" fill="#333333">
            <rect id="boundbox" opacity="0" x="0" y="0" width="32" height="32"></rect>
            <g transform="translate(0.450000, 6.050000)" fill-rule="nonzero">
                <path d="M9.4,5.6 C11,5.6 12.2,4.3 12.2,2.8 C12.2,1.3 10.9,8.8817842e-16 9.4,8.8817842e-16 C7.9,8.8817842e-16 6.6,1.2 6.6,2.8 C6.6,4.4 7.9,5.6 9.4,5.6 Z" id="Path"></path>
                <path d="M31.1,18.9 C31,17.6 29.8,13.1 28.5,9.7 L28.4,9.3 C26.2,3.7 24.1,1 21.7,1 C19.4,1 17.7,2.8 16,7.1 C15.9,7.3 15.9,7.5 15.8,7.7 L14.8,10.4 C14.6,11 14.4,11.4 14.3,11.7 C14.3,11.7 14.2,11.6 14.2,11.6 L14.1,11.5 C14,11.3 13.8,11.1 13.7,10.8 L13.5,10.5 C12.4,8.9 11.1,8.2 9.1,8.2 C5.2,8.2 1.77635684e-15,15.5 1.77635684e-15,18.9 C1.77635684e-15,19.5 0.5,19.9 1,19.9 L30.1,19.9 L30.2,19.9 C30.3,19.9 30.3,19.9 30.4,19.9 C30.4,19.9 30.5,19.9 30.5,19.9 C30.5,19.9 30.6,19.9 30.6,19.8 C30.6,19.8 30.7,19.8 30.7,19.8 C30.7,19.8 30.8,19.8 30.8,19.8 C30.8,19.8 30.8,19.8 30.8,19.8 C30.8,19.8 30.8,19.8 30.8,19.8 C30.8,19.8 30.8,19.8 30.9,19.7 C30.9,19.7 30.9,19.7 31,19.6 C31,19.5 31.1,19.5 31.1,19.4 C31.1,19.3 31.1,19.3 31.1,19.2 L31.1,18.9 Z M28.9,18 L2.2,18 C3.1,15.1 6.7,10.3 9.1,10.3 C10.4,10.3 11.2,10.7 11.8,11.7 C11.8,11.7 11.9,11.8 11.9,11.9 L12.4,12.7 C12.8,13.4 13.3,14 14.3,14 C14.8,14 15.2,13.8 15.6,13.3 C15.9,12.9 16.2,12.2 16.7,11 L17.8,7.9 C19.1,4.6 20.3,3.1 21.6,3.1 C22.9,3.1 24.6,5.6 26.3,9.7 L26.6,10.4 C27.5,12.9 28.5,16.2 28.9,18 Z" id="Shape"></path>
            </g>
        </g>
    </g>
</svg>