<?xml version="1.0" encoding="UTF-8"?>
<svg width="32px" height="32px" viewBox="0 0 32 32" version="1.1" xmlns="http://www.w3.org/2000/svg" xmlns:xlink="http://www.w3.org/1999/xlink">
    <title>play-circle-alt</title>
    <g id="🧠-Symbols" stroke="none" stroke-width="1" fill="none" fill-rule="evenodd">
        <g id="play-circle-alt" fill="#333333">
            <rect id="boundbox" opacity="0" x="0" y="0" width="32" height="32"></rect>
            <g transform="translate(0.250000, 0.250000)" fill-rule="nonzero" id="Combined-Shape">
                <path d="M15.75,0 C24.4435211,0 31.5,7.05647888 31.5,15.75 C31.5,24.4435211 24.4435211,31.5 15.75,31.5 C7.05647888,31.5 0,24.4435211 0,15.75 C0,7.05647888 7.05647888,0 15.75,0 Z M12.64,8.98 C11.87,8.52 10.68,8.97 10.68,10.1 L10.68,10.1 L10.68,21.39 C10.68,22.41 11.78,23.02 12.64,22.51 L12.64,22.51 L22.19,16.87 C23.04,16.37 23.04,15.13 22.19,14.63 L22.19,14.63 Z"></path>
            </g>
        </g>
    </g>
</svg>