<?xml version="1.0" encoding="UTF-8"?>
<svg width="32px" height="32px" viewBox="0 0 32 32" version="1.1" xmlns="http://www.w3.org/2000/svg" xmlns:xlink="http://www.w3.org/1999/xlink">
    <title>plus-circle-alt</title>
    <g id="🧠-Symbols" stroke="none" stroke-width="1" fill="none" fill-rule="evenodd">
        <g id="plus-circle-alt" fill="#333333">
            <rect id="boundbox" opacity="0" x="0" y="0" width="32" height="32"></rect>
            <g transform="translate(0.250000, 0.250000)" fill-rule="nonzero" id="Combined-Shape">
                <path d="M15.75,0 C24.4435211,0 31.5,7.05647888 31.5,15.75 C31.5,24.4435211 24.4435211,31.5 15.75,31.5 C7.05647888,31.5 0,24.4435211 0,15.75 C0,7.05647888 7.05647888,0 15.75,0 Z M15.75,5.5 L15.6225713,5.50647871 C14.9938827,5.57073385 14.5,6.10493326 14.5,6.75 L14.5,14.5 L6.75,14.5 C6.06192881,14.5 5.5,15.0619288 5.5,15.75 L5.50647871,15.8774287 C5.57073385,16.5061173 6.10493326,17 6.75,17 L14.5,17 L14.5,24.75 C14.5,25.4380712 15.0619288,26 15.75,26 L15.8774287,25.9935213 C16.5061173,25.9292662 17,25.3950667 17,24.75 L17,17 L24.75,17 C25.4380712,17 26,16.4380712 26,15.75 L25.9935213,15.6225713 C25.9292662,14.9938827 25.3950667,14.5 24.75,14.5 L17,14.5 L17,6.75 C17,6.06192881 16.4380712,5.5 15.75,5.5 Z"></path>
            </g>
        </g>
    </g>
</svg>