<?xml version="1.0" encoding="UTF-8"?>
<svg width="32px" height="32px" viewBox="0 0 32 32" version="1.1" xmlns="http://www.w3.org/2000/svg" xmlns:xlink="http://www.w3.org/1999/xlink">
    <title>print</title>
    <g id="🧠-Symbols" stroke="none" stroke-width="1" fill="none" fill-rule="evenodd">
        <g id="print" fill="#333333">
            <rect id="boundbox" opacity="0" x="0" y="0" width="32" height="32"></rect>
            <g transform="translate(0.500000, 1.500000)" fill-rule="nonzero">
                <g id="Path_00000181769875335993700960000008725281331736279725_" transform="translate(5.600000, 0.000000)">
                    <path d="M18.7,7.7 C18.1,7.7 17.7,7.3 17.7,6.7 L17.7,2 L2,2 L2,6.7 C2,7.3 1.6,7.7 1,7.7 C0.4,7.7 0,7.3 0,6.7 L0,1 C0,0.4 0.4,-8.8817842e-16 1,-8.8817842e-16 L18.6,-8.8817842e-16 C19.2,-8.8817842e-16 19.6,0.4 19.6,1 L19.6,6.7 C19.7,7.2 19.2,7.7 18.7,7.7 Z" id="Path"></path>
                </g>
                <g id="Path_00000114782252481218170870000011299018586346412975_" transform="translate(0.000000, 5.700000)">
                    <path d="M30,16.1 L25.4,16.1 C24.8,16.1 24.4,15.7 24.4,15.1 C24.4,14.5 24.8,14.1 25.4,14.1 L29,14.1 L29,2 L2,2 L2,14.2 L5.5,14.2 C6.1,14.2 6.5,14.6 6.5,15.2 C6.5,15.8 6.1,16.2 5.5,16.2 L1,16.2 C0.4,16.2 0,15.8 0,15.2 L0,1 C0,0.4 0.4,8.8817842e-16 1,8.8817842e-16 L30,8.8817842e-16 C30.6,8.8817842e-16 31,0.4 31,1 L31,15.2 C31,15.7 30.5,16.1 30,16.1 Z" id="Path"></path>
                </g>
                <g id="Path_00000127737570532919569290000006112526374015489206_" transform="translate(5.600000, 15.000000)">
                    <path d="M18.7,14 L1,14 C0.4,14 0,13.6 0,13 L0,1 C0,0.4 0.4,0 1,0 L18.6,0 C19.2,0 19.6,0.4 19.6,1 L19.6,13 C19.7,13.5 19.2,14 18.7,14 Z M2,12 L17.6,12 L17.6,2 L2,2 L2,12 Z" id="Shape"></path>
                </g>
                <g id="Path_00000020361997216848831000000012754326017374223778_" transform="translate(9.400000, 21.000000)">
                    <path d="M11.3,2 L1,2 C0.4,2 0,1.6 0,1 C0,0.4 0.4,0 1,0 L11.4,0 C12,0 12.4,0.4 12.4,1 C12.4,1.6 11.9,2 11.3,2 Z" id="Path"></path>
                </g>
            </g>
        </g>
    </g>
</svg>