<?xml version="1.0" encoding="UTF-8"?>
<svg width="32px" height="32px" viewBox="0 0 32 32" version="1.1" xmlns="http://www.w3.org/2000/svg" xmlns:xlink="http://www.w3.org/1999/xlink">
    <title>products</title>
    <g id="🧠-Symbols" stroke="none" stroke-width="1" fill="none" fill-rule="evenodd">
        <g id="products" fill="#333333">
            <rect id="boundbox" opacity="0" x="0" y="0" width="32" height="32"></rect>
            <g id="product" transform="translate(1.000000, 1.000000)" fill-rule="nonzero">
                <path d="M27,0 L3,0 C1.3,0 0,1.3 0,3 L0,27 C0,28.7 1.3,30 3,30 L27,30 C28.7,30 30,28.7 30,27 L30,3 C30,1.3 28.7,0 27,0 Z M28,27 C28,27.6 27.6,28 27,28 L3,28 C2.4,28 2,27.6 2,27 L2,3 C2,2.4 2.4,2 3,2 L27,2 C27.6,2 28,2.4 28,3 L28,27 Z" id="Shape"></path>
                <path d="M24.6,13.6 L14.5,13.6 C13.9,13.6 13.4,14.1 13.4,14.7 C13.4,15.3 13.9,15.8 14.5,15.8 L24.6,15.8 C25.2,15.8 25.7,15.3 25.7,14.7 C25.7,14.1 25.2,13.6 24.6,13.6 Z" id="Path"></path>
                <path d="M8.8,12.1 L6,14.9 L5.2,14.1 C4.8,13.7 4,13.7 3.6,14.1 C3.2,14.5 3.2,15.3 3.6,15.7 L5.2,17.3 C5.2,17.3 5.2,17.3 5.2,17.3 C5.4,17.5 5.7,17.6 6,17.6 C6,17.6 6,17.6 6,17.6 C6,17.6 6,17.6 6,17.6 C6.3,17.6 6.6,17.5 6.8,17.3 C6.8,17.3 6.8,17.3 6.8,17.3 L10.5,13.6 C10.9,13.2 10.9,12.4 10.5,12 C10.1,11.6 9.3,11.6 8.8,12.1 Z" id="Path"></path>
                <path d="M24.6,5.6 L14.5,5.6 C13.9,5.6 13.4,6.1 13.4,6.7 C13.4,7.3 13.9,7.8 14.5,7.8 L24.6,7.8 C25.2,7.8 25.7,7.3 25.7,6.7 C25.7,6.1 25.2,5.6 24.6,5.6 Z" id="Path"></path>
                <path d="M8.8,4.1 L6,6.9 L5.2,6.2 C4.8,5.7 4,5.7 3.6,6.2 C3.2,6.7 3.2,7.4 3.6,7.8 L5.2,9.4 C5.2,9.4 5.2,9.4 5.2,9.4 C5.4,9.6 5.7,9.7 6,9.7 C6,9.7 6,9.7 6,9.7 C6,9.7 6,9.7 6,9.7 C6.3,9.7 6.6,9.6 6.8,9.4 C6.8,9.4 6.8,9.4 6.8,9.4 L10.5,5.7 C10.9,5.3 10.9,4.5 10.5,4.1 C10.1,3.7 9.3,3.6 8.8,4.1 Z" id="Path"></path>
                <path d="M24.6,21.6 L14.5,21.6 C13.9,21.6 13.4,22.1 13.4,22.7 C13.4,23.3 13.9,23.8 14.5,23.8 L24.6,23.8 C25.2,23.8 25.7,23.3 25.7,22.7 C25.7,22.1 25.2,21.6 24.6,21.6 Z" id="Path"></path>
                <path d="M8.8,20.1 L6,22.9 L5.2,22.1 C4.8,21.7 4,21.7 3.6,22.1 C3.2,22.5 3.2,23.3 3.6,23.7 L5.2,25.3 C5.2,25.3 5.2,25.3 5.2,25.3 C5.4,25.5 5.7,25.6 6,25.6 C6,25.6 6,25.6 6,25.6 C6,25.6 6,25.6 6,25.6 C6.3,25.6 6.6,25.5 6.8,25.3 C6.8,25.3 6.8,25.3 6.8,25.3 L10.5,21.6 C10.9,21.2 10.9,20.4 10.5,20 C10.1,19.6 9.3,19.6 8.8,20.1 Z" id="Path"></path>
            </g>
        </g>
    </g>
</svg>