<?xml version="1.0" encoding="UTF-8"?>
<svg width="32px" height="32px" viewBox="0 0 32 32" version="1.1" xmlns="http://www.w3.org/2000/svg" xmlns:xlink="http://www.w3.org/1999/xlink">
    <title>_Icons/profile</title>
    <g id="_Icons/profile" stroke="none" stroke-width="1" fill="none" fill-rule="evenodd">
        <g id="profile" fill="#333333">
            <rect id="boundbox" opacity="0" x="0" y="0" width="32" height="32"></rect>
            <g id="product" transform="translate(1.000000, 1.000000)">
                <path d="M27,0 L3,0 C1.3,0 0,1.3 0,3 L0,27 C0,28.7 1.3,30 3,30 L27,30 C28.7,30 30,28.7 30,27 L30,3 C30,1.3 28.7,0 27,0 Z M28,27 C28,27.6 27.6,28 27,28 L3,28 C2.4,28 2,27.6 2,27 L2,3 C2,2.4 2.4,2 3,2 L27,2 C27.6,2 28,2.4 28,3 L28,27 Z" id="Shape" fill-rule="nonzero"></path>
                <rect id="Rectangle" x="1.80670422" y="1.82943278" width="27" height="5.30337972"></rect>
                <rect id="Rectangle" x="3.80670422" y="10.1185023" width="22.3865916" height="4.5"></rect>
                <rect id="Rectangle" x="3.79518079" y="22.715182" width="10" height="2.5"></rect>
                <rect id="Rectangle" x="3.79518079" y="17.715182" width="10" height="2.5"></rect>
                <rect id="Rectangle" x="16.1932958" y="22.715182" width="10" height="2.5"></rect>
                <rect id="Rectangle" x="16.1932958" y="17.715182" width="10" height="2.5"></rect>
            </g>
        </g>
    </g>
</svg>