<?xml version="1.0" encoding="UTF-8"?>
<svg width="32px" height="32px" viewBox="0 0 32 32" version="1.1" xmlns="http://www.w3.org/2000/svg" xmlns:xlink="http://www.w3.org/1999/xlink">
    <title>question-circle</title>
    <g id="🧠-Symbols" stroke="none" stroke-width="1" fill="none" fill-rule="evenodd">
        <g id="question-circle" fill="#333333">
            <rect id="boundbox" opacity="0" x="0" y="0" width="32" height="32"></rect>
            <g transform="translate(0.250000, 0.250000)" fill-rule="nonzero" id="Combined-Shape">
                <path d="M15.75,0 C24.4435211,0 31.5,7.05647888 31.5,15.75 C31.5,24.4435211 24.4435211,31.5 15.75,31.5 C7.05647888,31.5 0,24.4435211 0,15.75 C0,7.05647888 7.05647888,0 15.75,0 Z M15.75,2.50380228 C8.44257055,2.50380228 2.50380228,8.44257055 2.50380228,15.75 C2.50380228,23.0574294 8.44257055,28.9961977 15.75,28.9961977 C23.0574294,28.9961977 28.9961977,23.0574294 28.9961977,15.75 C28.9961977,8.44257055 23.0574294,2.50380228 15.75,2.50380228 Z"></path>
                <path d="M15.6891635,20.7623574 C16.301458,20.7623574 16.7002557,21.0678995 16.7984125,21.6230113 L16.8156876,21.7555187 L16.8212928,21.8944867 L16.8212928,22.6245247 C16.8212928,23.2368192 16.5157507,23.6356169 15.9606389,23.7337737 L15.8281315,23.7510488 L15.6891635,23.756654 L14.8881496,23.756654 C14.275855,23.756654 13.8770574,23.4511119 13.7789005,22.8960002 L13.7616254,22.7634927 L13.7560203,22.6245247 L13.7560203,21.8944867 C13.7560203,21.2821922 14.0615623,20.8833945 14.6166741,20.7852377 L14.7491816,20.7679626 L14.8881496,20.7623574 L15.6891635,20.7623574 Z M15.628327,6.99302915 C16.3183805,6.99302915 16.9842062,7.0999891 17.5920856,7.3096344 C18.2053584,7.51053411 18.7619185,7.81853338 19.2387892,8.21955939 C19.7008824,8.61717445 20.0759562,9.10018312 20.3547083,9.65770468 C20.6235777,10.2061983 20.764332,10.8382646 20.7858048,11.5826996 C20.7858048,12.2269628 20.6803999,12.808041 20.4702146,13.3166804 C20.2530045,13.8054032 19.996831,14.2358802 19.6940897,14.6116591 C19.392164,14.9760522 19.058594,15.3202117 18.7102234,15.6263054 C18.5948304,15.7242146 18.4804011,15.8256024 18.36178,15.9348678 L17.9881856,16.2906964 C17.9221054,16.3554064 17.8536884,16.4231857 17.78229,16.494584 C17.5248432,16.7520309 17.2809932,17.0574591 17.0652706,17.3861654 C16.9485682,17.5670542 16.8641487,17.7750563 16.8130727,18.0033254 L16.7810341,18.1782202 L16.7602302,18.3664588 L16.7371804,18.870977 C16.6668282,19.3212311 16.4044473,19.6505363 15.9145294,19.7453414 L15.7752474,19.765298 L15.628327,19.7718631 L14.9692649,19.7718631 C14.3569704,19.7718631 13.9581727,19.4663211 13.8600159,18.9112093 L13.8427408,18.7787018 L13.8371356,18.6397338 L13.8371356,18.1834601 C13.8371356,17.6034666 13.9448745,17.0702971 14.1543511,16.6182688 C14.3514388,16.1929742 14.6138126,15.7967362 14.933212,15.4332826 C15.1402754,15.1966387 15.3743806,14.9580557 15.6329994,14.7177754 L15.8996958,14.4769382 C16.2500555,14.1703735 16.5466722,13.8883444 16.8071585,13.6093045 C17.0757623,13.3311077 17.2955725,13.0348418 17.4687348,12.717422 C17.6289301,12.4326303 17.7103929,12.0999905 17.7103929,11.7246515 C17.7103929,11.4647903 17.6566128,11.2182983 17.5508936,10.9979838 C17.4458903,10.7704767 17.2967479,10.5752757 17.0973682,10.4030841 C16.8977029,10.2306459 16.6603546,10.0937142 16.3838349,9.99232364 C16.1148839,9.89370825 15.8110679,9.84537389 15.4660963,9.84537389 C15.0867081,9.84537389 14.7416806,9.90209073 14.4463356,10.0128318 C14.1188249,10.1319265 13.8617369,10.2472558 13.665388,10.3645486 C13.3991309,10.5034654 13.1184256,10.5596064 12.8380708,10.5327543 C12.6207595,10.5044094 12.4290034,10.4092552 12.2664499,10.2462114 L12.1724512,10.1402298 L12.1001956,10.0361589 L11.8010673,9.62329931 C11.3642163,8.97335016 11.5194818,8.43509616 12.039293,8.0712392 C12.3658622,7.8467229 12.8271987,7.61987788 13.4575901,7.36551427 C14.0803323,7.11856476 14.8121782,6.99302915 15.628327,6.99302915 Z"></path>
            </g>
        </g>
    </g>
</svg>