<?xml version="1.0" encoding="UTF-8"?>
<svg width="32px" height="32px" viewBox="0 0 32 32" version="1.1" xmlns="http://www.w3.org/2000/svg" xmlns:xlink="http://www.w3.org/1999/xlink">
    <title>_Icons/reset</title>
    <g id="_Icons/reset" stroke="none" stroke-width="1" fill="none" fill-rule="evenodd">
        <g id="reset" fill="#333333">
            <rect id="boundbox" opacity="0" x="0" y="0" width="32" height="32"></rect>
            <path d="M31.3602353,14.4905974 C30.5602353,7.19059741 23.8602353,1.99059741 16.4602353,2.79059741 C10.3602353,3.49059741 5.46023529,8.19059741 4.56023529,13.9905974 L2.56023529,11.0905974 C2.26023529,10.5905974 1.56023529,10.4905974 1.06023529,10.7905974 C0.860235286,10.9905974 0.660235286,11.1905974 0.560235286,11.4905974 C0.460235286,11.7905974 0.560235286,12.0905974 0.760235286,12.2905974 L4.76023529,17.9905974 L4.86023529,18.0905974 C4.96023529,18.1905974 4.96023529,18.1905974 5.06023529,18.2905974 L5.16023529,18.3905974 C5.16023529,18.3905974 5.26023529,18.4905974 5.36023529,18.4905974 C5.46023529,18.4905974 5.46023529,18.4905974 5.56023529,18.4905974 L5.86023529,18.4905974 C5.96023529,18.4905974 5.96023529,18.4905974 6.06023529,18.3905974 C6.06023529,18.3905974 6.16023529,18.3905974 6.16023529,18.2905974 L11.4602353,13.4905974 C11.6602353,13.2905974 11.7602353,12.9905974 11.8602353,12.7905974 C11.8602353,12.4905974 11.7602353,12.1905974 11.5602353,11.9905974 C11.1602353,11.5905974 10.4602353,11.4905974 10.0602353,11.8905974 L6.66023529,14.9905974 C7.16023529,9.79059741 11.3602353,5.49059741 16.6602353,4.89059741 C19.6602353,4.59059741 22.6602353,5.39059741 24.9602353,7.19059741 C27.3602353,9.09059741 28.8602353,11.6905974 29.1602353,14.6905974 C29.4602353,17.5905974 28.6602353,20.4905974 26.8602353,22.7905974 C24.9602353,25.1905974 22.2602353,26.6905974 19.1602353,26.9905974 C15.6602353,27.3905974 12.2602353,26.1905974 9.86023529,23.7905974 C9.46023529,23.3905974 8.76023529,23.3905974 8.36023529,23.7905974 C8.16023529,24.0905974 8.06023529,24.2905974 8.06023529,24.5905974 C8.06023529,24.8905974 8.16023529,25.1905974 8.36023529,25.3905974 C10.9602353,27.8905974 14.2602353,29.2905974 17.8602353,29.2905974 C18.3602353,29.2905974 18.8602353,29.2905974 19.4602353,29.1905974 C23.0602353,28.7905974 26.2602353,26.9905974 28.4602353,24.2905974 C30.7602353,21.4905974 31.8602353,17.9905974 31.3602353,14.4905974 Z" id="Path" fill-rule="nonzero"></path>
        </g>
    </g>
</svg>