<?xml version="1.0" encoding="UTF-8"?>
<svg width="32px" height="32px" viewBox="0 0 32 32" version="1.1" xmlns="http://www.w3.org/2000/svg" xmlns:xlink="http://www.w3.org/1999/xlink">
    <title>restore</title>
    <g id="🧠-Symbols" stroke="none" stroke-width="1" fill="none" fill-rule="evenodd">
        <g id="restore" fill="#333333">
            <rect id="boundbox" opacity="0" x="0" y="0" width="32" height="32"></rect>
            <g transform="translate(0.550000, 4.450000)" fill-rule="nonzero" id="Shape">
                <path d="M22.1,1.77635684e-15 L9.1,1.77635684e-15 L8.9,1.77635684e-15 C8.3,0.1 7.9,0.6 7.9,1.2 C7.9,1.9 8.4,2.4 9.1,2.4 L22.1,2.4 L22.5,2.4 C25.9,2.6 28.5,5.3 28.5,8.6 C28.5,12 25.7,14.8 22.2,14.8 L4.3,14.8 L8.6,11 L8.7,10.9 C9.1,10.4 9,9.8 8.6,9.4 C8.1,8.9 7.4,8.9 6.9,9.3 L0.4,15.2 C0.4,15.2 0.3,15.3 0.2,15.4 C0.2,15.4 0.2,15.5 0.1,15.5 C0.1,15.5 0.1,15.6 0.1,15.6 L1.77635684e-15,15.8 C1.77635684e-15,15.8 1.77635684e-15,15.8 1.77635684e-15,15.9 C1.77635684e-15,15.9 1.77635684e-15,15.9 1.77635684e-15,15.9 C1.77635684e-15,15.9 1.77635684e-15,16 1.77635684e-15,16 L1.77635684e-15,16 C1.77635684e-15,16 1.77635684e-15,16 1.77635684e-15,16 L1.77635684e-15,16.2 C1.77635684e-15,16.2 1.77635684e-15,16.3 1.77635684e-15,16.3 C1.77635684e-15,16.3 1.77635684e-15,16.4 0.1,16.5 L0.2,16.7 C0.2,16.7 0.2,16.7 0.2,16.8 L0.2,16.8 C0.2,16.8 0.2,16.8 0.2,16.8 C0.2,16.8 0.3,16.9 0.3,16.9 C0.3,16.9 0.3,16.9 0.3,16.9 L6.9,22.8 L7.1,22.9 C7.3,23 7.5,23.1 7.7,23.1 C8,23.1 8.4,23 8.6,22.7 L8.7,22.5 C9,22 8.9,21.4 8.5,21 L4.3,17.2 L22.2,17.2 L22.6,17.2 C27.3,17 30.9,13.2 30.9,8.7 C30.8,3.9 26.9,1.77635684e-15 22.1,1.77635684e-15 Z"></path>
            </g>
        </g>
    </g>
</svg>