<?xml version="1.0" encoding="UTF-8"?>
<svg width="19px" height="21px" viewBox="0 0 19 21" version="1.1" xmlns="http://www.w3.org/2000/svg" xmlns:xlink="http://www.w3.org/1999/xlink">
    <title>C2714932-890B-4190-BCF7-ACC55386ECB5</title>
    <g id="Navigation-VD" stroke="none" stroke-width="1" fill="none" fill-rule="evenodd">
        <g id="Icons" transform="translate(-23.000000, -165.000000)" fill="#333333" fill-rule="nonzero">
            <g id="Filter-tab" transform="translate(23.000000, 165.000000)">
                <path d="M16.4062109,19.3124969 C17.4931224,19.3124969 18.3749562,18.430663 18.3749562,17.3437516 L18.3749562,2.90628599 C18.3749562,1.81937452 17.4931224,0.93754068 16.4062109,0.93754068 L1.96874531,0.93754068 C0.881833835,0.93754068 0,1.81937452 0,2.90628599 L0,17.3437516 C0,18.430663 0.881833835,19.3124969 1.96874531,19.3124969 L16.4062109,19.3124969 Z M16.4062109,18 L1.96874531,18 C1.60697554,18 1.31249687,17.7055213 1.31249687,17.3437516 L1.31249687,2.90628599 C1.31249687,2.54451622 1.60697554,2.25003755 1.96874531,2.25003755 L16.4062109,2.25003755 C16.7679807,2.25003755 17.0624593,2.54451622 17.0624593,2.90628599 L17.0624593,17.3437516 C17.0624593,17.7055213 16.7679807,18 16.4062109,18 Z M10.1718507,6.8437766 C10.3531362,6.8437766 10.499975,6.69693781 10.499975,6.51565238 L10.499975,5.85940395 C10.499975,5.67811852 10.3531362,5.53127973 10.1718507,5.53127973 L4.26561483,5.53127973 C4.0843294,5.53127973 3.93749061,5.67811852 3.93749061,5.85940395 L3.93749061,6.51565238 C3.93749061,6.69693781 4.0843294,6.8437766 4.26561483,6.8437766 L10.1718507,6.8437766 Z M14.1093414,10.7812672 C14.2906268,10.7812672 14.4374656,10.6344284 14.4374656,10.453143 L14.4374656,9.79689456 C14.4374656,9.61560913 14.2906268,9.46877034 14.1093414,9.46877034 L4.26561483,9.46877034 C4.0843294,9.46877034 3.93749061,9.61560913 3.93749061,9.79689456 L3.93749061,10.453143 C3.93749061,10.6344284 4.0843294,10.7812672 4.26561483,10.7812672 L14.1093414,10.7812672 Z M7.54685701,14.7187578 C7.72814243,14.7187578 7.87498122,14.571919 7.87498122,14.3906336 L7.87498122,13.7343852 C7.87498122,13.5530997 7.72814243,13.406261 7.54685701,13.406261 L4.26561483,13.406261 C4.0843294,13.406261 3.93749061,13.5530997 3.93749061,13.7343852 L3.93749061,14.3906336 C3.93749061,14.571919 4.0843294,14.7187578 4.26561483,14.7187578 L7.54685701,14.7187578 Z" id="poll-h"></path>
            </g>
        </g>
    </g>
</svg>