<?xml version="1.0" encoding="UTF-8"?>
<svg width="32px" height="32px" viewBox="0 0 32 32" version="1.1" xmlns="http://www.w3.org/2000/svg" xmlns:xlink="http://www.w3.org/1999/xlink">
    <title>rows</title>
    <g id="🧠-Symbols" stroke="none" stroke-width="1" fill="none" fill-rule="evenodd">
        <g id="rows" fill="#333333">
            <rect id="boundbox" opacity="0" x="0" y="0" width="32" height="32"></rect>
            <g transform="translate(1.000000, 1.000000)" fill-rule="nonzero" id="Shape">
                <path d="M0,1 L0,29 C0,29.6 0.5,30 1,30 L4.4,30 L4.4,30 L29,30 C29.6,30 30,29.5 30,29 L30,19.7 L30,10.4 L30,1 C30,0.4 29.5,0 29,0 L4.5,0 L4.5,0 L1,0 C0.5,0 0,0.5 0,1 Z M5.5,27.9 L5.5,20.7 L27.9,20.7 L27.9,27.9 L5.5,27.9 Z M5.5,18.6 L5.5,11.4 L27.9,11.4 L27.9,18.6 L5.5,18.6 Z M27.9,9.3 L5.5,9.3 L5.5,2.1 L27.9,2.1 L27.9,9.3 Z"></path>
            </g>
        </g>
    </g>
</svg>