<?xml version="1.0" encoding="UTF-8"?>
<svg width="32px" height="32px" viewBox="0 0 32 32" version="1.1" xmlns="http://www.w3.org/2000/svg" xmlns:xlink="http://www.w3.org/1999/xlink">
    <title>search</title>
    <g id="🧠-Symbols" stroke="none" stroke-width="1" fill="none" fill-rule="evenodd">
        <g id="search" fill="#333333">
            <rect id="boundbox" opacity="0" x="0" y="0" width="32" height="32"></rect>
            <g transform="translate(0.512500, 0.500000)" fill-rule="nonzero" id="Shape">
                <path d="M12.2,-0.25 L12.5099189,-0.246149818 C19.2190567,-0.0793142673 24.65,5.47767466 24.65,12.2 C24.65,14.9758215 23.7491767,17.6285531 22.120849,19.7686782 L22.033,19.88 L30.7767767,28.6232233 C31.2997039,29.1461505 31.3650698,29.9452081 30.9728744,30.5371679 L30.881829,30.6606705 L30.7767767,30.7767767 C30.4514535,31.1020999 30.0964932,31.25 29.7,31.25 C29.390666,31.25 28.9964895,31.0859186 28.7293273,30.8714468 L28.6232233,30.7767767 L19.88,22.033 L19.7686782,22.120849 C17.8279738,23.5974462 15.4657433,24.4758025 12.9724468,24.6266751 L12.5777216,24.6444327 L12.2,24.65 C5.36192881,24.65 -0.25,19.0380712 -0.25,12.2 C-0.25,5.36192881 5.36192881,-0.25 12.2,-0.25 Z M12.2,2.75 C6.93807119,2.75 2.75,6.93807119 2.75,12.2 C2.75,17.4619288 6.93807119,21.65 12.2,21.65 C17.3626931,21.65 21.552547,17.4601461 21.65,12.2 C21.65,6.93807119 17.4619288,2.75 12.2,2.75 Z"></path>
            </g>
        </g>
    </g>
</svg>