<?xml version="1.0" encoding="UTF-8"?>
<svg width="32px" height="32px" viewBox="0 0 32 32" version="1.1" xmlns="http://www.w3.org/2000/svg" xmlns:xlink="http://www.w3.org/1999/xlink">
    <title>select</title>
    <g id="🧠-Symbols" stroke="none" stroke-width="1" fill="none" fill-rule="evenodd">
        <g id="select" fill="#333333">
            <rect id="boundbox" opacity="0" x="0" y="0" width="32" height="32"></rect>
            <g transform="translate(0.200000, 1.750000)" fill-rule="nonzero">
                <g id="Group" transform="translate(-0.000000, 0.000000)">
                    <path d="M2.4,16.9 L2.4,14.2 C2.4,13.6 1.9,13.1 1.3,13.1 C0.7,13.1 0.2,13.6 0.2,14.2 L0.2,16.9 C0.2,17.5 0.7,18 1.3,18 C1.9,18 2.4,17.5 2.4,16.9 Z" id="Path"></path>
                    <path d="M4.5,19.9 L3.5,19.9 C3.2,19.9 2.9,19.8 2.7,19.6 C2.2,19.2 1.5,19.2 1.1,19.7 C0.7,20.2 0.7,20.9 1.2,21.3 C1.8,21.9 2.7,22.2 3.5,22.2 L4.5,22.2 C5.1,22.2 5.6,21.7 5.6,21.1 C5.6,20.5 5.2,19.9 4.5,19.9 Z" id="Path"></path>
                    <path d="M1.2,11.5 C1.8,11.5 2.3,11 2.3,10.4 L2.3,7.6 C2.3,7 1.8,6.5 1.2,6.5 C0.6,6.5 0.1,7 0.1,7.6 L0.1,10.3 C0.1,11 0.6,11.5 1.2,11.5 Z" id="Path"></path>
                    <path d="M1.2,5 C1.8,5 2.3,4.5 2.3,3.9 L2.3,3.4 C2.3,3 2.5,2.6 2.8,2.4 C3.3,2.1 3.5,1.4 3.2,0.8 C2.9,0.3 2.2,0.1 1.6,0.4 C0.6,1 -4.4408921e-16,2.1 -4.4408921e-16,3.3 L-4.4408921e-16,3.7 C0.1,4.4 0.6,5 1.2,5 Z" id="Path"></path>
                    <path d="M8.8,0 L6.1,0 C5.4,0 4.9,0.5 4.9,1.1 C4.9,1.7 5.4,2.2 6,2.2 L8.7,2.2 C9.3,2.2 9.8,1.7 9.8,1.1 C9.9,0.5 9.4,0 8.8,0 Z" id="Path"></path>
                    <path d="M21.1,3.9 C21.2,3.9 21.3,3.9 21.4,3.9 C22,3.7 22.4,3.1 22.2,2.5 C21.8,1.2 20.6,0.2 19.2,0.1 C18.6,-1.38777878e-17 18,0.5 18,1.1 C17.9,1.7 18.4,2.3 19,2.3 C19.5,2.3 19.9,2.7 20,3.1 C20.2,3.6 20.6,3.9 21.1,3.9 Z" id="Path"></path>
                    <path d="M15.3,0 L12.6,0 C12,0 11.5,0.5 11.5,1.1 C11.5,1.7 12,2.2 12.6,2.2 L15.3,2.2 C15.9,2.2 16.4,1.7 16.4,1.1 C16.5,0.5 15.9,0 15.3,0 Z" id="Path"></path>
                    <path d="M21.2,4.6 C20.6,4.6 20.1,5.1 20.1,5.7 L20.1,7.1 C20.1,7.7 20.6,8.2 21.2,8.2 C21.8,8.2 22.3,7.7 22.3,7.1 L22.3,5.8 C22.3,5.1 21.8,4.6 21.2,4.6 Z" id="Path"></path>
                </g>
                <path d="M30.9,20 L29.5,18.6 C29,18.1 28.7,17.5 28.6,16.9 L28.3,15.2 L28.3,14.9 L28.2,14.8 C28,14.3 27.5,12.9 26.9,12.3 L25.6,11 C24.5,9.9 22.6,8.9 20.6,9.8 C20.2,10 20,10 19.8,9.9 C19.6,9.8 19.2,9.8 18.8,9.9 C18.3,10 17.6,10.4 17.3,10.7 L16.9,11.1 C16.8,11.2 16.8,11.2 16.5,11.4 L16.3,11.5 C16.2,11.6 16.2,11.6 16.1,11.6 L16,11.6 C15.7,11.7 15.3,11.9 14.7,12.5 C14.5,12.8 14.3,13.1 14.1,13.5 L8.9,8.3 C8.1,7.5 7.3,7.4 6.7,7.5 C6.1,7.6 5.5,7.9 5.3,8.2 C4.1,9.4 4.5,11 5.3,12 C5.5,12.2 5.6,12.4 5.8,12.5 L12.8,19.5 C11.6,19.1 10.3,19.2 9.5,19.9 C8.7,20.5 8.4,21.4 8.5,22.3 C8.5,22.4 8.5,22.5 8.6,22.7 C9.5,24.6 11.7,24.9 13.5,25.1 C14.5,25.2 15.6,25.4 16.3,25.8 C17.9,26.8 19.6,26.7 20.6,26.7 L20.9,26.7 C20.9,26.7 20.9,26.7 20.9,26.7 C21.4,26.7 22.4,27.5 22.9,28 C23.2,28.3 23.7,28.5 24.1,28.5 C24.1,28.5 24.1,28.5 24.2,28.5 C24.6,28.5 25,28.3 25.3,28 L31.1,22.2 C31.4,21.9 31.6,21.5 31.6,21 C31.4,20.7 31.2,20.3 30.9,20 Z M12.2,21.1 C13.9,21.7 15.5,21.8 15.5,21.8 C15.8,21.8 16.1,21.6 16.3,21.3 C16.5,21 16.4,20.6 16.1,20.3 L7,11.2 C6.9,11.1 6.8,11 6.7,10.8 C6.7,10.8 6,10 6.6,9.5 C6.7,9.4 7.2,9.1 7.8,9.7 L14.7,16.6 C15,16.9 15.6,16.9 15.9,16.6 C16.2,16.3 16.2,15.8 15.9,15.4 C15.8,15.3 15.3,14.7 16,13.8 C16.2,13.6 16.3,13.5 16.5,13.5 L16.7,13.4 C16.9,13.3 17.1,13.2 17.3,13.1 L17.5,13 C17.8,12.8 17.9,12.7 18.1,12.5 L18.3,12.2 C18.6,11.9 19,11.8 19,11.8 C19.1,11.8 19.2,11.8 19.4,11.8 C19.8,11.9 20.3,11.9 21.2,11.5 C22.2,11 23.4,11.6 24.2,12.4 L25.5,13.7 C25.7,13.9 26.2,14.9 26.4,15.5 L26.8,17.2 C27,18.2 27.5,19.1 28.2,19.8 L29.6,21.2 L24,26.8 C23.3,26.1 22,25 20.7,25 C20.7,25 20.7,25 20.7,25 L20.4,25 C19.4,25 18.2,25.1 17.1,24.4 C16.1,23.8 14.8,23.6 13.6,23.4 C12.1,23.2 10.7,23 10.2,22.1 C10.2,21.7 10.3,21.5 10.5,21.3 C10.9,20.9 11.6,20.9 12.2,21.1 Z" id="Shape"></path>
            </g>
        </g>
    </g>
</svg>