<svg width="32" height="32" viewBox="0 0 32 32" fill="none" xmlns="http://www.w3.org/2000/svg">
<path fill-rule="evenodd" clip-rule="evenodd" d="M2.80412 2.30928C2.53083 2.30928 2.30928 2.53083 2.30928 2.80412V4.00375C2.30928 4.64144 1.79233 5.15839 1.15464 5.15839C0.51695 5.15839 0 4.64144 0 4.00375V2.80412C0 1.25545 1.25545 0 2.80412 0H4.00375C4.64144 0 5.15839 0.51695 5.15839 1.15464C5.15839 1.79233 4.64144 2.30928 4.00375 2.30928H2.80412ZM7.0478 1.15464C7.0478 0.51695 7.56475 0 8.20244 0H10.6017C11.2394 0 11.7563 0.51695 11.7563 1.15464C11.7563 1.79233 11.2394 2.30928 10.6017 2.30928H8.20244C7.56475 2.30928 7.0478 1.79233 7.0478 1.15464ZM13.6457 1.15464C13.6457 0.51695 14.1627 0 14.8004 0H17.1996C17.8373 0 18.3543 0.51695 18.3543 1.15464C18.3543 1.79233 17.8373 2.30928 17.1996 2.30928H14.8004C14.1627 2.30928 13.6457 1.79233 13.6457 1.15464ZM20.2437 1.15464C20.2437 0.51695 20.7606 0 21.3983 0H23.7976C24.4353 0 24.9522 0.51695 24.9522 1.15464C24.9522 1.79233 24.4353 2.30928 23.7976 2.30928H21.3983C20.7606 2.30928 20.2437 1.79233 20.2437 1.15464ZM26.8416 1.15464C26.8416 0.51695 27.3586 0 27.9963 0H29.1959C30.7446 0 32 1.25545 32 2.80412V4.00375C32 4.64144 31.4831 5.15839 30.8454 5.15839C30.2077 5.15839 29.6907 4.64144 29.6907 4.00375V2.80412C29.6907 2.53083 29.4692 2.30928 29.1959 2.30928H27.9963C27.3586 2.30928 26.8416 1.79233 26.8416 1.15464ZM30.8454 7.0478C31.4831 7.0478 32 7.56475 32 8.20244V10.6017C32 11.2394 31.4831 11.7563 30.8454 11.7563C30.2077 11.7563 29.6907 11.2394 29.6907 10.6017V8.20244C29.6907 7.56475 30.2077 7.0478 30.8454 7.0478ZM1.15464 7.0478C1.79233 7.0478 2.30928 7.56475 2.30928 8.20244V10.6017C2.30928 11.2394 1.79233 11.7563 1.15464 11.7563C0.51695 11.7563 0 11.2394 0 10.6017V8.20244C0 7.56475 0.51695 7.0478 1.15464 7.0478ZM1.15464 13.6457C1.79233 13.6457 2.30928 14.1627 2.30928 14.8004V17.1996C2.30928 17.8373 1.79233 18.3543 1.15464 18.3543C0.51695 18.3543 0 17.8373 0 17.1996V14.8004C0 14.1627 0.51695 13.6457 1.15464 13.6457ZM30.8454 13.6457C31.4831 13.6457 32 14.1627 32 14.8004V17.1996C32 17.8373 31.4831 18.3543 30.8454 18.3543C30.2077 18.3543 29.6907 17.8373 29.6907 17.1996V14.8004C29.6907 14.1627 30.2077 13.6457 30.8454 13.6457ZM1.15464 20.2437C1.79233 20.2437 2.30928 20.7606 2.30928 21.3983V23.7976C2.30928 24.4353 1.79233 24.9522 1.15464 24.9522C0.51695 24.9522 0 24.4353 0 23.7976V21.3983C0 20.7606 0.51695 20.2437 1.15464 20.2437ZM30.8454 20.2437C31.4831 20.2437 32 20.7606 32 21.3983V23.7976C32 24.4353 31.4831 24.9522 30.8454 24.9522C30.2077 24.9522 29.6907 24.4353 29.6907 23.7976V21.3983C29.6907 20.7606 30.2077 20.2437 30.8454 20.2437ZM1.15464 26.8416C1.79233 26.8416 2.30928 27.3586 2.30928 27.9963V29.1959C2.30928 29.4692 2.53083 29.6907 2.80412 29.6907H4.00375C4.64144 29.6907 5.15839 30.2077 5.15839 30.8454C5.15839 31.4831 4.64144 32 4.00375 32H2.80412C1.25545 32 0 30.7446 0 29.1959V27.9963C0 27.3586 0.51695 26.8416 1.15464 26.8416ZM30.8454 26.8416C31.4831 26.8416 32 27.3586 32 27.9963V29.1959C32 30.7446 30.7446 32 29.1959 32H27.9963C27.3586 32 26.8416 31.4831 26.8416 30.8454C26.8416 30.2077 27.3586 29.6907 27.9963 29.6907H29.1959C29.4692 29.6907 29.6907 29.4692 29.6907 29.1959V27.9963C29.6907 27.3586 30.2077 26.8416 30.8454 26.8416ZM7.0478 30.8454C7.0478 30.2077 7.56475 29.6907 8.20244 29.6907H10.6017C11.2394 29.6907 11.7563 30.2077 11.7563 30.8454C11.7563 31.4831 11.2394 32 10.6017 32H8.20244C7.56475 32 7.0478 31.4831 7.0478 30.8454ZM13.6457 30.8454C13.6457 30.2077 14.1627 29.6907 14.8004 29.6907H17.1996C17.8373 29.6907 18.3543 30.2077 18.3543 30.8454C18.3543 31.4831 17.8373 32 17.1996 32H14.8004C14.1627 32 13.6457 31.4831 13.6457 30.8454ZM20.2437 30.8454C20.2437 30.2077 20.7606 29.6907 21.3983 29.6907H23.7976C24.4353 29.6907 24.9522 30.2077 24.9522 30.8454C24.9522 31.4831 24.4353 32 23.7976 32H21.3983C20.7606 32 20.2437 31.4831 20.2437 30.8454Z" fill="#333333"/>
</svg>
