<?xml version="1.0" encoding="UTF-8"?>
<svg width="32px" height="32px" viewBox="0 0 32 32" version="1.1" xmlns="http://www.w3.org/2000/svg" xmlns:xlink="http://www.w3.org/1999/xlink">
    <title>select-by-point</title>
    <g id="🧠-Symbols" stroke="none" stroke-width="1" fill="none" fill-rule="evenodd">
        <g id="select-by-point" fill="#333333">
            <rect id="boundbox" opacity="0" x="0" y="0" width="32" height="32"></rect>
            <g transform="translate(0.000000, 3.000000)" fill-rule="nonzero">
                <path d="M31.3,17.5 L29.9,16.1 C29.4,15.6 29.1,15 29,14.4 L28.7,12.7 L28.7,12.4 L28.6,12.3 C28.4,11.8 27.9,10.4 27.3,9.8 L26,8.5 C24.9,7.4 23,6.4 21,7.3 C20.6,7.5 20.4,7.5 20.2,7.4 C20,7.3 19.6,7.3 19.2,7.4 C18.7,7.5 18,7.9 17.7,8.2 L17.3,8.6 C17.2,8.7 17.2,8.7 16.9,8.9 L16.7,9 C16.6,9.1 16.6,9.1 16.5,9.1 L16.4,9.1 C16.1,9.2 15.7,9.4 15.1,10 C14.9,10.3 14.7,10.6 14.5,11 L9.3,5.8 C8.5,5 7.7,4.9 7.1,5 C6.5,5.1 5.9,5.4 5.7,5.7 C4.5,6.9 4.9,8.5 5.7,9.5 C5.9,9.7 6,9.9 6.2,10 L13.2,17 C12,16.6 10.7,16.7 9.9,17.4 C9.1,18 8.8,18.9 8.9,19.8 C8.9,19.9 8.9,20 9,20.2 C9.9,22.1 12.1,22.4 13.9,22.6 C14.9,22.7 16,22.9 16.7,23.3 C18.3,24.3 20,24.2 21,24.2 L21.3,24.2 C21.3,24.2 21.3,24.2 21.3,24.2 C21.8,24.2 22.8,25 23.3,25.5 C23.6,25.8 24.1,26 24.5,26 C24.5,26 24.5,26 24.6,26 C25,26 25.4,25.8 25.7,25.5 L31.5,19.7 C31.8,19.4 32,19 32,18.5 C31.8,18.2 31.6,17.8 31.3,17.5 Z M12.6,18.6 C14.3,19.2 15.9,19.3 15.9,19.3 C16.2,19.3 16.5,19.1 16.7,18.8 C16.9,18.5 16.8,18.1 16.5,17.8 L7.4,8.7 C7.3,8.6 7.2,8.5 7.1,8.3 C7.1,8.3 6.4,7.5 7,7 C7.1,6.9 7.6,6.6 8.2,7.2 L15.1,14.1 C15.4,14.4 16,14.4 16.3,14.1 C16.6,13.8 16.6,13.3 16.3,12.9 C16.2,12.8 15.7,12.2 16.4,11.3 C16.6,11.1 16.7,11 16.9,11 L17.1,10.9 C17.3,10.8 17.5,10.7 17.7,10.6 L17.9,10.5 C18.2,10.3 18.3,10.2 18.5,10 L18.7,9.7 C19,9.4 19.4,9.3 19.4,9.3 C19.5,9.3 19.6,9.3 19.8,9.3 C20.2,9.4 20.7,9.4 21.6,9 C22.6,8.5 23.8,9.1 24.6,9.9 L25.9,11.2 C26.1,11.4 26.6,12.4 26.8,13 L27.2,14.7 C27.4,15.7 27.9,16.6 28.6,17.3 L30,18.7 L24.4,24.3 C23.7,23.6 22.4,22.5 21.1,22.5 C21.1,22.5 21.1,22.5 21.1,22.5 L20.8,22.5 C19.8,22.5 18.6,22.6 17.5,21.9 C16.5,21.3 15.2,21.1 14,20.9 C12.5,20.7 11.1,20.5 10.6,19.6 C10.6,19.2 10.7,19 10.9,18.8 C11.3,18.4 12,18.4 12.6,18.6 Z" id="Shape"></path>
                <path d="M2.6,8.4 L1.2,8.4 C0.5,8.4 -1.33226763e-15,7.9 -1.33226763e-15,7.2 C-1.33226763e-15,6.5 0.5,6 1.2,6 L2.6,6 C3.3,6 3.8,6.5 3.8,7.2 C3.8,7.9 3.3,8.4 2.6,8.4 Z" id="Path"></path>
                <path d="M3.8,4.8 C3.5,4.8 3.2,4.7 3,4.5 L2,3.5 C1.5,3 1.5,2.3 2,1.8 C2.5,1.3 3.2,1.3 3.7,1.8 L4.7,2.8 C5.2,3.3 5.2,4 4.7,4.5 C4.4,4.6 4.1,4.8 3.8,4.8 Z" id="Path"></path>
                <path d="M7.3,3.8 C6.6,3.8 6.1,3.3 6.1,2.6 L6.1,1.2 C6.1,0.5 6.6,0 7.3,0 C8,0 8.5,0.5 8.5,1.2 L8.5,2.6 C8.5,3.3 7.9,3.8 7.3,3.8 Z" id="Path"></path>
                <path d="M4.6,11.4 L3.6,12.4 C3.1,12.9 2.4,12.9 1.9,12.4 C1.4,11.9 1.4,11.2 1.9,10.7 L2.9,9.7 C3.4,9.2 4.1,9.2 4.6,9.7 C5.1,10.2 5.1,10.9 4.6,11.4 Z" id="Path"></path>
                <path d="M12.5,3.9 L11.5,4.9 C11,5.4 10.3,5.4 9.8,4.9 C9.3,4.4 9.3,3.7 9.8,3.2 L10.8,2.2 C11.3,1.7 12,1.7 12.5,2.2 C13,2.7 13,3.4 12.5,3.9 Z" id="Path"></path>
            </g>
        </g>
    </g>
</svg>