<svg width="32" height="32" viewBox="0 0 32 32" fill="none" xmlns="http://www.w3.org/2000/svg">
<path fill-rule="evenodd" clip-rule="evenodd" d="M14.7909 0.0377414C15.1898 0.0127382 15.5931 0 16.0001 0C16.4071 0 16.8104 0.0127382 17.2092 0.0377414C17.7817 0.0736263 18.2167 0.566796 18.1808 1.13927C18.1449 1.71174 17.6518 2.14673 17.0793 2.11084C16.7237 2.08855 16.3638 2.07717 16.0001 2.07717C15.6364 2.07717 15.2765 2.08855 14.9209 2.11084C14.3484 2.14673 13.8553 1.71174 13.8194 1.13927C13.7835 0.566796 14.2185 0.0736263 14.7909 0.0377414ZM11.9169 1.47436C12.0832 2.02333 11.773 2.60315 11.224 2.76944C10.5249 2.9812 9.8586 3.23761 9.23125 3.53318C8.71236 3.77765 8.09354 3.55519 7.84907 3.0363C7.6046 2.51741 7.82706 1.89859 8.34594 1.65412C9.06709 1.31435 9.82819 1.02187 10.6218 0.781468C11.1708 0.615182 11.7506 0.925402 11.9169 1.47436ZM20.0833 1.47437C20.2496 0.925402 20.8294 0.615182 21.3784 0.781468C22.172 1.02187 22.9331 1.31435 23.6542 1.65411C24.1731 1.89859 24.3956 2.51741 24.1511 3.0363C23.9067 3.55519 23.2878 3.77765 22.7689 3.53318C22.1416 3.23761 21.4753 2.9812 20.7762 2.76944C20.2272 2.60315 19.917 2.02333 20.0833 1.47437ZM25.7712 4.09415C26.159 3.67155 26.816 3.64337 27.2386 4.03121C27.8662 4.60717 28.424 5.23579 28.8984 5.91005C29.2285 6.37918 29.1157 7.02704 28.6466 7.35709C28.1775 7.68714 27.5296 7.57439 27.1996 7.10527C26.8165 6.56072 26.359 6.04333 25.8341 5.56158C25.4115 5.17374 25.3834 4.51675 25.7712 4.09415ZM6.229 4.09415C6.61684 4.51675 6.58867 5.17374 6.16607 5.56158C5.64114 6.04333 5.18374 6.56072 4.80062 7.10527C4.47057 7.57439 3.82271 7.68714 3.35359 7.35709C2.88446 7.02704 2.77172 6.37918 3.10177 5.91005C3.57615 5.23579 4.134 4.60717 4.76157 4.03122C5.18417 3.64337 5.84116 3.67155 6.229 4.09415ZM2.60186 9.15265C3.16941 9.23567 3.56221 9.76306 3.47919 10.3306C3.43166 10.6556 3.40725 10.9858 3.40725 11.3206C3.40725 11.6554 3.43166 11.9856 3.47919 12.3105C3.56221 12.8781 3.16941 13.4055 2.60186 13.4885C2.0343 13.5715 1.50691 13.1787 1.42389 12.6112C1.36189 12.1873 1.33008 11.7566 1.33008 11.3206C1.33008 10.8845 1.36189 10.4538 1.42389 10.03C1.50691 9.46243 2.0343 9.06963 2.60186 9.15265ZM29.3983 9.15265C29.9659 9.06963 30.4933 9.46243 30.5763 10.03C30.6383 10.4538 30.6701 10.8845 30.6701 11.3206C30.6701 11.7566 30.6383 12.1873 30.5763 12.6112C30.4933 13.1787 29.9659 13.5715 29.3983 13.4885C28.8308 13.4055 28.438 12.8781 28.521 12.3105C28.5685 11.9856 28.5929 11.6554 28.5929 11.3206C28.5929 10.9858 28.5685 10.6556 28.521 10.3306C28.438 9.76306 28.8308 9.23567 29.3983 9.15265ZM28.6466 15.2841C29.1157 15.6141 29.2285 16.262 28.8984 16.7311C28.424 17.4054 27.8662 18.034 27.2386 18.6099C26.816 18.9978 26.159 18.9696 25.7712 18.547C25.3834 18.1244 25.4115 17.4674 25.8341 17.0796C26.359 16.5978 26.8165 16.0804 27.1996 15.5359C27.5296 15.0668 28.1775 14.954 28.6466 15.2841ZM3.35359 15.2841C3.82271 14.954 4.47057 15.0668 4.80062 15.5359C5.18374 16.0804 5.64115 16.5978 6.16607 17.0796C6.58867 17.4674 6.61684 18.1244 6.229 18.547C5.84116 18.9696 5.18417 18.9978 4.76157 18.6099C4.134 18.034 3.57615 17.4054 3.10177 16.7311C2.77172 16.262 2.88446 15.6141 3.35359 15.2841ZM24.1511 19.6049C24.3956 20.1237 24.1731 20.7426 23.6542 20.987C22.9331 21.3268 22.172 21.6193 21.3784 21.8597C20.8294 22.026 20.2496 21.7158 20.0833 21.1668C19.917 20.6178 20.2272 20.038 20.7762 19.8717C21.4753 19.66 22.1416 19.4036 22.7689 19.108C23.2878 18.8635 23.9067 19.086 24.1511 19.6049ZM13.8194 21.5019C13.8553 20.9294 14.3484 20.4944 14.9209 20.5303C15.2765 20.5526 15.6364 20.564 16.0001 20.564C16.3638 20.564 16.7237 20.5526 17.0793 20.5303C17.6518 20.4944 18.1449 20.9294 18.1808 21.5019C18.2167 22.0744 17.7817 22.5675 17.2092 22.6034C16.8104 22.6284 16.4071 22.6412 16.0001 22.6412C15.5931 22.6412 15.1898 22.6284 14.7909 22.6034C14.2185 22.5675 13.7835 22.0744 13.8194 21.5019Z" fill="#333333"/>
<path fill-rule="evenodd" clip-rule="evenodd" d="M7.79507 24.1553C8.36447 24.2262 8.76771 24.7384 8.69572 25.2992C8.66854 25.5109 8.65334 25.7421 8.65334 25.9954C8.65334 26.2374 8.66601 26.475 8.68983 26.7078C8.74737 27.2703 8.33109 27.7722 7.76005 27.8289C7.189 27.8855 6.67943 27.4755 6.62189 26.913C6.5913 26.614 6.57493 26.3079 6.57493 25.9954C6.57493 25.6612 6.595 25.3441 6.63372 25.0424C6.70571 24.4816 7.22567 24.0844 7.79507 24.1553Z" fill="#333333"/>
<path fill-rule="evenodd" clip-rule="evenodd" d="M8.46107 28.6143C8.98759 28.3863 9.59504 28.6227 9.81784 29.1424C9.90193 29.3386 10.0062 29.5454 10.1349 29.7636C10.2578 29.9722 10.3893 30.1704 10.5281 30.3588C10.8633 30.8141 10.7595 31.4579 10.2964 31.7967C9.83325 32.1355 9.18605 32.0411 8.85085 31.5858C8.67263 31.3437 8.5031 31.0883 8.3444 30.8191C8.1747 30.5312 8.03095 30.2479 7.91111 29.9683C7.68831 29.4486 7.93454 28.8424 8.46107 28.6143Z" fill="#333333"/>
<path fill-rule="evenodd" clip-rule="evenodd" d="M7.0098 16.7314C7.40783 16.3476 7.88584 16.0349 8.42925 15.8216C8.97265 15.6083 9.53572 15.5122 10.0885 15.5228C10.662 15.5337 11.1181 16.0074 11.1072 16.5809C11.0963 17.1544 10.6225 17.6105 10.049 17.5995C9.76442 17.5941 9.47308 17.6433 9.18828 17.7551C8.90349 17.8669 8.65651 18.0291 8.45159 18.2267C8.03867 18.6248 7.38119 18.6128 6.98305 18.1999C6.58491 17.787 6.59689 17.1295 7.0098 16.7314ZM11.6501 16.8177C12.0631 16.4196 12.7205 16.4316 13.1187 16.8445C13.5025 17.2425 13.8151 17.7205 14.0285 18.2639C14.2418 18.8073 14.3378 19.3704 14.3273 19.9232C14.3164 20.4967 13.8426 20.9528 13.2691 20.9419C12.6956 20.931 12.2396 20.4572 12.2505 19.8837C12.2559 19.5991 12.2067 19.3078 12.0949 19.023C11.9831 18.7382 11.821 18.4912 11.6234 18.2863C11.2253 17.8734 11.2372 17.2159 11.6501 16.8177ZM6.74621 18.7429C7.3197 18.7538 7.77577 19.2275 7.76486 19.801C7.75944 20.0856 7.80861 20.377 7.92041 20.6618C8.03221 20.9466 8.19438 21.1935 8.39196 21.3985C8.7901 21.8114 8.77812 22.4689 8.36521 22.867C7.9523 23.2651 7.29481 23.2532 6.89667 22.8402C6.51289 22.4422 6.20021 21.9642 5.98689 21.4208C5.77357 20.8774 5.67755 20.3143 5.68806 19.7615C5.69897 19.188 6.17272 18.732 6.74621 18.7429ZM13.0323 21.4848C13.4304 21.8977 13.4185 22.5552 13.0055 22.9534C12.6075 23.3372 12.1295 23.6498 11.5861 23.8632C11.0427 24.0765 10.4796 24.1725 9.92682 24.162C9.35333 24.1511 8.89726 23.6773 8.90817 23.1038C8.91908 22.5303 9.39283 22.0743 9.96632 22.0852C10.2509 22.0906 10.5423 22.0414 10.8271 21.9296C11.1119 21.8178 11.3588 21.6557 11.5638 21.4581C11.9767 21.0599 12.6342 21.0719 13.0323 21.4848Z" fill="#333333"/>
</svg>
