<?xml version="1.0" encoding="UTF-8"?>
<svg width="32px" height="32px" viewBox="0 0 32 32" version="1.1" xmlns="http://www.w3.org/2000/svg" xmlns:xlink="http://www.w3.org/1999/xlink">
    <title>select-by-polygon</title>
    <g id="🧠-Symbols" stroke="none" stroke-width="1" fill="none" fill-rule="evenodd">
        <g id="select-by-polygon" fill="#333333" transform="translate(-0.000000, 0.000000)">
            <rect id="boundbox" opacity="0" x="0" y="0" width="32" height="32"></rect>
            <g transform="translate(0.000000, 1.000000)">
                <path d="M31.2,21 L29.8,19.6 C29.3,19.1 29,18.5 28.9,17.9 L28.6,16.2 L28.6,15.9 L28.5,15.8 C28.3,15.3 27.8,13.9 27.2,13.3 L25.9,12 C24.8,10.9 22.9,9.9 20.9,10.8 C20.5,11 20.3,11 20.1,10.9 C19.9,10.8 19.5,10.8 19.1,10.9 C18.6,11 17.9,11.4 17.6,11.7 L17.2,12.1 C17.1,12.2 17.1,12.2 16.8,12.4 L16.6,12.5 C16.5,12.6 16.5,12.6 16.4,12.6 L16.3,12.6 C16,12.7 15.6,12.9 15,13.5 C14.8,13.8 14.6,14.1 14.4,14.5 L9.2,9.3 C8.4,8.5 7.6,8.4 7,8.5 C6.4,8.6 5.8,8.9 5.6,9.2 C4.4,10.4 4.8,12 5.6,13 C5.8,13.2 5.9,13.4 6.1,13.5 L13.1,20.5 C11.9,20.1 10.6,20.2 9.8,20.9 C9,21.5 8.7,22.4 8.8,23.3 C8.8,23.4 8.8,23.5 8.9,23.7 C9.8,25.6 12,25.9 13.8,26.1 C14.8,26.2 15.9,26.4 16.6,26.8 C18.2,27.8 19.9,27.7 20.9,27.7 L21.2,27.7 C21.2,27.7 21.2,27.7 21.2,27.7 C21.7,27.7 22.7,28.5 23.2,29 C23.5,29.3 24,29.5 24.4,29.5 C24.4,29.5 24.4,29.5 24.5,29.5 C24.9,29.5 25.3,29.3 25.6,29 L31.4,23.2 C31.7,22.9 31.9,22.5 31.9,22 C31.7,21.7 31.5,21.3 31.2,21 Z M12.5,22.1 C14.2,22.7 15.8,22.8 15.8,22.8 C16.1,22.8 16.4,22.6 16.6,22.3 C16.8,22 16.7,21.6 16.4,21.3 L7.3,12.2 C7.2,12.1 7.1,12 7,11.8 C7,11.8 6.3,11 6.9,10.5 C7,10.4 7.5,10.1 8.1,10.7 L15,17.6 C15.3,17.9 15.9,17.9 16.2,17.6 C16.5,17.3 16.5,16.8 16.2,16.4 C16.1,16.3 15.6,15.7 16.3,14.8 C16.5,14.6 16.6,14.5 16.8,14.5 L17,14.4 C17.2,14.3 17.4,14.2 17.6,14.1 L17.8,14 C18.1,13.8 18.2,13.7 18.4,13.5 L18.6,13.2 C18.9,12.9 19.3,12.8 19.3,12.8 C19.4,12.8 19.5,12.8 19.7,12.8 C20.1,12.9 20.6,12.9 21.5,12.5 C22.5,12 23.7,12.6 24.5,13.4 L25.8,14.7 C26,14.9 26.5,15.9 26.7,16.5 L27.1,18.2 C27.3,19.2 27.8,20.1 28.5,20.8 L29.9,22.2 L24.3,27.8 C23.6,27.1 22.3,26 21,26 C21,26 21,26 21,26 L20.7,26 C19.7,26 18.5,26.1 17.4,25.4 C16.4,24.8 15.1,24.6 13.9,24.4 C12.4,24.2 11,24 10.5,23.1 C10.5,22.7 10.6,22.5 10.8,22.3 C11.2,21.9 11.9,21.9 12.5,22.1 Z" id="Shape" fill-rule="nonzero"></path>
                <circle id="Oval" cx="7.9" cy="5.3" r="1.5"></circle>
                <circle id="Oval" cx="2.7" cy="10.8" r="1.5"></circle>
                <circle id="Oval" cx="13.9" cy="1.5" r="1.5"></circle>
                <circle id="Oval" cx="1.7" cy="2.1" r="1.5"></circle>
                <circle id="Oval" cx="14.8" cy="10" r="1.5"></circle>
                <circle id="Oval" cx="1.5" cy="17.6" r="1.5"></circle>
                <polygon id="Path" fill-rule="nonzero" points="7.4 20.1 1 17.9 2.2 10.8 1.1 1.2 7.9 4.7 14.3 0.6 15.3 9.9 14.3 10 13.5 2.3 7.9 5.9 2.3 3 3.2 10.8 2.1 17.2 7.8 19.2"></polygon>
                <circle id="Oval" cx="7.6" cy="19.7" r="1.5"></circle>
            </g>
        </g>
    </g>
</svg>