<svg width="32" height="32" viewBox="0 0 32 32" fill="none" xmlns="http://www.w3.org/2000/svg">
<path fill-rule="evenodd" clip-rule="evenodd" d="M14.4799 0.0713616C14.9806 0.0241242 15.4876 0 16 0C16.5124 0 17.0194 0.0241241 17.5201 0.0713611C18.2383 0.139115 18.7656 0.776225 18.6978 1.49439C18.63 2.21255 17.9929 2.73981 17.2748 2.67206C16.8555 2.6325 16.4303 2.61224 16 2.61224C15.5697 2.61224 15.1445 2.6325 14.7252 2.67206C14.0071 2.73981 13.37 2.21255 13.3022 1.49439C13.2344 0.776226 13.7617 0.139115 14.4799 0.0713616ZM20.9179 2.08746C21.218 1.43148 21.993 1.14296 22.649 1.44303C23.5782 1.8681 24.4594 2.37935 25.2824 2.96641C25.8696 3.38532 26.0061 4.20098 25.5871 4.78822C25.1682 5.37547 24.3526 5.51192 23.7653 5.093C23.0764 4.60152 22.3391 4.17387 21.5623 3.81853C20.9064 3.51847 20.6178 2.74344 20.9179 2.08746ZM11.0821 2.08746C11.3821 2.74344 11.0936 3.51847 10.4377 3.81854C9.66085 4.17388 8.92364 4.60152 8.23467 5.09301C7.64742 5.51192 6.83177 5.37547 6.41285 4.78823C5.99393 4.20098 6.13039 3.38533 6.71763 2.96641C7.54057 2.37935 8.42175 1.86811 9.351 1.44303C10.007 1.14296 10.782 1.43148 11.0821 2.08746ZM27.2118 6.41285C27.799 5.99393 28.6147 6.13039 29.0336 6.71763C29.6206 7.54057 30.1319 8.42175 30.557 9.351C30.857 10.007 30.5685 10.782 29.9125 11.0821C29.2566 11.3821 28.4815 11.0936 28.1815 10.4377C27.8261 9.66085 27.3985 8.92364 26.907 8.23467C26.4881 7.64742 26.6245 6.83177 27.2118 6.41285ZM4.78822 6.41285C5.37547 6.83177 5.51192 7.64742 5.09301 8.23467C4.60152 8.92364 4.17387 9.66085 3.81853 10.4377C3.51847 11.0936 2.74344 11.3822 2.08746 11.0821C1.43148 10.782 1.14296 10.007 1.44303 9.35101C1.8681 8.42176 2.37935 7.54057 2.96641 6.71763C3.38532 6.13039 4.20098 5.99393 4.78822 6.41285ZM30.5056 13.3022C31.2238 13.2344 31.8609 13.7617 31.9286 14.4799C31.9759 14.9806 32 15.4876 32 16C32 16.5123 31.9759 17.0194 31.9286 17.5201C31.8609 18.2383 31.2238 18.7656 30.5056 18.6978C29.7874 18.63 29.2602 17.9929 29.3279 17.2748C29.3675 16.8555 29.3878 16.4303 29.3878 16C29.3878 15.5697 29.3675 15.1445 29.3279 14.7252C29.2602 14.0071 29.7874 13.3699 30.5056 13.3022ZM1.49439 13.3022C2.21255 13.3699 2.73981 14.0071 2.67206 14.7252C2.6325 15.1445 2.61224 15.5697 2.61224 16C2.61224 16.4303 2.6325 16.8555 2.67206 17.2748C2.73981 17.9929 2.21255 18.63 1.49439 18.6978C0.776226 18.7656 0.139115 18.2383 0.0713616 17.5201C0.0241243 17.0194 0 16.5124 0 16C0 15.4876 0.0241242 14.9806 0.0713614 14.4799C0.139115 13.7617 0.776226 13.2344 1.49439 13.3022ZM29.9125 20.9179C30.5685 21.218 30.857 21.993 30.557 22.649C30.1319 23.5782 29.6206 24.4594 29.0336 25.2824C28.6147 25.8696 27.799 26.0061 27.2118 25.5871C26.6245 25.1682 26.4881 24.3526 26.907 23.7653C27.3985 23.0764 27.8261 22.3391 28.1815 21.5623C28.4815 20.9064 29.2566 20.6178 29.9125 20.9179ZM2.08746 20.9179C2.74344 20.6179 3.51847 20.9064 3.81854 21.5623C4.17388 22.3392 4.60152 23.0764 5.09301 23.7653C5.51192 24.3526 5.37547 25.1682 4.78823 25.5872C4.20098 26.0061 3.38533 25.8696 2.96641 25.2824C2.37935 24.4594 1.86811 23.5782 1.44303 22.649C1.14296 21.993 1.43148 21.218 2.08746 20.9179ZM25.5872 27.2118C26.0061 27.799 25.8696 28.6147 25.2824 29.0336C24.4594 29.6206 23.5782 30.1319 22.649 30.557C21.993 30.857 21.218 30.5685 20.9179 29.9125C20.6179 29.2566 20.9064 28.4815 21.5623 28.1815C22.3392 27.8261 23.0764 27.3985 23.7653 26.907C24.3526 26.4881 25.1682 26.6245 25.5872 27.2118ZM6.41285 27.2118C6.83177 26.6245 7.64742 26.4881 8.23467 26.907C8.92364 27.3985 9.66085 27.8261 10.4377 28.1815C11.0936 28.4815 11.3822 29.2566 11.0821 29.9125C10.782 30.5685 10.007 30.857 9.35101 30.557C8.42176 30.1319 7.54057 29.6206 6.71763 29.0336C6.13039 28.6147 5.99393 27.799 6.41285 27.2118ZM13.3022 30.5056C13.37 29.7874 14.0071 29.2602 14.7252 29.3279C15.1445 29.3675 15.5697 29.3878 16 29.3878C16.4303 29.3878 16.8555 29.3675 17.2748 29.3279C17.9929 29.2602 18.6301 29.7874 18.6978 30.5056C18.7656 31.2238 18.2383 31.8609 17.5201 31.9286C17.0194 31.9759 16.5124 32 16 32C15.4876 32 14.9806 31.9759 14.4799 31.9286C13.7617 31.8609 13.2344 31.2238 13.3022 30.5056Z" fill="#333333"/>
</svg>
