<?xml version="1.0" encoding="UTF-8"?>
<svg width="32px" height="32px" viewBox="0 0 32 32" version="1.1" xmlns="http://www.w3.org/2000/svg" xmlns:xlink="http://www.w3.org/1999/xlink">
    <title>5B54DDC4-0F0E-4644-A5AE-B05AB482F65F</title>
    <g id="🧠-Symbols" stroke="none" stroke-width="1" fill="none" fill-rule="evenodd">
        <g id="icon_select-polygon">
            <g>
                <rect id="boundbox" fill="#FFFFFF" opacity="0" x="0" y="0" width="32" height="32"></rect>
                <path d="M22.3190435,28 C22.26588,28 22.2113534,27.9945327 22.1568267,27.9808645 L14.1386803,26.0222108 C13.5484292,25.8322228 13.0931315,25.4385785 12.8395825,24.9301213 C12.5860335,24.4216641 12.5451385,23.82163 12.7278028,23.2817359 C12.9022882,22.7486759 13.293517,22.2935247 13.800615,22.0392961 C14.3104393,21.7850675 14.9088695,21.7440629 15.444594,21.9285837 L16.0143977,22.0652657 L8.62467113,14.6557322 C7.79177629,13.8206049 7.79177629,12.4619854 8.62467113,11.6268581 C9.4562028,10.790364 10.8125536,10.7917308 11.6440853,11.6268581 L14.3499712,14.3386298 C14.4522087,14.1035367 14.6007938,13.8821118 14.7930003,13.6893901 C15.3369038,13.142662 16.1057298,12.9554076 16.8063975,13.1221597 C16.8977297,12.7640527 17.0844835,12.4237144 17.3639327,12.1421494 C18.1968275,11.3056553 19.5518152,11.3070221 20.38471,12.1421494 L22.4403654,14.2046814 C22.7075461,14.4725782 22.7075461,14.9044935 22.4403654,15.1710235 C22.1745479,15.4389203 21.7437872,15.4389203 21.4766065,15.1710235 L19.4209512,13.1084915 C19.1183282,12.8064241 18.6275882,12.8064241 18.3276915,13.1084915 C18.0318844,13.4050915 18.0277949,13.8848455 18.3126967,14.1882796 L19.8707962,15.7519222 C20.1366137,16.0184521 20.1366137,16.4503674 19.8707962,16.7182642 C19.6036155,16.9847942 19.1728549,16.9847942 18.9070374,16.7182642 L17.3802907,15.1860585 C17.374838,15.181958 17.3693854,15.1764908 17.3639327,15.1710235 L17.3366694,15.1436871 L16.8500188,14.6557322 C16.548759,14.3536649 16.058019,14.3536649 15.7581223,14.6557322 C15.4554993,14.9577995 15.4554993,15.448488 15.7581223,15.7519222 L17.2998639,17.2977961 C17.5656814,17.5643261 17.5656814,17.9976081 17.2998639,18.2641381 C17.0340463,18.5306681 16.6019225,18.5306681 16.336105,18.2641381 L10.6803265,12.594567 C10.3790666,12.2924997 9.88832664,12.2911328 9.58842997,12.594567 C9.28717013,12.8952675 9.28717013,13.3873228 9.58842997,13.6893901 L18.6793885,22.8047156 C18.6984729,22.8224842 18.7148309,22.8416197 18.732552,22.8607552 C18.7938945,22.9345635 18.8361527,23.0193064 18.8620529,23.1081497 C18.887953,23.1997267 18.8947689,23.2995046 18.879774,23.3992824 C18.8675055,23.478558 18.8429685,23.5564668 18.8020735,23.6275415 C18.7611785,23.7013498 18.708015,23.7669571 18.6439462,23.8188963 C18.5676089,23.8845037 18.4803662,23.9296088 18.3876709,23.9555784 C18.2977019,23.9801811 18.2050065,23.9870152 18.1082217,23.973347 C18.0836847,23.9692466 18.0591477,23.9637793 18.0346107,23.9569452 L15.0642705,23.2393645 C14.8052688,23.1559884 14.5967043,23.1696566 14.4099505,23.2626004 C14.2272862,23.3541774 14.0841537,23.5195626 14.021448,23.715018 C13.9519265,23.920041 13.9655582,24.1318982 14.0596167,24.3177858 C14.152312,24.5050402 14.3118025,24.643089 14.5094617,24.7073296 L22.4798972,26.6523151 C22.8452259,26.7425252 23.0701484,27.1115667 22.9801794,27.4778746 C22.9052052,27.7908765 22.6257561,28 22.3190435,28" id="Fill-2" fill="#112E51"></path>
                <path d="M1.05149822,4.7122229 L2.18425597,4.90909091 L2.90909091,3.45291845 L9.91207116e-13,2 L1.05149822,4.7122229 Z M19.1457523,3.52842713 L19.489987,4.13333333 L18.9090909,5.87724868 L20.3674783,6.36363636 L21.8181818,2.00769601 L21.8135715,2 L19.1457523,3.52842713 Z M2.90909091,4.91071792 L5.23662384,6.36363636 L5.81818182,4.9074639 L3.49064889,3.45454545 L2.90909091,4.91071792 Z M16,5.00835328 L16.647768,6.36363636 L18.9090909,4.81139172 L18.2626263,3.45454545 L16,5.00835328 Z M1.45454545,5.3808707 L2.72639438,7.81818182 L4.36363636,7.34509516 L3.09354414,4.90909091 L1.45454545,5.3808707 Z M7.27272727,7.81818182 L9.60182062,9.27272727 L10.1818182,7.81655481 L7.85402528,6.36363636 L7.27272727,7.81818182 Z M11.6363636,7.91660971 L12.2838416,9.27272727 L14.5454545,7.71975393 L13.8979766,6.36363636 L11.6363636,7.91660971 Z M17.4545455,10.3120637 L19.200736,10.7272727 L20.3636364,8.23339082 L18.6174458,7.81818182 L17.4545455,10.3120637 Z M2.90909091,9.74581393 L4.17918314,12.1818182 L5.81818182,11.7087315 L4.54633289,9.27272727 L2.90909091,9.74581393 Z M2.90909091,16.0482075 L4.50323137,16.5454545 L5.81818182,14.1336107 L4.22404136,13.6363636 L2.90909091,16.0482075 Z M1.45454545,20.4120669 L3.04790645,20.9090909 L4.36363636,18.4983286 L2.77027537,18 L1.45454545,20.4120669 Z M5.81818182,20.5348445 L6.2893621,22.3636364 L8.72727273,21.3122739 L8.32020875,19.4545455 L5.81818182,20.5348445 Z M1.49894918,21.7969668 L1.67742631,22.3762602 L0.712615186,21.9442448 L9.91207116e-13,23.8181818 L1.64897343,23.2220566 L1.79899768,22.7704041 L1.90892925,23.1280792 L4.36363636,22.2402034 L3.9536563,20.9090909 L1.49894918,21.7969668 Z" id="Fill-1" fill="#007E8E"></path>
                <path d="M23.3065325,28 C22.9775378,28 22.6458353,27.9608411 22.3209022,27.8811247 C21.9567064,27.793017 21.731961,27.415413 21.8186098,27.0392075 C21.9039047,26.6644005 22.2681006,26.432244 22.6322964,26.5203516 C23.6314656,26.7664935 24.6969753,26.4518234 25.4199514,25.7050066 L28.7897781,22.2240568 C29.9324595,21.042296 29.9324595,19.1193124 28.7897781,17.9389502 L22.6620819,11.6091877 C22.3723499,11.3099015 21.8687037,11.308503 21.5776178,11.6091877 C21.2784086,11.9182636 21.2784086,12.4217356 21.5776178,12.7308115 C21.8416259,13.0035256 21.8416259,13.4454621 21.5776178,13.7195747 C21.3122558,13.9922887 20.8844272,13.9922887 20.6204191,13.7195747 C19.7931936,12.8650707 19.7931936,11.4749285 20.6204191,10.6204245 C21.4219207,9.79249271 22.8191329,9.79389124 23.6192806,10.6204245 L29.7469768,16.950187 C31.4176744,18.6759773 31.4176744,21.4856311 29.7469768,23.2128199 L26.3771501,26.6937697 C25.5607557,27.5370854 24.4424444,28 23.3065325,28" id="Fill-4" fill="#112E51"></path>
            </g>
        </g>
    </g>
</svg>