<?xml version="1.0" encoding="UTF-8"?>
<svg width="32px" height="32px" viewBox="0 0 32 32" version="1.1" xmlns="http://www.w3.org/2000/svg" xmlns:xlink="http://www.w3.org/1999/xlink">
    <title>show</title>
    <g id="🧠-Symbols" stroke="none" stroke-width="1" fill="none" fill-rule="evenodd">
        <g id="show" fill="#333333">
            <rect id="boundbox" opacity="0" x="0" y="0" width="32" height="32"></rect>
            <g transform="translate(1.550000, 6.400000)" fill-rule="nonzero" id="eeye_00000134943243465019653630000005282649240303735722_">
                <path d="M14.4,19.2 C20.6,19.2 26,15.6 28.7,10.3 C28.8,10.1 28.9,9.8 28.9,9.6 C28.9,9.4 28.8,9.1 28.7,8.9 C25.9,3.6 20.6,1.77635684e-15 14.4,1.77635684e-15 C8.2,1.77635684e-15 2.8,3.6 0.1,8.9 C1.77635684e-15,9.1 1.77635684e-15,9.4 1.77635684e-15,9.6 C1.77635684e-15,9.8 0.1,10.1 0.2,10.3 C2.9,15.6 8.2,19.2 14.4,19.2 Z M14.4,16.8 C9.5,16.8 4.9,14 2.5,9.6 C4.9,5.1 9.5,2.4 14.4,2.4 C19.3,2.4 23.9,5.1 26.3,9.6 C23.9,14.1 19.3,16.8 14.4,16.8 Z M14.4,15.2 C17.5,15.2 20,12.7 20,9.6 C20,6.5 17.5,4 14.4,4 C14.4,4 14.4,4 14.4,4 C14,4 13.3,4.1 12.8,4.3 C13,4.6 13.2,5.2 13.2,5.6 C13.2,7.2 11.9,8.4 10.4,8.4 C10,8.4 9.4,8.2 9,8 C8.9,8.5 8.8,9.1 8.8,9.6 C8.8,12.7 11.3,15.2 14.4,15.2 Z"></path>
            </g>
        </g>
    </g>
</svg>