<?xml version="1.0" encoding="UTF-8"?>
<svg width="32px" height="32px" viewBox="0 0 32 32" version="1.1" xmlns="http://www.w3.org/2000/svg" xmlns:xlink="http://www.w3.org/1999/xlink">
    <title>social-youtube</title>
    <g id="🧠-Symbols" stroke="none" stroke-width="1" fill="none" fill-rule="evenodd">
        <g id="social-youtube" fill="#333333">
            <rect id="boundbox" opacity="0" x="0" y="0" width="32" height="32"></rect>
            <g transform="translate(1.000000, 5.000000)" id="Shape">
                <path d="M11.9,6.1 L11.9,14.7 L20,10.4 L11.9,6.1 Z M15.5,1.77635684e-15 C17.1,1.77635684e-15 22,1.77635684e-15 25.5,0.3 C26.1,0.4 27.4,0.4 28.5,1.6 C29.4,2.5 29.7,4.6 29.7,4.6 C29.7,4.6 30,7.1 30,9.5 L30,11.8 C30,14.3 29.7,16.7 29.7,16.7 C29.7,16.7 29.7,16.7 29.7,16.8 L29.7,17 C29.6,17.6 29.3,19 28.6,19.8 C27.5,21 26.2,21 25.6,21.1 C24.7,21.2 23.8,21.2 22.8,21.3 L22.2,21.3 C19,21.4 15.9,21.4 15.2,21.4 L15.1,21.4 C14.9,21.4 12.2,21.4 9.6,21.3 L9,21.3 C7.3,21.3 5.8,21.2 4.9,21.1 C4.2,21 2.7,21 1.6,19.8 C0.9,19.1 0.6,17.6 0.5,17 L0.5,16.8 C0.5,16.7 0.5,16.7 0.5,16.7 C0.5,16.7 0,14.3 0,11.9 L0,9.3 C0,7.1 0.3,5 0.3,4.7 L0.3,4.7 C0.3,4.7 0.6,2.6 1.5,1.7 C2.6,0.5 3.9,0.5 4.5,0.4 C8,1.77635684e-15 13,1.77635684e-15 14.5,1.77635684e-15 L15.5,1.77635684e-15 Z"></path>
            </g>
        </g>
    </g>
</svg>