<?xml version="1.0" encoding="UTF-8"?>
<svg width="32px" height="32px" viewBox="0 0 32 32" version="1.1" xmlns="http://www.w3.org/2000/svg" xmlns:xlink="http://www.w3.org/1999/xlink">
    <title>social-instagram</title>
    <g id="🧠-Symbols" stroke="none" stroke-width="1" fill="none" fill-rule="evenodd">
        <g id="social-instagram" fill="#333333">
            <rect id="boundbox" opacity="0" x="0" y="0" width="32" height="32"></rect>
            <g transform="translate(1.000000, 1.000000)" fill-rule="nonzero" id="Shape">
                <path d="M15,9.1 C11.7,9.1 9,11.7 9,15 C9,16.6 9.7,18.1 10.8,19.2 C11.9,20.3 13.5,20.9 15,20.9 C18.3,20.9 21,18.3 21,15 C21,13.4 20.3,11.9 19.2,10.8 C18.1,9.7 16.6,9.1 15,9.1 Z M26.6,12.7 L24,12.7 C24.2,13.5 24.4,14.4 24.4,15.3 C24.4,20.3 20.2,24.3 15.1,24.3 C9.9,24.3 5.8,20.3 5.8,15.3 C5.8,14.4 5.9,13.6 6.2,12.7 L3.3,12.7 L3.3,25.4 C3.3,25.7 3.4,26 3.6,26.2 C3.8,26.4 4.1,26.5 4.4,26.5 L25.3,26.5 C25.6,26.5 25.9,26.4 26.1,26.2 C26.3,26 26.4,25.7 26.4,25.4 L26.6,12.7 Z M21.8,3.3 C21,3.3 20.4,3.9 20.4,4.7 L20.4,7.9 C20.4,8.7 21,9.3 21.8,9.3 L25.2,9.3 C26,9.3 26.6,8.7 26.6,7.9 L26.6,4.7 C26.6,3.9 26,3.3 25.2,3.3 L21.8,3.3 Z M3.8,0 L26.1,0 C27.1,0 28.1,0.4 28.8,1.1 C29.6,1.8 30,2.8 30,3.8 L30,26.1 C30,27.1 29.6,28.1 28.9,28.8 C28.2,29.5 27.2,29.9 26.2,29.9 L3.8,29.9 C2.8,29.9 1.8,29.5 1.1,28.8 C0.4,28.1 0,27.2 0,26.2 L0,3.8 C0,2.8 0.4,1.8 1.1,1.1 C1.8,0.4 2.8,0 3.8,0 Z"></path>
            </g>
        </g>
    </g>
</svg>