<svg width="32" height="32" viewBox="0 0 32 32" fill="none" xmlns="http://www.w3.org/2000/svg">
<path d="M9.12322 9.32303L15.0232 3.42303C15.266 3.18022 15.6247 3.0498 16 3.0498C16.3172 3.0498 16.6249 3.14344 16.8593 3.32086L16.964 3.41114L22.8768 9.32303C23.3744 9.82066 23.3744 10.779 22.8768 11.2766C22.634 11.5194 22.2753 11.6498 21.9 11.6498L21.7405 11.6419C21.4246 11.6102 21.1313 11.4847 20.9232 11.2766L17.349 7.7018L17.35 27.5998C17.35 28.3379 16.7381 28.9498 16 28.9498L15.8712 28.9436C15.1921 28.8774 14.65 28.2945 14.65 27.5998L14.649 7.7028L11.0768 11.2766C10.834 11.5194 10.4753 11.6498 10.1 11.6498C9.72468 11.6498 9.36603 11.5194 9.12322 11.2766C8.62559 10.779 8.62559 9.82066 9.12322 9.32303Z" fill="#333333"/>
</svg>
