<svg width="32" height="32" viewBox="0 0 32 32" fill="none" xmlns="http://www.w3.org/2000/svg">
<path fill-rule="evenodd" clip-rule="evenodd" d="M19.9707 10.2353C19.9707 9.55305 20.5238 9 21.206 9H30.2647C30.7376 9 31.169 9.26997 31.3757 9.69529C31.5824 10.1206 31.5282 10.6266 31.236 10.9984L23.7475 20.5292H30.2647C30.9469 20.5292 31.5 21.0822 31.5 21.7644C31.5 22.4466 30.9469 22.9997 30.2647 22.9997H21.206C20.7331 22.9997 20.3017 22.7297 20.095 22.3044C19.8883 21.8791 19.9425 21.3731 20.2347 21.0013L27.7232 11.4705H21.206C20.5238 11.4705 19.9707 10.9175 19.9707 10.2353Z" fill="#333333"/>
<path fill-rule="evenodd" clip-rule="evenodd" d="M7.39501 9.00025C7.8758 9.00992 8.30729 9.29773 8.50091 9.73792L13.5721 21.2671C13.8467 21.8916 13.5632 22.6205 12.9387 22.8951C12.3142 23.1698 11.5853 22.8863 11.3106 22.2618L10.0918 19.4908H4.22165L2.84539 22.3068C2.54583 22.9198 1.8061 23.1738 1.19316 22.8742C0.580219 22.5747 0.326171 21.835 0.62573 21.222L6.26035 9.69288C6.4715 9.26082 6.91421 8.99058 7.39501 9.00025ZM5.42907 17.0203H9.0051L7.31119 13.1692L5.42907 17.0203Z" fill="#333333"/>
<path fill-rule="evenodd" clip-rule="evenodd" d="M14.5 16C14.5 15.4477 14.9477 15 15.5 15H17.5C18.0523 15 18.5 15.4477 18.5 16C18.5 16.5523 18.0523 17 17.5 17H15.5C14.9477 17 14.5 16.5523 14.5 16Z" fill="#333333"/>
</svg>
