<svg width="32" height="32" viewBox="0 0 32 32" fill="none" xmlns="http://www.w3.org/2000/svg">
<path d="M9.34102 20.6157C9.92489 20.2307 10.6902 20.2614 11.1518 20.723L14.725 24.2968V4.3998C14.725 3.66173 15.337 3.0498 16.075 3.0498L16.2039 3.05606C16.883 3.12223 17.425 3.70515 17.425 4.3998V24.2958L20.9983 20.723C21.4959 20.2254 22.4542 20.2254 22.9518 20.723C23.4494 21.2207 23.4494 22.179 22.9518 22.6766L17.0518 28.5766C16.809 28.8194 16.4504 28.9498 16.075 28.9498C15.7578 28.9498 15.4502 28.8562 15.2157 28.6787L15.111 28.5885L9.19826 22.6766C8.59719 22.0755 8.59719 21.2019 9.21886 20.7046L9.34102 20.6157Z" fill="#333333"/>
</svg>
