<svg width="32" height="32" viewBox="0 0 32 32" fill="none" xmlns="http://www.w3.org/2000/svg">
<path d="M2.50313 20.6157C3.087 20.2307 3.85233 20.2614 4.31392 20.723L7.88714 24.2968V4.3998C7.88714 3.66173 8.49907 3.0498 9.23714 3.0498L9.36598 3.05606C10.0451 3.12223 10.5871 3.70515 10.5871 4.3998V24.2958L14.1604 20.723C14.658 20.2254 15.6163 20.2254 16.1139 20.723C16.6115 21.2207 16.6115 22.179 16.1139 22.6766L10.2139 28.5766C9.97111 28.8194 9.61246 28.9498 9.23714 28.9498C8.91993 28.9498 8.61228 28.8562 8.37783 28.6787L8.27311 28.5885L2.36037 22.6766C1.7593 22.0755 1.7593 21.2019 2.38097 20.7046L2.50313 20.6157Z" fill="#333333"/>
<path d="M15.9604 9.32303L21.8604 3.42303C22.1032 3.18022 22.4618 3.0498 22.8371 3.0498C23.1544 3.0498 23.462 3.14344 23.6965 3.32086L23.8012 3.41114L29.7139 9.32303C30.2115 9.82066 30.2115 10.779 29.7139 11.2766C29.4711 11.5194 29.1125 11.6498 28.7371 11.6498L28.5776 11.6419C28.2617 11.6102 27.9685 11.4847 27.7604 11.2766L24.1861 7.7018L24.1871 27.5998C24.1871 28.3379 23.5752 28.9498 22.8371 28.9498L22.7083 28.9436C22.0292 28.8774 21.4871 28.2945 21.4871 27.5998L21.4861 7.7028L17.9139 11.2766C17.6711 11.5194 17.3125 11.6498 16.9371 11.6498C16.5618 11.6498 16.2032 11.5194 15.9604 11.2766C15.4627 10.779 15.4627 9.82066 15.9604 9.32303Z" fill="#333333"/>
</svg>
