<?xml version="1.0" encoding="UTF-8"?>
<svg width="32px" height="32px" viewBox="0 0 32 32" version="1.1" xmlns="http://www.w3.org/2000/svg" xmlns:xlink="http://www.w3.org/1999/xlink">
    <title>3F77360B-C6F0-4AF3-990A-63E48769BFE0</title>
    <defs>
        <path d="M13.8092707,7.77205969 C14.0393894,7.77205969 14.2307786,7.93285529 14.2704685,8.14490003 L14.2780207,8.22660515 L14.2780207,29.6686114 C14.2780207,30.0366809 13.8577752,30.2417718 13.5568244,30.0520777 L13.4943575,30.0053019 L5.15384022,22.6698787 C4.9620803,22.5012273 4.94761963,22.2137668 5.12154142,22.0278178 C5.27613856,21.8625298 5.52754306,21.833085 5.71618124,21.9470316 L5.78366672,21.9964977 L13.3400035,28.642718 L13.3405207,8.22660515 C13.3405207,8.00345979 13.5063412,7.81787027 13.7250123,7.77938303 L13.8092707,7.77205969 Z M19.8852273,1.07481229 L19.9475037,1.12263312 L28.2880209,8.64614409 C28.477572,8.81712742 28.4882926,9.10474187 28.311966,9.28854895 C28.1552313,9.45193301 27.9034638,9.47830069 27.7163227,9.36205603 L27.649486,9.3117684 L20.096566,2.49908164 L20.0969862,22.8974515 C20.0969862,23.1205969 19.9311658,23.3061864 19.7124946,23.3446737 L19.6282362,23.351997 C19.3981176,23.351997 19.2067284,23.1912014 19.1670384,22.9791567 L19.1594862,22.8974515 L19.1594862,1.45544527 C19.1594862,1.08483167 19.5847546,0.880515802 19.8852273,1.07481229 Z" id="path-2"></path>
    </defs>
    <g id="🧠-Symbols" stroke="none" stroke-width="1" fill="none" fill-rule="evenodd">
        <g id="icon_sort">
            <g>
                <rect id="boundbox" fill="#FFFFFF" opacity="0" x="0" y="0" width="32" height="32"></rect>
                <mask id="mask-3" fill="white">
                    <use xlink:href="#path-2"></use>
                </mask>
                <use id="icon-element" stroke="#112E51" stroke-width="0.75" fill="#112E51" fill-rule="nonzero" xlink:href="#path-2"></use>
            </g>
        </g>
    </g>
</svg>