
<?xml version="1.0" encoding="UTF-8"?>
<svg width="32px" height="32px" viewBox="0 0 32 32" version="1.1" xmlns="http://www.w3.org/2000/svg" xmlns:xlink="http://www.w3.org/1999/xlink">
    <title>5B77187C-991B-4A9C-85D3-DB60DBF67E3E</title>
    <g id="🧠-Symbols" stroke="none" stroke-width="1" fill="none" fill-rule="evenodd">
        <g id="icon-alert-success">
            <g>
                <rect id="boundbox" fill="#FFFFFF" opacity="0" x="0" y="0" width="32" height="32"></rect>
                <path d="M30,16 C30,23.7320081 23.7320081,30 16,30 C8.26799194,30 2,23.7320081 2,16 C2,8.26799194 8.26799194,2 16,2 C23.7320081,2 30,8.26799194 30,16 Z M14.380629,23.4128871 L24.7677258,13.0257903 C25.1204355,12.6730806 25.1204355,12.1011694 24.7677258,11.7484597 L23.4903952,10.471129 C23.1376855,10.1183629 22.5657742,10.1183629 22.2130081,10.471129 L13.7419355,18.9421452 L9.78699194,14.9872016 C9.43428226,14.6344919 8.86237097,14.6344919 8.50960484,14.9872016 L7.23227419,16.2645323 C6.87956452,16.6172419 6.87956452,17.1891532 7.23227419,17.5418629 L13.1032419,23.4128306 C13.4560081,23.7655968 14.0278629,23.7655968 14.380629,23.4128871 L14.380629,23.4128871 Z" id="Shape" fill="#00A91C"></path>
            </g>
        </g>
    </g>
</svg>