<?xml version="1.0" encoding="UTF-8"?>
<svg width="32px" height="32px" viewBox="0 0 32 32" version="1.1" xmlns="http://www.w3.org/2000/svg" xmlns:xlink="http://www.w3.org/1999/xlink">
    <title>8235778B-C6A6-4313-B92D-EB3D6C8584BF</title>
    <defs>
        <path d="M15.7116886,1.01149677 C16.8911959,0.907298426 18.0161621,1.51969704 18.5841654,2.51063382 L18.5841654,2.51063382 L18.669827,2.67274004 L19.2218144,2.67379585 C20.0479338,2.67379585 20.8519026,3.08273507 21.4395021,3.70004498 L26.2695333,3.7001076 C27.2146218,3.7001076 27.9085874,4.34729846 27.9916413,5.25906907 L28,5.44483756 L28,29.25527 C28,30.2006175 27.3651025,30.9068925 26.4550961,30.9914842 L26.2695333,31 L5.7304667,31 C4.78537816,31 4.09141263,30.3528091 4.0083587,29.4410385 L4,29.25527 L4,5.44483756 C4,4.49949014 4.63489749,3.79321506 5.5449039,3.70862344 L5.7304667,3.7001076 L10.6261124,3.70027043 C11.1924539,3.18176899 11.9486622,2.8790582 12.7781856,2.8790582 L12.7781856,2.8790582 L13.2656109,2.87820765 L13.3225978,2.75069181 C13.6966612,1.96603203 14.3556993,1.3546475 15.2130343,1.10527574 L15.2130343,1.10527574 L15.4517043,1.04638258 Z M22.2641172,5.1360548 C22.3091786,5.30270798 22.3394738,5.47262194 22.3532791,5.64401667 L22.3532791,5.64401667 L22.3618249,5.85536226 L22.361,6.573 L23.4504457,6.57378048 C23.8056997,6.57378048 24.1011637,6.82792116 24.1624365,7.16306212 L24.1740954,7.2921987 L24.1740954,26.1763348 C24.1740954,26.5290205 23.9181041,26.8223485 23.5805227,26.8831783 L23.4504457,26.894753 L8.54955427,26.894753 C8.19430032,26.894753 7.89883634,26.6406123 7.83756353,26.3054714 L7.82590456,26.1763348 L7.82590456,7.2921987 C7.82590456,6.93951299 8.08189588,6.64618501 8.41947732,6.58535516 L8.54955427,6.57378048 L9.638,6.573 L9.63817514,5.65009991 L9.6527826,5.50648066 L9.70305964,5.26484294 C9.71385826,5.2214381 9.72547893,5.17846679 9.73790317,5.13594278 L5.7304667,5.13694404 C5.56372841,5.13694404 5.47824333,5.19575655 5.45437992,5.34452942 L5.44729942,5.44483756 L5.44729942,29.25527 C5.44729942,29.441273 5.50499479,29.531086 5.64001706,29.5558569 L5.7304667,29.5631636 L26.2695333,29.5631636 C26.4362716,29.5631636 26.5217567,29.504351 26.5456201,29.3555782 L26.5527006,29.25527 L26.5527006,5.44483756 C26.5527006,5.25883464 26.4950052,5.16902164 26.3599829,5.14425072 L26.2695333,5.13694404 Z M21.1327867,7.8063848 L10.8672489,7.80635035 C10.7662714,7.90419863 10.6365796,7.97297231 10.4919018,7.99904224 L10.3618249,8.01061692 L9.2725118,8.01058742 L9.2725118,25.4566555 L22.7266072,25.4566555 L22.7266072,8.01058742 L21.6381751,8.01061692 C21.4415346,8.01061692 21.2632128,7.93275187 21.1327867,7.8063848 Z M19.6245412,20.9421449 C20.0242019,20.9421449 20.3481909,21.2637917 20.3481909,21.6605631 C20.3481909,22.0132488 20.0921996,22.3065768 19.7546181,22.3674067 L19.6245412,22.3789813 L12.1740954,22.3789813 C11.7744347,22.3789813 11.4504457,22.0573346 11.4504457,21.6605631 C11.4504457,21.3078774 11.706437,21.0145494 12.0440185,20.9537196 L12.1740954,20.9421449 L19.6245412,20.9421449 Z M19.6245412,16.2211109 C20.0242019,16.2211109 20.3481909,16.5427577 20.3481909,16.9395291 C20.3481909,17.2922148 20.0921996,17.5855428 19.7546181,17.6463726 L19.6245412,17.6579473 L12.1740954,17.6579473 C11.7744347,17.6579473 11.4504457,17.3363005 11.4504457,16.9395291 C11.4504457,16.5868434 11.706437,16.2935154 12.0440185,16.2326856 L12.1740954,16.2211109 L19.6245412,16.2211109 Z M19.6245412,11.2948145 C20.0242019,11.2948145 20.3481909,11.6164613 20.3481909,12.0132327 C20.3481909,12.3659184 20.0921996,12.6592464 19.7546181,12.7200763 L19.6245412,12.7316509 L12.1740954,12.7316509 C11.7744347,12.7316509 11.4504457,12.4100042 11.4504457,12.0132327 C11.4504457,11.660547 11.706437,11.367219 12.0440185,11.3063892 L12.1740954,11.2948145 L19.6245412,11.2948145 Z M17.4648498,3.55149242 C17.2567889,2.81662663 16.4909978,2.32713905 15.7318091,2.45577774 L15.7318091,2.45577774 L15.560201,2.50342608 C15.0867901,2.66524586 14.7253739,3.05917519 14.5464964,3.57043322 L14.5464964,3.57043322 L14.4881116,3.76743058 C14.4091647,4.08933276 14.1187214,4.31589464 13.7850026,4.31589464 L13.7850026,4.31589464 L12.7781856,4.31589464 C11.9651915,4.31589464 11.302994,4.82614558 11.11464,5.58072762 L11.11464,5.58072762 L11.0845307,5.72170697 L11.0845307,6.36828337 L20.9131411,6.36828337 L20.9145254,5.85536226 C20.9145254,5.06880861 20.1335865,4.22358898 19.3733485,4.121009 L19.3733485,4.121009 L19.2218144,4.11063229 L18.7291662,4.10957648 L18.6912736,4.14917298 C18.3079664,4.4635334 17.6037065,4.3426104 17.5006965,3.71258272 L17.5006965,3.71258272 Z" id="path-2"></path>
    </defs>
    <g id="🧠-Symbols" stroke="none" stroke-width="1" fill="none" fill-rule="evenodd">
        <g id="icon_survey">
            <g>
                <rect id="boundbox" fill="#FFFFFF" opacity="0" x="0" y="0" width="32" height="32"></rect>
                <mask id="mask-3" fill="white">
                    <use xlink:href="#path-2"></use>
                </mask>
                <use id="icon" fill="#112E51" fill-rule="nonzero" xlink:href="#path-2"></use>
            </g>
        </g>
    </g>
</svg>