<?xml version="1.0" encoding="UTF-8"?>
<svg width="32px" height="32px" viewBox="0 0 32 32" version="1.1" xmlns="http://www.w3.org/2000/svg" xmlns:xlink="http://www.w3.org/1999/xlink">
    <title>topics</title>
    <g id="🧠-Symbols" stroke="none" stroke-width="1" fill="none" fill-rule="evenodd">
        <g id="topics" fill="#333333">
            <rect id="boundbox" opacity="0" x="0" y="0" width="32" height="32"></rect>
            <g transform="translate(0.573987, 3.900000)" fill-rule="nonzero">
                <path d="M30,1 C29.4,0.4 28.5,1.77635684e-15 27.6,1.77635684e-15 C26.2,1.77635684e-15 19.8,0.5 15.8,2.6 C15.6,2.7 15.3,2.7 15.2,2.6 C11.2,0.5 4.8,1.77635684e-15 3.4,1.77635684e-15 C1.5,1.77635684e-15 0,1.5 0,3.3 L0,19.1 C0,20.9 1.4,22.3 3.2,22.4 C5,22.5 9.7,22.8 12.8,24 C13.1,24.1 13.4,24.2 13.7,24.2 L17.1,24.2 C17.4,24.2 17.7,24.1 18,24 C21.2,22.8 25.8,22.5 27.6,22.4 C29.4,22.3 30.8,20.9 30.8,19.1 L30.8,3.3 C31,2.4 30.6,1.6 30,1 Z M14.5,21.5 C14.5,21.9 14,22.3 13.6,22.1 C10.3,20.9 5.7,20.5 3.3,20.4 C2.6,20.4 2,19.8 2,19.1 L2,3.3 C2,2.6 2.6,2 3.4,2 C4.3,2 9.9,2.4 13.6,4 C14.1,4.3 14.5,4.8 14.5,5.4 L14.5,21.5 Z M29,19.2 C29,19.9 28.4,20.4 27.7,20.4 C25.3,20.5 20.7,20.9 17.4,22.1 C17,22.3 16.5,21.9 16.5,21.5 L16.5,5.4 C16.5,4.8 16.9,4.3 17.4,4.1 C21.1,2.5 26.6,2.1 27.6,2.1 C28.4,2.1 29,2.7 29,3.4 L29,19.2 L29,19.2 Z" id="Shape"></path>
                <path d="M27.1,6.6 L19.1,6.6 C18.6,6.6 18.2,7 18.2,7.5 C18.2,8 18.6,8.4 19.1,8.4 L27.1,8.4 C27.6,8.4 28,8 28,7.5 C28.1,7 27.6,6.6 27.1,6.6 Z" id="Path"></path>
                <path d="M27.1,11.3 L19.1,11.3 C18.6,11.3 18.2,11.7 18.2,12.2 C18.2,12.7 18.6,13.1 19.1,13.1 L27.1,13.1 C27.6,13.1 28,12.7 28,12.2 C28.1,11.7 27.6,11.3 27.1,11.3 Z" id="Path"></path>
                <path d="M27.1,16 L19.1,16 C18.6,16 18.2,16.4 18.2,16.9 C18.2,17.4 18.6,17.8 19.1,17.8 L27.1,17.8 C27.6,17.8 28,17.4 28,16.9 C28,16.4 27.6,16 27.1,16 Z" id="Path"></path>
                <path d="M12.3,6.6 L4.3,6.6 C3.8,6.6 3.4,7 3.4,7.5 C3.4,8 3.8,8.4 4.3,8.4 L12.3,8.4 C12.8,8.4 13.2,8 13.2,7.5 C13.2,7 12.8,6.6 12.3,6.6 Z" id="Path"></path>
                <path d="M12.3,11.3 L4.3,11.3 C3.8,11.3 3.4,11.7 3.4,12.2 C3.4,12.7 3.8,13.1 4.3,13.1 L12.3,13.1 C12.8,13.1 13.2,12.7 13.2,12.2 C13.2,11.7 12.8,11.3 12.3,11.3 Z" id="Path"></path>
                <path d="M12.3,16 L4.3,16 C3.8,16 3.4,16.4 3.4,16.9 C3.4,17.4 3.8,17.8 4.3,17.8 L12.3,17.8 C12.8,17.8 13.2,17.4 13.2,16.9 C13.2,16.4 12.8,16 12.3,16 Z" id="Path"></path>
            </g>
        </g>
    </g>
</svg>