<svg width="16" height="10" viewBox="0 0 16 10" fill="none" xmlns="http://www.w3.org/2000/svg">
<g clip-path="url(#clip0_50_1164)">
<path d="M5.55009 1.46815L5.55015 1.46825C5.55031 1.46859 5.55034 1.46864 5.55023 1.46841L5.68539 1.75001H6H11C11.2761 1.75001 11.5 1.97386 11.5 2.25001V9C11.5 9.27614 11.2761 9.5 11 9.5H1C0.723858 9.5 0.5 9.27614 0.5 9V1.25321C0.500009 1.25288 0.500021 1.25246 0.500037 1.25196C0.500149 1.24847 0.500444 1.24113 0.501172 1.23051C0.50264 1.2091 0.505799 1.1754 0.512469 1.13372C0.526199 1.04792 0.552721 0.94152 0.600751 0.841468C0.648067 0.742905 0.710234 0.662523 0.791425 0.606147C0.868464 0.552654 0.991774 0.500156 1.2 0.500156C1.75234 0.500156 2.17747 0.500115 2.59244 0.500075C3.07926 0.500028 3.5521 0.499983 4.19998 0.500006C4.61298 0.500021 4.94134 0.712993 5.18931 0.971292C5.31139 1.09845 5.40427 1.22721 5.46637 1.32423C5.49712 1.37229 5.51954 1.41132 5.53351 1.43678C5.54047 1.44948 5.54528 1.45869 5.54791 1.46384L5.55009 1.46815Z" stroke="#3A73C1"/>
<path d="M3.18929 4.49847C3.36816 4.18993 3.6978 4 4.05443 4H14.2644C15.035 4 15.516 4.83487 15.1295 5.50153L12.8107 9.50153C12.6318 9.81007 12.3022 10 11.9456 10H1.73559C0.965008 10 0.48398 9.16513 0.870452 8.49847L3.18929 4.49847Z" fill="#3A73C1"/>
</g>
<defs>
<clipPath id="clip0_50_1164">
<rect width="16" height="10" fill="white"/>
</clipPath>
</defs>
</svg>
