<?xml version="1.0" encoding="UTF-8"?>
<svg width="32px" height="32px" viewBox="0 0 32 32" version="1.1" xmlns="http://www.w3.org/2000/svg" xmlns:xlink="http://www.w3.org/1999/xlink">
    <title>warning-triangle-alt</title>
    <g id="🧠-Symbols" stroke="none" stroke-width="1" fill="none" fill-rule="evenodd">
        <g id="warning-triangle-alt" fill="#333333">
            <rect id="boundbox" opacity="0" x="0" y="0" width="32" height="32"></rect>
            <g id="warning-triangle" transform="translate(0.249601, 1.703125)" fill-rule="nonzero">
                <path d="M15.7461393,0 C16.6902741,0 17.5619423,0.459387686 18.1001487,1.27500969 L18.2032665,1.44285332 L31.1199386,24.2728242 C32.1763788,26.141273 30.9111517,28.4676646 28.8330254,28.5888123 L28.6627771,28.59375 L2.83932392,28.59375 C0.711703149,28.59375 -0.632252406,26.3190366 0.301431743,24.4254787 L0.382156533,24.2728347 L13.2895005,1.44199393 C13.8144358,0.522681101 14.7390621,0 15.7461393,0 Z M16.1712077,21.2230474 L15.3600543,21.2230474 L15.2201916,21.2283505 L15.0868517,21.244629 C14.4841842,21.3443574 14.1569491,21.7746337 14.1569491,22.4464314 L14.1569491,22.4464314 L14.1569491,23.1561906 L14.1622381,23.2980476 L14.1783549,23.4326851 C14.2770956,24.0417346 14.7029597,24.3795746 15.3600543,24.3795746 L15.3600543,24.3795746 L16.1712077,24.3795746 L16.3132156,24.3742781 L16.4489176,24.3580093 C17.0628763,24.2582403 17.4047311,23.8268064 17.4047311,23.1561906 L17.4047311,23.1561906 L17.4047311,22.4464314 L17.3972366,22.300751 L17.3791084,22.1658704 C17.2713471,21.556098 16.8412683,21.2230474 16.1712077,21.2230474 L16.1712077,21.2230474 Z M16.2219047,8.21417538 L15.2687996,8.21417538 L15.1286392,8.21964561 L14.9949914,8.23641583 C14.3911117,8.3390126 14.0656944,8.78012436 14.0656944,9.46797766 L14.0656944,9.46797766 L14.2279702,18.0101165 L14.2401761,18.1570749 L14.2622549,18.2886026 C14.3871787,18.8832487 14.8164436,19.208472 15.4614485,19.208472 L15.4614485,19.208472 L16.0495347,19.208472 L16.1913916,19.203183 L16.3260291,19.1870662 C16.9350787,19.0883255 17.2729187,18.6624613 17.2729187,18.0053668 L17.2729187,18.0053668 L17.4351042,9.4727274 L17.4344961,9.33209064 L17.4207227,9.17292849 C17.386552,8.91697009 17.2959812,8.70765916 17.1441322,8.54631963 C16.9300702,8.31887875 16.6223057,8.21417538 16.2219047,8.21417538 L16.2219047,8.21417538 Z" id="Combined-Shape"></path>
            </g>
        </g>
    </g>
</svg>