<?xml version="1.0" encoding="UTF-8"?>
<svg width="32px" height="32px" viewBox="0 0 32 32" version="1.1" xmlns="http://www.w3.org/2000/svg" xmlns:xlink="http://www.w3.org/1999/xlink">
    <title>4267CE4C-EF3E-4E33-A4BF-6C182534D6D1</title>
    <g id="🧠-Symbols" stroke="none" stroke-width="1" fill="none" fill-rule="evenodd">
        <g id="icon-alert-warning">
            <g>
                <rect id="boundbox" fill="#FFFFFF" opacity="0" x="0" y="0" width="32" height="32"></rect>
                <path d="M29.6848602,24.4850098 C30.5821239,26.0472168 29.4558534,28 27.6637566,28 L4.33597161,28 C2.5404235,28 1.41935438,26.0441895 2.31486801,24.4850098 L13.9789064,4.17114281 C14.8766075,2.60820337 17.1250166,2.6110354 18.0211136,4.17114281 L29.6848602,24.4850098 Z M16.00001,20.2851563 C14.765045,20.2851563 13.7638995,21.2907715 13.7638995,22.5312501 C13.7638995,23.7717286 14.765045,24.7773438 16.00001,24.7773438 C17.2349749,24.7773438 18.2361204,23.7717286 18.2361204,22.5312501 C18.2361204,21.2907715 17.2349749,20.2851563 16.00001,20.2851563 Z M13.8770175,12.2116212 L14.2376146,18.8522462 C14.2544827,19.1629884 14.5102743,19.4062501 14.8200728,19.4062501 L17.1799471,19.4062501 C17.4897456,19.4062501 17.7455372,19.1629884 17.7624053,18.8522462 L18.1230024,12.2116212 C18.1412316,11.8759767 17.875183,11.5937502 17.5405442,11.5937502 L14.4594271,11.5937502 C14.1247883,11.5937502 13.8587883,11.8759767 13.8770175,12.2116212 L13.8770175,12.2116212 Z" id="Shape" fill="#FFBE2E"></path>
            </g>
        </g>
    </g>
</svg>